<svg width="485" height="248" viewBox="0 0 485 248" fill="none" xmlns="http://www.w3.org/2000/svg">
<path d="M129 189H347V205.167H129V189Z" fill="#BFBFBF"/>
<path d="M134 115H352V131.167H134V115Z" fill="#00EFB5"/>
<path d="M133 47H351V63.1667H133V47Z" fill="#00B0F0"/>
<rect x="1" y="1" width="483" height="246" rx="4" stroke="#FFC000" stroke-width="2"/>
<path d="M37 28C37 26.3431 38.3431 25 40 25H163.167C164.824 25 166.167 26.3431 166.167 28V79.1667H37V28Z" fill="#00B0F0"/>
<path d="M86.5388 41.9167H85.3939C85.3262 41.5874 85.2077 41.2981 85.0385 41.0488C84.8723 40.7995 84.6691 40.5902 84.4291 40.4209C84.1921 40.2486 83.929 40.1193 83.6397 40.0331C83.3504 39.947 83.0488 39.9039 82.7348 39.9039C82.1624 39.9039 81.6438 40.0485 81.1791 40.3378C80.7174 40.6271 80.3497 41.0534 80.0757 41.6166C79.8049 42.1798 79.6695 42.8707 79.6695 43.6894C79.6695 44.508 79.8049 45.199 80.0757 45.7622C80.3497 46.3254 80.7174 46.7517 81.1791 47.041C81.6438 47.3303 82.1624 47.4749 82.7348 47.4749C83.0488 47.4749 83.3504 47.4318 83.6397 47.3456C83.929 47.2595 84.1921 47.1317 84.4291 46.9625C84.6691 46.7901 84.8723 46.5793 85.0385 46.33C85.2077 46.0776 85.3262 45.7883 85.3939 45.4621H86.5388C86.4526 45.9453 86.2957 46.3777 86.0679 46.7593C85.8402 47.141 85.557 47.4657 85.2185 47.7334C84.88 47.9981 84.4999 48.1997 84.0782 48.3382C83.6597 48.4767 83.2119 48.5459 82.7348 48.5459C81.9285 48.5459 81.2114 48.349 80.5836 47.955C79.9557 47.5611 79.4618 47.0009 79.1017 46.2746C78.7416 45.5483 78.5615 44.6866 78.5615 43.6894C78.5615 42.6922 78.7416 41.8305 79.1017 41.1042C79.4618 40.3778 79.9557 39.8177 80.5836 39.4238C81.2114 39.0298 81.9285 38.8329 82.7348 38.8329C83.2119 38.8329 83.6597 38.9021 84.0782 39.0406C84.4999 39.1791 84.88 39.3822 85.2185 39.65C85.557 39.9147 85.8402 40.2378 86.0679 40.6194C86.2957 40.998 86.4526 41.4304 86.5388 41.9167ZM90.3278 48.5829C89.8784 48.5829 89.4707 48.4982 89.1044 48.329C88.7382 48.1566 88.4473 47.9089 88.2319 47.5857C88.0165 47.2595 87.9088 46.8655 87.9088 46.4039C87.9088 45.9976 87.9888 45.6683 88.1488 45.416C88.3088 45.1605 88.5227 44.9605 88.7905 44.8158C89.0583 44.6712 89.3537 44.5634 89.6769 44.4927C90.0031 44.4188 90.3309 44.3603 90.6602 44.3172C91.091 44.2618 91.4404 44.2203 91.7081 44.1926C91.9789 44.1618 92.1759 44.111 92.299 44.0402C92.4252 43.9695 92.4883 43.8464 92.4883 43.6709V43.634C92.4883 43.1785 92.3637 42.8246 92.1144 42.5722C91.8682 42.3198 91.4942 42.1937 90.9926 42.1937C90.4724 42.1937 90.0646 42.3075 89.7692 42.5353C89.4737 42.763 89.266 43.0062 89.146 43.2647L88.1119 42.8954C88.2965 42.4645 88.5427 42.129 88.8505 41.889C89.1614 41.6458 89.4999 41.4766 89.8661 41.3812C90.2355 41.2827 90.5986 41.2334 90.9556 41.2334C91.1834 41.2334 91.445 41.2611 91.7404 41.3165C92.039 41.3688 92.3267 41.4781 92.6037 41.6443C92.8838 41.8105 93.1161 42.0613 93.3008 42.3968C93.4855 42.7322 93.5778 43.1816 93.5778 43.7448V48.4167H92.4883V47.4564H92.4329C92.359 47.6103 92.2359 47.775 92.0636 47.9504C91.8912 48.1258 91.6619 48.2751 91.3757 48.3982C91.0895 48.5213 90.7402 48.5829 90.3278 48.5829ZM90.494 47.6042C90.9248 47.6042 91.288 47.5195 91.5835 47.3503C91.882 47.181 92.1067 46.9625 92.2575 46.6947C92.4114 46.427 92.4883 46.1454 92.4883 45.8499V44.8527C92.4421 44.9081 92.3406 44.9589 92.1836 45.0051C92.0297 45.0482 91.8512 45.0866 91.6481 45.1205C91.4481 45.1513 91.2526 45.179 91.0618 45.2036C90.8741 45.2251 90.7217 45.2436 90.6048 45.259C90.3216 45.2959 90.057 45.3559 89.8107 45.439C89.5676 45.5191 89.3706 45.6406 89.2198 45.8037C89.0721 45.9638 88.9982 46.1823 88.9982 46.4593C88.9982 46.8378 89.1383 47.1241 89.4183 47.3179C89.7015 47.5088 90.06 47.6042 90.494 47.6042ZM98.6501 41.3258V42.2491H94.9754V41.3258H98.6501ZM96.0464 39.6269H97.1359V46.3854C97.1359 46.6932 97.1806 46.924 97.2698 47.0779C97.3621 47.2287 97.4791 47.3303 97.6207 47.3826C97.7653 47.4318 97.9177 47.4564 98.0777 47.4564C98.1977 47.4564 98.2962 47.4503 98.3732 47.438C98.4501 47.4226 98.5116 47.4103 98.5578 47.401L98.7794 48.3797C98.7055 48.4074 98.6024 48.4351 98.4701 48.4628C98.3378 48.4936 98.17 48.509 97.9669 48.509C97.6591 48.509 97.3575 48.4428 97.0621 48.3105C96.7697 48.1781 96.5266 47.9766 96.3327 47.7057C96.1419 47.4349 96.0464 47.0933 96.0464 46.6809V39.6269ZM102.376 48.5829C101.926 48.5829 101.519 48.4982 101.152 48.329C100.786 48.1566 100.495 47.9089 100.28 47.5857C100.064 47.2595 99.9566 46.8655 99.9566 46.4039C99.9566 45.9976 100.037 45.6683 100.197 45.416C100.357 45.1605 100.571 44.9605 100.838 44.8158C101.106 44.6712 101.402 44.5634 101.725 44.4927C102.051 44.4188 102.379 44.3603 102.708 44.3172C103.139 44.2618 103.488 44.2203 103.756 44.1926C104.027 44.1618 104.224 44.111 104.347 44.0402C104.473 43.9695 104.536 43.8464 104.536 43.6709V43.634C104.536 43.1785 104.412 42.8246 104.162 42.5722C103.916 42.3198 103.542 42.1937 103.04 42.1937C102.52 42.1937 102.112 42.3075 101.817 42.5353C101.522 42.763 101.314 43.0062 101.194 43.2647L100.16 42.8954C100.344 42.4645 100.591 42.129 100.898 41.889C101.209 41.6458 101.548 41.4766 101.914 41.3812C102.283 41.2827 102.646 41.2334 103.003 41.2334C103.231 41.2334 103.493 41.2611 103.788 41.3165C104.087 41.3688 104.375 41.4781 104.652 41.6443C104.932 41.8105 105.164 42.0613 105.349 42.3968C105.533 42.7322 105.626 43.1816 105.626 43.7448V48.4167H104.536V47.4564H104.481C104.407 47.6103 104.284 47.775 104.111 47.9504C103.939 48.1258 103.71 48.2751 103.424 48.3982C103.137 48.5213 102.788 48.5829 102.376 48.5829ZM102.542 47.6042C102.973 47.6042 103.336 47.5195 103.631 47.3503C103.93 47.181 104.155 46.9625 104.305 46.6947C104.459 46.427 104.536 46.1454 104.536 45.8499V44.8527C104.49 44.9081 104.388 44.9589 104.231 45.0051C104.078 45.0482 103.899 45.0866 103.696 45.1205C103.496 45.1513 103.3 45.179 103.11 45.2036C102.922 45.2251 102.77 45.2436 102.653 45.259C102.369 45.2959 102.105 45.3559 101.859 45.439C101.615 45.5191 101.418 45.6406 101.268 45.8037C101.12 45.9638 101.046 46.1823 101.046 46.4593C101.046 46.8378 101.186 47.1241 101.466 47.3179C101.749 47.5088 102.108 47.6042 102.542 47.6042ZM108.704 38.9621V48.4167H107.614V38.9621H108.704ZM113.58 48.5644C112.94 48.5644 112.378 48.412 111.895 48.1074C111.415 47.8027 111.039 47.3764 110.768 46.8286C110.501 46.2808 110.367 45.6406 110.367 44.9081C110.367 44.1695 110.501 43.5247 110.768 42.9738C111.039 42.4229 111.415 41.9951 111.895 41.6905C112.378 41.3858 112.94 41.2334 113.58 41.2334C114.22 41.2334 114.78 41.3858 115.26 41.6905C115.743 41.9951 116.119 42.4229 116.387 42.9738C116.657 43.5247 116.793 44.1695 116.793 44.9081C116.793 45.6406 116.657 46.2808 116.387 46.8286C116.119 47.3764 115.743 47.8027 115.26 48.1074C114.78 48.412 114.22 48.5644 113.58 48.5644ZM113.58 47.5857C114.066 47.5857 114.466 47.4611 114.78 47.2118C115.094 46.9625 115.326 46.6347 115.477 46.2285C115.628 45.8222 115.703 45.3821 115.703 44.9081C115.703 44.4342 115.628 43.9925 115.477 43.5832C115.326 43.1739 115.094 42.843 114.78 42.5907C114.466 42.3383 114.066 42.2121 113.58 42.2121C113.094 42.2121 112.693 42.3383 112.38 42.5907C112.066 42.843 111.833 43.1739 111.682 43.5832C111.532 43.9925 111.456 44.4342 111.456 44.9081C111.456 45.3821 111.532 45.8222 111.682 46.2285C111.833 46.6347 112.066 46.9625 112.38 47.2118C112.693 47.4611 113.094 47.5857 113.58 47.5857ZM121.318 51.2235C120.792 51.2235 120.34 51.1558 119.961 51.0204C119.582 50.888 119.267 50.7126 119.015 50.4941C118.765 50.2786 118.567 50.0478 118.419 49.8016L119.287 49.1922C119.385 49.3215 119.51 49.4692 119.661 49.6354C119.812 49.8047 120.018 49.9509 120.279 50.074C120.544 50.2002 120.89 50.2633 121.318 50.2633C121.891 50.2633 122.363 50.1248 122.735 49.8478C123.108 49.5708 123.294 49.1368 123.294 48.5459V47.1056H123.202C123.122 47.2348 123.008 47.3949 122.86 47.5857C122.715 47.7734 122.506 47.9412 122.232 48.0889C121.961 48.2335 121.595 48.3059 121.134 48.3059C120.561 48.3059 120.047 48.1705 119.592 47.8996C119.139 47.6288 118.781 47.2348 118.516 46.7178C118.254 46.2008 118.124 45.5729 118.124 44.8343C118.124 44.108 118.251 43.4755 118.507 42.9369C118.762 42.3952 119.118 41.9767 119.573 41.6812C120.029 41.3827 120.555 41.2334 121.152 41.2334C121.614 41.2334 121.98 41.3104 122.251 41.4642C122.525 41.6151 122.734 41.7874 122.879 41.9813C123.026 42.1721 123.14 42.3291 123.22 42.4522H123.331V41.3258H124.384V48.6198C124.384 49.2292 124.245 49.7247 123.968 50.1063C123.694 50.491 123.325 50.7726 122.86 50.9511C122.398 51.1327 121.884 51.2235 121.318 51.2235ZM121.281 47.3272C121.718 47.3272 122.088 47.2272 122.389 47.0271C122.691 46.8271 122.92 46.5393 123.077 46.1638C123.234 45.7883 123.313 45.339 123.313 44.8158C123.313 44.3049 123.236 43.854 123.082 43.4632C122.928 43.0723 122.7 42.7661 122.398 42.5445C122.097 42.3229 121.724 42.2121 121.281 42.2121C120.82 42.2121 120.435 42.3291 120.127 42.563C119.822 42.7969 119.593 43.1108 119.439 43.5047C119.288 43.8987 119.213 44.3357 119.213 44.8158C119.213 45.3082 119.29 45.7437 119.444 46.1223C119.601 46.4977 119.832 46.7932 120.136 47.0086C120.444 47.221 120.826 47.3272 121.281 47.3272ZM87.7512 57.3258C87.6958 56.858 87.4711 56.4948 87.0772 56.2363C86.6833 55.9777 86.2001 55.8485 85.6276 55.8485C85.2091 55.8485 84.8428 55.9162 84.5289 56.0516C84.2181 56.187 83.9749 56.3732 83.7995 56.6102C83.6272 56.8472 83.541 57.1165 83.541 57.4181C83.541 57.6705 83.601 57.8874 83.721 58.069C83.8441 58.2475 84.0011 58.3968 84.1919 58.5168C84.3827 58.6338 84.5828 58.7307 84.7921 58.8076C85.0013 58.8815 85.1937 58.9415 85.3691 58.9877L86.3293 59.2462C86.5756 59.3108 86.8495 59.4001 87.1511 59.514C87.4558 59.6278 87.7466 59.7833 88.0236 59.9802C88.3037 60.1741 88.5345 60.4234 88.7161 60.7281C88.8976 61.0328 88.9884 61.4067 88.9884 61.8499C88.9884 62.3608 88.8546 62.8224 88.5868 63.2348C88.3221 63.6473 87.9343 63.975 87.4234 64.2182C86.9156 64.4613 86.2986 64.5829 85.5722 64.5829C84.8952 64.5829 84.3089 64.4736 83.8134 64.2551C83.3209 64.0366 82.9332 63.7319 82.65 63.341C82.3699 62.9502 82.2114 62.4962 82.1745 61.9792H83.3563C83.3871 62.3362 83.5071 62.6316 83.7164 62.8655C83.9288 63.0964 84.1965 63.2687 84.5197 63.3826C84.8459 63.4934 85.1968 63.5488 85.5722 63.5488C86.0093 63.5488 86.4017 63.478 86.7494 63.3364C87.0972 63.1918 87.3727 62.9917 87.5758 62.7363C87.7789 62.4777 87.8805 62.1761 87.8805 61.8314C87.8805 61.5175 87.7928 61.2621 87.6173 61.0651C87.4419 60.8681 87.2111 60.7081 86.9249 60.585C86.6386 60.4619 86.3293 60.3542 85.997 60.2618L84.8336 59.9294C84.095 59.7171 83.5102 59.4139 83.0793 59.02C82.6485 58.6261 82.433 58.1106 82.433 57.4735C82.433 56.9441 82.5761 56.4825 82.8624 56.0885C83.1517 55.6915 83.5394 55.3838 84.0257 55.1652C84.5151 54.9437 85.0613 54.8329 85.6646 54.8329C86.2739 54.8329 86.8156 54.9421 87.2896 55.1606C87.7635 55.3761 88.139 55.6715 88.416 56.047C88.6961 56.4225 88.8438 56.8487 88.8592 57.3258H87.7512ZM93.6961 64.5644C93.0128 64.5644 92.4235 64.4136 91.928 64.112C91.4355 63.8073 91.0555 63.3826 90.7877 62.8378C90.523 62.29 90.3907 61.6529 90.3907 60.9266C90.3907 60.2003 90.523 59.5601 90.7877 59.0062C91.0555 58.4491 91.4279 58.0151 91.9049 57.7043C92.385 57.3904 92.9451 57.2334 93.5853 57.2334C93.9546 57.2334 94.3193 57.295 94.6794 57.4181C95.0395 57.5412 95.3672 57.7412 95.6627 58.0182C95.9582 58.2921 96.1936 58.6553 96.369 59.1077C96.5444 59.5601 96.6322 60.1172 96.6322 60.7789V61.2405H91.1663V60.2988H95.5242C95.5242 59.8987 95.4442 59.5417 95.2842 59.2277C95.1272 58.9138 94.9025 58.6661 94.6101 58.4845C94.3208 58.3029 93.9792 58.2121 93.5853 58.2121C93.1513 58.2121 92.7759 58.3198 92.4589 58.5353C92.1449 58.7476 91.9034 59.0246 91.7341 59.3662C91.5648 59.7079 91.4802 60.0741 91.4802 60.465V61.0928C91.4802 61.6283 91.5725 62.0823 91.7572 62.4547C91.9449 62.824 92.205 63.1056 92.5373 63.2995C92.8697 63.4903 93.256 63.5857 93.6961 63.5857C93.9823 63.5857 94.2408 63.5457 94.4717 63.4657C94.7056 63.3826 94.9071 63.2595 95.0764 63.0964C95.2457 62.9302 95.3765 62.724 95.4688 62.4777L96.5214 62.7732C96.4106 63.1302 96.2244 63.4441 95.9628 63.715C95.7012 63.9827 95.378 64.192 94.9933 64.3428C94.6086 64.4905 94.1762 64.5644 93.6961 64.5644ZM98.2895 64.4167V57.3258H99.342V58.3968H99.4159C99.5452 58.0459 99.7791 57.7612 100.118 57.5427C100.456 57.3242 100.838 57.215 101.262 57.215C101.343 57.215 101.443 57.2165 101.563 57.2196C101.683 57.2227 101.773 57.2273 101.835 57.2334V58.3414C101.798 58.3321 101.713 58.3183 101.581 58.2998C101.452 58.2783 101.315 58.2675 101.17 58.2675C100.825 58.2675 100.518 58.3398 100.247 58.4845C99.9791 58.6261 99.7668 58.823 99.6098 59.0754C99.4559 59.3247 99.379 59.6094 99.379 59.9294V64.4167H98.2895ZM109.141 57.3258L106.518 64.4167H105.41L102.788 57.3258H103.97L105.927 62.9763H106.001L107.959 57.3258H109.141ZM113.298 64.5644C112.614 64.5644 112.025 64.4136 111.53 64.112C111.037 63.8073 110.657 63.3826 110.389 62.8378C110.125 62.29 109.992 61.6529 109.992 60.9266C109.992 60.2003 110.125 59.5601 110.389 59.0062C110.657 58.4491 111.029 58.0151 111.506 57.7043C111.987 57.3904 112.547 57.2334 113.187 57.2334C113.556 57.2334 113.921 57.295 114.281 57.4181C114.641 57.5412 114.969 57.7412 115.264 58.0182C115.56 58.2921 115.795 58.6553 115.971 59.1077C116.146 59.5601 116.234 60.1172 116.234 60.7789V61.2405H110.768V60.2988H115.126C115.126 59.8987 115.046 59.5417 114.886 59.2277C114.729 58.9138 114.504 58.6661 114.212 58.4845C113.922 58.3029 113.581 58.2121 113.187 58.2121C112.753 58.2121 112.377 58.3198 112.06 58.5353C111.747 58.7476 111.505 59.0246 111.336 59.3662C111.166 59.7079 111.082 60.0741 111.082 60.465V61.0928C111.082 61.6283 111.174 62.0823 111.359 62.4547C111.546 62.824 111.807 63.1056 112.139 63.2995C112.471 63.4903 112.858 63.5857 113.298 63.5857C113.584 63.5857 113.842 63.5457 114.073 63.4657C114.307 63.3826 114.509 63.2595 114.678 63.0964C114.847 62.9302 114.978 62.724 115.07 62.4777L116.123 62.7732C116.012 63.1302 115.826 63.4441 115.564 63.715C115.303 63.9827 114.98 64.192 114.595 64.3428C114.21 64.4905 113.778 64.5644 113.298 64.5644ZM117.891 64.4167V57.3258H118.944V58.3968H119.017C119.147 58.0459 119.381 57.7612 119.719 57.5427C120.058 57.3242 120.439 57.215 120.864 57.215C120.944 57.215 121.044 57.2165 121.164 57.2196C121.284 57.2227 121.375 57.2273 121.436 57.2334V58.3414C121.4 58.3321 121.315 58.3183 121.183 58.2998C121.053 58.2783 120.916 58.2675 120.772 58.2675C120.427 58.2675 120.119 58.3398 119.848 58.4845C119.581 58.6261 119.368 58.823 119.211 59.0754C119.057 59.3247 118.981 59.6094 118.981 59.9294V64.4167H117.891Z" fill="white"/>
<rect x="37" y="96.1667" width="129.167" height="56.25" fill="#00EFB5"/>
<path d="M86.7921 113.083H85.6472C85.5795 112.754 85.461 112.465 85.2917 112.215C85.1255 111.966 84.9224 111.757 84.6823 111.588C84.4454 111.415 84.1822 111.286 83.8929 111.2C83.6036 111.114 83.302 111.071 82.9881 111.071C82.4156 111.071 81.8971 111.215 81.4323 111.504C80.9707 111.794 80.6029 112.22 80.329 112.783C80.0582 113.346 79.9227 114.037 79.9227 114.856C79.9227 115.675 80.0582 116.366 80.329 116.929C80.6029 117.492 80.9707 117.918 81.4323 118.208C81.8971 118.497 82.4156 118.642 82.9881 118.642C83.302 118.642 83.6036 118.598 83.8929 118.512C84.1822 118.426 84.4454 118.298 84.6823 118.129C84.9224 117.957 85.1255 117.746 85.2917 117.497C85.461 117.244 85.5795 116.955 85.6472 116.629H86.7921C86.7059 117.112 86.5489 117.544 86.3212 117.926C86.0934 118.308 85.8103 118.632 85.4718 118.9C85.1332 119.165 84.7531 119.366 84.3315 119.505C83.9129 119.643 83.4651 119.713 82.9881 119.713C82.1817 119.713 81.4647 119.516 80.8368 119.122C80.209 118.728 79.715 118.168 79.3549 117.441C78.9948 116.715 78.8148 115.853 78.8148 114.856C78.8148 113.859 78.9948 112.997 79.3549 112.271C79.715 111.545 80.209 110.984 80.8368 110.59C81.4647 110.196 82.1817 110 82.9881 110C83.4651 110 83.9129 110.069 84.3315 110.207C84.7531 110.346 85.1332 110.549 85.4718 110.817C85.8103 111.081 86.0934 111.404 86.3212 111.786C86.5489 112.165 86.7059 112.597 86.7921 113.083ZM91.3751 119.731C90.7349 119.731 90.1733 119.579 89.6901 119.274C89.2099 118.969 88.8345 118.543 88.5636 117.995C88.2959 117.447 88.162 116.807 88.162 116.075C88.162 115.336 88.2959 114.691 88.5636 114.141C88.8345 113.59 89.2099 113.162 89.6901 112.857C90.1733 112.552 90.7349 112.4 91.3751 112.4C92.0152 112.4 92.5754 112.552 93.0555 112.857C93.5387 113.162 93.9141 113.59 94.1819 114.141C94.4527 114.691 94.5881 115.336 94.5881 116.075C94.5881 116.807 94.4527 117.447 94.1819 117.995C93.9141 118.543 93.5387 118.969 93.0555 119.274C92.5754 119.579 92.0152 119.731 91.3751 119.731ZM91.3751 118.752C91.8613 118.752 92.2614 118.628 92.5754 118.378C92.8893 118.129 93.1216 117.801 93.2724 117.395C93.4233 116.989 93.4987 116.549 93.4987 116.075C93.4987 115.601 93.4233 115.159 93.2724 114.75C93.1216 114.341 92.8893 114.01 92.5754 113.757C92.2614 113.505 91.8613 113.379 91.3751 113.379C90.8888 113.379 90.4887 113.505 90.1748 113.757C89.8609 114.01 89.6285 114.341 89.4777 114.75C89.3269 115.159 89.2515 115.601 89.2515 116.075C89.2515 116.549 89.3269 116.989 89.4777 117.395C89.6285 117.801 89.8609 118.129 90.1748 118.378C90.4887 118.628 90.8888 118.752 91.3751 118.752ZM97.3407 115.318V119.583H96.2512V112.492H97.3038V113.6H97.3961C97.5623 113.24 97.8147 112.951 98.1532 112.732C98.4918 112.511 98.9288 112.4 99.4643 112.4C99.9444 112.4 100.365 112.499 100.725 112.696C101.085 112.889 101.365 113.185 101.565 113.582C101.765 113.976 101.865 114.474 101.865 115.078V119.583H100.775V115.152C100.775 114.594 100.631 114.161 100.341 113.85C100.052 113.536 99.6551 113.379 99.1504 113.379C98.8026 113.379 98.4918 113.454 98.2178 113.605C97.947 113.756 97.7331 113.976 97.5762 114.265C97.4192 114.554 97.3407 114.905 97.3407 115.318ZM106.94 112.492V113.416H103.265V112.492H106.94ZM104.336 110.794H105.425V117.552C105.425 117.86 105.47 118.091 105.559 118.245C105.652 118.395 105.768 118.497 105.91 118.549C106.055 118.598 106.207 118.623 106.367 118.623C106.487 118.623 106.586 118.617 106.663 118.605C106.739 118.589 106.801 118.577 106.847 118.568L107.069 119.546C106.995 119.574 106.892 119.602 106.759 119.629C106.627 119.66 106.459 119.676 106.256 119.676C105.949 119.676 105.647 119.609 105.351 119.477C105.059 119.345 104.816 119.143 104.622 118.872C104.431 118.602 104.336 118.26 104.336 117.848V110.794ZM108.578 119.583V112.492H109.631V113.563H109.705C109.834 113.213 110.068 112.928 110.406 112.709C110.745 112.491 111.127 112.382 111.551 112.382C111.631 112.382 111.731 112.383 111.851 112.386C111.971 112.389 112.062 112.394 112.124 112.4V113.508C112.087 113.499 112.002 113.485 111.87 113.466C111.741 113.445 111.604 113.434 111.459 113.434C111.114 113.434 110.807 113.507 110.536 113.651C110.268 113.793 110.056 113.99 109.899 114.242C109.745 114.491 109.668 114.776 109.668 115.096V119.583H108.578ZM116.08 119.731C115.44 119.731 114.878 119.579 114.395 119.274C113.915 118.969 113.54 118.543 113.269 117.995C113.001 117.447 112.867 116.807 112.867 116.075C112.867 115.336 113.001 114.691 113.269 114.141C113.54 113.59 113.915 113.162 114.395 112.857C114.878 112.552 115.44 112.4 116.08 112.4C116.72 112.4 117.28 112.552 117.761 112.857C118.244 113.162 118.619 113.59 118.887 114.141C119.158 114.691 119.293 115.336 119.293 116.075C119.293 116.807 119.158 117.447 118.887 117.995C118.619 118.543 118.244 118.969 117.761 119.274C117.28 119.579 116.72 119.731 116.08 119.731ZM116.08 118.752C116.566 118.752 116.967 118.628 117.28 118.378C117.594 118.129 117.827 117.801 117.978 117.395C118.128 116.989 118.204 116.549 118.204 116.075C118.204 115.601 118.128 115.159 117.978 114.75C117.827 114.341 117.594 114.01 117.28 113.757C116.967 113.505 116.566 113.379 116.08 113.379C115.594 113.379 115.194 113.505 114.88 113.757C114.566 114.01 114.334 114.341 114.183 114.75C114.032 115.159 113.957 115.601 113.957 116.075C113.957 116.549 114.032 116.989 114.183 117.395C114.334 117.801 114.566 118.129 114.88 118.378C115.194 118.628 115.594 118.752 116.08 118.752ZM122.046 110.129V119.583H120.956V110.129H122.046ZM84.77 135.583V126.129H87.9647C88.7064 126.129 89.3127 126.263 89.7835 126.53C90.2575 126.795 90.6084 127.154 90.8361 127.606C91.0638 128.058 91.1777 128.563 91.1777 129.12C91.1777 129.677 91.0638 130.184 90.8361 130.639C90.6114 131.095 90.2637 131.458 89.7928 131.729C89.3219 131.996 88.7187 132.13 87.9831 132.13H85.6933V131.115H87.9462C88.454 131.115 88.8618 131.027 89.1696 130.851C89.4773 130.676 89.7004 130.439 89.8389 130.141C89.9805 129.839 90.0513 129.499 90.0513 129.12C90.0513 128.742 89.9805 128.403 89.8389 128.105C89.7004 127.806 89.4758 127.572 89.1649 127.403C88.8541 127.231 88.4417 127.144 87.9277 127.144H85.9149V135.583H84.77ZM93.9638 126.129V135.583H92.8743V126.129H93.9638ZM98.0459 135.75C97.5965 135.75 97.1888 135.665 96.8225 135.496C96.4563 135.323 96.1654 135.076 95.95 134.752C95.7346 134.426 95.6268 134.032 95.6268 133.571C95.6268 133.164 95.7069 132.835 95.8669 132.583C96.0269 132.327 96.2408 132.127 96.5086 131.982C96.7764 131.838 97.0718 131.73 97.395 131.659C97.7212 131.585 98.049 131.527 98.3783 131.484C98.8091 131.429 99.1585 131.387 99.4262 131.359C99.697 131.328 99.894 131.278 100.017 131.207C100.143 131.136 100.206 131.013 100.206 130.838V130.801C100.206 130.345 100.082 129.991 99.8325 129.739C99.5862 129.487 99.2123 129.36 98.7107 129.36C98.1905 129.36 97.7827 129.474 97.4873 129.702C97.1918 129.93 96.9841 130.173 96.8641 130.431L95.83 130.062C96.0146 129.631 96.2608 129.296 96.5686 129.056C96.8795 128.812 97.218 128.643 97.5842 128.548C97.9536 128.449 98.3167 128.4 98.6737 128.4C98.9015 128.4 99.1631 128.428 99.4585 128.483C99.7571 128.536 100.045 128.645 100.322 128.811C100.602 128.977 100.834 129.228 101.019 129.563C101.204 129.899 101.296 130.348 101.296 130.911V135.583H100.206V134.623H100.151C100.077 134.777 99.954 134.942 99.7817 135.117C99.6093 135.292 99.38 135.442 99.0938 135.565C98.8076 135.688 98.4583 135.75 98.0459 135.75ZM98.2121 134.771C98.6429 134.771 99.0061 134.686 99.3016 134.517C99.6001 134.348 99.8248 134.129 99.9756 133.861C100.129 133.594 100.206 133.312 100.206 133.017V132.019C100.16 132.075 100.059 132.126 99.9017 132.172C99.7478 132.215 99.5693 132.253 99.3662 132.287C99.1661 132.318 98.9707 132.346 98.7799 132.37C98.5922 132.392 98.4398 132.41 98.3229 132.426C98.0397 132.463 97.775 132.523 97.5288 132.606C97.2857 132.686 97.0887 132.807 96.9379 132.97C96.7902 133.13 96.7163 133.349 96.7163 133.626C96.7163 134.004 96.8564 134.291 97.1364 134.485C97.4196 134.675 97.7781 134.771 98.2121 134.771ZM104.374 131.318V135.583H103.284V128.492H104.337V129.6H104.429C104.596 129.24 104.848 128.951 105.186 128.732C105.525 128.511 105.962 128.4 106.497 128.4C106.978 128.4 107.398 128.499 107.758 128.696C108.118 128.889 108.398 129.185 108.598 129.582C108.798 129.976 108.898 130.474 108.898 131.078V135.583H107.809V131.152C107.809 130.594 107.664 130.161 107.375 129.85C107.085 129.536 106.688 129.379 106.184 129.379C105.836 129.379 105.525 129.454 105.251 129.605C104.98 129.756 104.766 129.976 104.609 130.265C104.452 130.554 104.374 130.905 104.374 131.318ZM113.862 135.731C113.179 135.731 112.589 135.58 112.094 135.279C111.601 134.974 111.221 134.549 110.954 134.004C110.689 133.457 110.557 132.82 110.557 132.093C110.557 131.367 110.689 130.727 110.954 130.173C111.221 129.616 111.594 129.182 112.071 128.871C112.551 128.557 113.111 128.4 113.751 128.4C114.12 128.4 114.485 128.462 114.845 128.585C115.205 128.708 115.533 128.908 115.829 129.185C116.124 129.459 116.359 129.822 116.535 130.274C116.71 130.727 116.798 131.284 116.798 131.946V132.407H111.332V131.465H115.69C115.69 131.065 115.61 130.708 115.45 130.394C115.293 130.08 115.068 129.833 114.776 129.651C114.487 129.47 114.145 129.379 113.751 129.379C113.317 129.379 112.942 129.487 112.625 129.702C112.311 129.914 112.069 130.191 111.9 130.533C111.731 130.875 111.646 131.241 111.646 131.632V132.259C111.646 132.795 111.738 133.249 111.923 133.621C112.111 133.991 112.371 134.272 112.703 134.466C113.036 134.657 113.422 134.752 113.862 134.752C114.148 134.752 114.407 134.712 114.638 134.632C114.871 134.549 115.073 134.426 115.242 134.263C115.412 134.097 115.542 133.891 115.635 133.644L116.687 133.94C116.576 134.297 116.39 134.611 116.129 134.882C115.867 135.149 115.544 135.359 115.159 135.509C114.774 135.657 114.342 135.731 113.862 135.731Z" fill="black"/>
<path d="M37 171H166.167V222.167C166.167 223.824 164.824 225.167 163.167 225.167H40C38.3431 225.167 37 223.824 37 222.167V171Z" fill="#BFBFBF"/>
<path d="M90.2458 194.417H87.3282V184.962H90.375C91.2922 184.962 92.077 185.151 92.7294 185.53C93.3819 185.905 93.882 186.446 94.2298 187.15C94.5776 187.852 94.7514 188.692 94.7514 189.671C94.7514 190.656 94.576 191.504 94.2252 192.215C93.8743 192.922 93.3634 193.467 92.6925 193.849C92.0216 194.227 91.206 194.417 90.2458 194.417ZM88.473 193.401H90.1719C90.9536 193.401 91.6015 193.25 92.1154 192.949C92.6294 192.647 93.0126 192.218 93.2649 191.661C93.5173 191.104 93.6435 190.44 93.6435 189.671C93.6435 188.908 93.5188 188.251 93.2696 187.7C93.0203 187.146 92.6479 186.721 92.1524 186.426C91.6569 186.127 91.0398 185.978 90.3012 185.978H88.473V193.401ZM98.6108 194.583C98.1615 194.583 97.7537 194.498 97.3875 194.329C97.0212 194.157 96.7304 193.909 96.5149 193.586C96.2995 193.259 96.1918 192.866 96.1918 192.404C96.1918 191.998 96.2718 191.668 96.4318 191.416C96.5919 191.161 96.8058 190.96 97.0735 190.816C97.3413 190.671 97.6367 190.563 97.9599 190.493C98.2861 190.419 98.6139 190.36 98.9432 190.317C99.3741 190.262 99.7234 190.22 99.9912 190.193C100.262 190.162 100.459 190.111 100.582 190.04C100.708 189.969 100.771 189.846 100.771 189.671V189.634C100.771 189.179 100.647 188.825 100.397 188.572C100.151 188.32 99.7773 188.194 99.2756 188.194C98.7555 188.194 98.3477 188.308 98.0522 188.535C97.7568 188.763 97.549 189.006 97.429 189.265L96.3949 188.895C96.5796 188.464 96.8258 188.129 97.1336 187.889C97.4444 187.646 97.7829 187.477 98.1492 187.381C98.5185 187.283 98.8817 187.233 99.2387 187.233C99.4664 187.233 99.728 187.261 100.023 187.317C100.322 187.369 100.61 187.478 100.887 187.644C101.167 187.81 101.399 188.061 101.584 188.397C101.768 188.732 101.861 189.182 101.861 189.745V194.417H100.771V193.456H100.716C100.642 193.61 100.519 193.775 100.347 193.95C100.174 194.126 99.945 194.275 99.6588 194.398C99.3725 194.521 99.0232 194.583 98.6108 194.583ZM98.777 193.604C99.2079 193.604 99.5711 193.52 99.8665 193.35C100.165 193.181 100.39 192.962 100.541 192.695C100.694 192.427 100.771 192.145 100.771 191.85V190.853C100.725 190.908 100.624 190.959 100.467 191.005C100.313 191.048 100.134 191.087 99.9311 191.121C99.7311 191.151 99.5357 191.179 99.3448 191.204C99.1571 191.225 99.0048 191.244 98.8878 191.259C98.6047 191.296 98.34 191.356 98.0938 191.439C97.8506 191.519 97.6537 191.641 97.5029 191.804C97.3551 191.964 97.2813 192.182 97.2813 192.459C97.2813 192.838 97.4213 193.124 97.7014 193.318C97.9845 193.509 98.3431 193.604 98.777 193.604ZM106.933 187.326V188.249H103.258V187.326H106.933ZM104.329 185.627H105.419V192.385C105.419 192.693 105.464 192.924 105.553 193.078C105.645 193.229 105.762 193.33 105.904 193.383C106.048 193.432 106.201 193.456 106.361 193.456C106.481 193.456 106.579 193.45 106.656 193.438C106.733 193.423 106.795 193.41 106.841 193.401L107.062 194.38C106.989 194.407 106.885 194.435 106.753 194.463C106.621 194.494 106.453 194.509 106.25 194.509C105.942 194.509 105.641 194.443 105.345 194.31C105.053 194.178 104.81 193.977 104.616 193.706C104.425 193.435 104.329 193.093 104.329 192.681V185.627ZM110.659 194.583C110.209 194.583 109.802 194.498 109.435 194.329C109.069 194.157 108.778 193.909 108.563 193.586C108.347 193.259 108.24 192.866 108.24 192.404C108.24 191.998 108.32 191.668 108.48 191.416C108.64 191.161 108.854 190.96 109.121 190.816C109.389 190.671 109.685 190.563 110.008 190.493C110.334 190.419 110.662 190.36 110.991 190.317C111.422 190.262 111.771 190.22 112.039 190.193C112.31 190.162 112.507 190.111 112.63 190.04C112.756 189.969 112.819 189.846 112.819 189.671V189.634C112.819 189.179 112.695 188.825 112.445 188.572C112.199 188.32 111.825 188.194 111.323 188.194C110.803 188.194 110.396 188.308 110.1 188.535C109.805 188.763 109.597 189.006 109.477 189.265L108.443 188.895C108.627 188.464 108.874 188.129 109.181 187.889C109.492 187.646 109.831 187.477 110.197 187.381C110.566 187.283 110.93 187.233 111.287 187.233C111.514 187.233 111.776 187.261 112.071 187.317C112.37 187.369 112.658 187.478 112.935 187.644C113.215 187.81 113.447 188.061 113.632 188.397C113.816 188.732 113.909 189.182 113.909 189.745V194.417H112.819V193.456H112.764C112.69 193.61 112.567 193.775 112.394 193.95C112.222 194.126 111.993 194.275 111.707 194.398C111.42 194.521 111.071 194.583 110.659 194.583ZM110.825 193.604C111.256 193.604 111.619 193.52 111.914 193.35C112.213 193.181 112.438 192.962 112.588 192.695C112.742 192.427 112.819 192.145 112.819 191.85V190.853C112.773 190.908 112.671 190.959 112.514 191.005C112.361 191.048 112.182 191.087 111.979 191.121C111.779 191.151 111.584 191.179 111.393 191.204C111.205 191.225 111.053 191.244 110.936 191.259C110.653 191.296 110.388 191.356 110.142 191.439C109.898 191.519 109.702 191.641 109.551 191.804C109.403 191.964 109.329 192.182 109.329 192.459C109.329 192.838 109.469 193.124 109.749 193.318C110.032 193.509 110.391 193.604 110.825 193.604ZM84.77 210.417V200.962H87.9647C88.7064 200.962 89.3127 201.096 89.7835 201.364C90.2575 201.628 90.6084 201.987 90.8361 202.439C91.0638 202.892 91.1777 203.397 91.1777 203.954C91.1777 204.511 91.0638 205.017 90.8361 205.472C90.6114 205.928 90.2637 206.291 89.7928 206.562C89.3219 206.83 88.7187 206.964 87.9831 206.964H85.6933V205.948H87.9462C88.454 205.948 88.8618 205.86 89.1696 205.685C89.4773 205.509 89.7004 205.272 89.8389 204.974C89.9805 204.672 90.0513 204.332 90.0513 203.954C90.0513 203.575 89.9805 203.237 89.8389 202.938C89.7004 202.639 89.4758 202.406 89.1649 202.236C88.8541 202.064 88.4417 201.978 87.9277 201.978H85.9149V210.417H84.77ZM93.9638 200.962V210.417H92.8743V200.962H93.9638ZM98.0459 210.583C97.5965 210.583 97.1888 210.498 96.8225 210.329C96.4563 210.157 96.1654 209.909 95.95 209.586C95.7346 209.259 95.6268 208.866 95.6268 208.404C95.6268 207.998 95.7069 207.668 95.8669 207.416C96.0269 207.161 96.2408 206.96 96.5086 206.816C96.7764 206.671 97.0718 206.563 97.395 206.493C97.7212 206.419 98.049 206.36 98.3783 206.317C98.8091 206.262 99.1585 206.22 99.4262 206.193C99.697 206.162 99.894 206.111 100.017 206.04C100.143 205.969 100.206 205.846 100.206 205.671V205.634C100.206 205.179 100.082 204.825 99.8325 204.572C99.5862 204.32 99.2123 204.194 98.7107 204.194C98.1905 204.194 97.7827 204.308 97.4873 204.535C97.1918 204.763 96.9841 205.006 96.8641 205.265L95.83 204.895C96.0146 204.464 96.2608 204.129 96.5686 203.889C96.8795 203.646 97.218 203.477 97.5842 203.381C97.9536 203.283 98.3167 203.233 98.6737 203.233C98.9015 203.233 99.1631 203.261 99.4585 203.317C99.7571 203.369 100.045 203.478 100.322 203.644C100.602 203.81 100.834 204.061 101.019 204.397C101.204 204.732 101.296 205.182 101.296 205.745V210.417H100.206V209.456H100.151C100.077 209.61 99.954 209.775 99.7817 209.95C99.6093 210.126 99.38 210.275 99.0938 210.398C98.8076 210.521 98.4583 210.583 98.0459 210.583ZM98.2121 209.604C98.6429 209.604 99.0061 209.52 99.3016 209.35C99.6001 209.181 99.8248 208.962 99.9756 208.695C100.129 208.427 100.206 208.145 100.206 207.85V206.853C100.16 206.908 100.059 206.959 99.9017 207.005C99.7478 207.048 99.5693 207.087 99.3662 207.121C99.1661 207.151 98.9707 207.179 98.7799 207.204C98.5922 207.225 98.4398 207.244 98.3229 207.259C98.0397 207.296 97.775 207.356 97.5288 207.439C97.2857 207.519 97.0887 207.641 96.9379 207.804C96.7902 207.964 96.7163 208.182 96.7163 208.459C96.7163 208.838 96.8564 209.124 97.1364 209.318C97.4196 209.509 97.7781 209.604 98.2121 209.604ZM104.374 206.151V210.417H103.284V203.326H104.337V204.434H104.429C104.596 204.074 104.848 203.784 105.186 203.566C105.525 203.344 105.962 203.233 106.497 203.233C106.978 203.233 107.398 203.332 107.758 203.529C108.118 203.723 108.398 204.018 108.598 204.415C108.798 204.809 108.898 205.308 108.898 205.911V210.417H107.809V205.985C107.809 205.428 107.664 204.994 107.375 204.683C107.085 204.369 106.688 204.212 106.184 204.212C105.836 204.212 105.525 204.288 105.251 204.438C104.98 204.589 104.766 204.809 104.609 205.098C104.452 205.388 104.374 205.739 104.374 206.151ZM113.862 210.564C113.179 210.564 112.589 210.414 112.094 210.112C111.601 209.807 111.221 209.383 110.954 208.838C110.689 208.29 110.557 207.653 110.557 206.927C110.557 206.2 110.689 205.56 110.954 205.006C111.221 204.449 111.594 204.015 112.071 203.704C112.551 203.39 113.111 203.233 113.751 203.233C114.12 203.233 114.485 203.295 114.845 203.418C115.205 203.541 115.533 203.741 115.829 204.018C116.124 204.292 116.359 204.655 116.535 205.108C116.71 205.56 116.798 206.117 116.798 206.779V207.241H111.332V206.299H115.69C115.69 205.899 115.61 205.542 115.45 205.228C115.293 204.914 115.068 204.666 114.776 204.484C114.487 204.303 114.145 204.212 113.751 204.212C113.317 204.212 112.942 204.32 112.625 204.535C112.311 204.748 112.069 205.025 111.9 205.366C111.731 205.708 111.646 206.074 111.646 206.465V207.093C111.646 207.628 111.738 208.082 111.923 208.455C112.111 208.824 112.371 209.106 112.703 209.299C113.036 209.49 113.422 209.586 113.862 209.586C114.148 209.586 114.407 209.546 114.638 209.466C114.871 209.383 115.073 209.259 115.242 209.096C115.412 208.93 115.542 208.724 115.635 208.478L116.687 208.773C116.576 209.13 116.39 209.444 116.129 209.715C115.867 209.983 115.544 210.192 115.159 210.343C114.774 210.491 114.342 210.564 113.862 210.564Z" fill="black"/>
<path d="M178.583 27C178.583 25.3431 179.926 24 181.583 24H304.75C306.407 24 307.75 25.3431 307.75 27V78.1667H178.583V27Z" fill="#00B0F0"/>
<path d="M228.122 40.9167H226.977C226.91 40.5874 226.791 40.2981 226.622 40.0488C226.456 39.7995 226.252 39.5902 226.012 39.4209C225.775 39.2486 225.512 39.1193 225.223 39.0331C224.934 38.947 224.632 38.9039 224.318 38.9039C223.746 38.9039 223.227 39.0485 222.762 39.3378C222.301 39.6271 221.933 40.0534 221.659 40.6166C221.388 41.1798 221.253 41.8707 221.253 42.6894C221.253 43.508 221.388 44.199 221.659 44.7622C221.933 45.3254 222.301 45.7517 222.762 46.041C223.227 46.3303 223.746 46.4749 224.318 46.4749C224.632 46.4749 224.934 46.4318 225.223 46.3456C225.512 46.2595 225.775 46.1317 226.012 45.9625C226.252 45.7901 226.456 45.5793 226.622 45.33C226.791 45.0776 226.91 44.7883 226.977 44.4621H228.122C228.036 44.9453 227.879 45.3777 227.651 45.7593C227.423 46.141 227.14 46.4657 226.802 46.7334C226.463 46.9981 226.083 47.1997 225.662 47.3382C225.243 47.4767 224.795 47.5459 224.318 47.5459C223.512 47.5459 222.795 47.349 222.167 46.955C221.539 46.5611 221.045 46.0009 220.685 45.2746C220.325 44.5483 220.145 43.6866 220.145 42.6894C220.145 41.6922 220.325 40.8305 220.685 40.1042C221.045 39.3778 221.539 38.8177 222.167 38.4238C222.795 38.0298 223.512 37.8329 224.318 37.8329C224.795 37.8329 225.243 37.9021 225.662 38.0406C226.083 38.1791 226.463 38.3822 226.802 38.65C227.14 38.9147 227.423 39.2378 227.651 39.6194C227.879 39.998 228.036 40.4304 228.122 40.9167ZM231.911 47.5829C231.462 47.5829 231.054 47.4982 230.688 47.329C230.321 47.1566 230.031 46.9089 229.815 46.5857C229.6 46.2595 229.492 45.8655 229.492 45.4039C229.492 44.9976 229.572 44.6683 229.732 44.416C229.892 44.1605 230.106 43.9605 230.374 43.8158C230.642 43.6712 230.937 43.5634 231.26 43.4927C231.586 43.4188 231.914 43.3603 232.243 43.3172C232.674 43.2618 233.024 43.2203 233.291 43.1926C233.562 43.1618 233.759 43.111 233.882 43.0402C234.009 42.9695 234.072 42.8464 234.072 42.6709V42.634C234.072 42.1785 233.947 41.8246 233.698 41.5722C233.451 41.3198 233.078 41.1937 232.576 41.1937C232.056 41.1937 231.648 41.3075 231.353 41.5353C231.057 41.763 230.849 42.0062 230.729 42.2647L229.695 41.8954C229.88 41.4645 230.126 41.129 230.434 40.889C230.745 40.6458 231.083 40.4766 231.449 40.3812C231.819 40.2827 232.182 40.2334 232.539 40.2334C232.767 40.2334 233.028 40.2611 233.324 40.3165C233.622 40.3688 233.91 40.4781 234.187 40.6443C234.467 40.8105 234.699 41.0613 234.884 41.3968C235.069 41.7322 235.161 42.1816 235.161 42.7448V47.4167H234.072V46.4564H234.016C233.942 46.6103 233.819 46.775 233.647 46.9504C233.475 47.1258 233.245 47.2751 232.959 47.3982C232.673 47.5213 232.324 47.5829 231.911 47.5829ZM232.077 46.6042C232.508 46.6042 232.871 46.5195 233.167 46.3503C233.465 46.181 233.69 45.9625 233.841 45.6947C233.995 45.427 234.072 45.1454 234.072 44.8499V43.8527C234.025 43.9081 233.924 43.9589 233.767 44.0051C233.613 44.0482 233.435 44.0866 233.231 44.1205C233.031 44.1513 232.836 44.179 232.645 44.2036C232.457 44.2251 232.305 44.2436 232.188 44.259C231.905 44.2959 231.64 44.3559 231.394 44.439C231.151 44.5191 230.954 44.6406 230.803 44.8037C230.655 44.9638 230.582 45.1823 230.582 45.4593C230.582 45.8378 230.722 46.1241 231.002 46.3179C231.285 46.5088 231.643 46.6042 232.077 46.6042ZM240.233 40.3258V41.2491H236.559V40.3258H240.233ZM237.63 38.6269H238.719V45.3854C238.719 45.6932 238.764 45.924 238.853 46.0779C238.945 46.2287 239.062 46.3303 239.204 46.3826C239.349 46.4318 239.501 46.4564 239.661 46.4564C239.781 46.4564 239.88 46.4503 239.956 46.438C240.033 46.4226 240.095 46.4103 240.141 46.401L240.363 47.3797C240.289 47.4074 240.186 47.4351 240.053 47.4628C239.921 47.4936 239.753 47.509 239.55 47.509C239.242 47.509 238.941 47.4428 238.645 47.3105C238.353 47.1781 238.11 46.9766 237.916 46.7057C237.725 46.4349 237.63 46.0933 237.63 45.6809V38.6269ZM243.959 47.5829C243.51 47.5829 243.102 47.4982 242.736 47.329C242.369 47.1566 242.079 46.9089 241.863 46.5857C241.648 46.2595 241.54 45.8655 241.54 45.4039C241.54 44.9976 241.62 44.6683 241.78 44.416C241.94 44.1605 242.154 43.9605 242.422 43.8158C242.689 43.6712 242.985 43.5634 243.308 43.4927C243.634 43.4188 243.962 43.3603 244.291 43.3172C244.722 43.2618 245.072 43.2203 245.339 43.1926C245.61 43.1618 245.807 43.111 245.93 43.0402C246.056 42.9695 246.119 42.8464 246.119 42.6709V42.634C246.119 42.1785 245.995 41.8246 245.746 41.5722C245.499 41.3198 245.125 41.1937 244.624 41.1937C244.104 41.1937 243.696 41.3075 243.4 41.5353C243.105 41.763 242.897 42.0062 242.777 42.2647L241.743 41.8954C241.928 41.4645 242.174 41.129 242.482 40.889C242.793 40.6458 243.131 40.4766 243.497 40.3812C243.867 40.2827 244.23 40.2334 244.587 40.2334C244.815 40.2334 245.076 40.2611 245.372 40.3165C245.67 40.3688 245.958 40.4781 246.235 40.6443C246.515 40.8105 246.747 41.0613 246.932 41.3968C247.117 41.7322 247.209 42.1816 247.209 42.7448V47.4167H246.119V46.4564H246.064C245.99 46.6103 245.867 46.775 245.695 46.9504C245.522 47.1258 245.293 47.2751 245.007 47.3982C244.721 47.5213 244.371 47.5829 243.959 47.5829ZM244.125 46.6042C244.556 46.6042 244.919 46.5195 245.215 46.3503C245.513 46.181 245.738 45.9625 245.889 45.6947C246.043 45.427 246.119 45.1454 246.119 44.8499V43.8527C246.073 43.9081 245.972 43.9589 245.815 44.0051C245.661 44.0482 245.482 44.0866 245.279 44.1205C245.079 44.1513 244.884 44.179 244.693 44.2036C244.505 44.2251 244.353 44.2436 244.236 44.259C243.953 44.2959 243.688 44.3559 243.442 44.439C243.199 44.5191 243.002 44.6406 242.851 44.8037C242.703 44.9638 242.629 45.1823 242.629 45.4593C242.629 45.8378 242.769 46.1241 243.05 46.3179C243.333 46.5088 243.691 46.6042 244.125 46.6042ZM250.287 37.9621V47.4167H249.197V37.9621H250.287ZM255.163 47.5644C254.523 47.5644 253.961 47.412 253.478 47.1074C252.998 46.8027 252.623 46.3764 252.352 45.8286C252.084 45.2808 251.95 44.6406 251.95 43.9081C251.95 43.1695 252.084 42.5247 252.352 41.9738C252.623 41.4229 252.998 40.9951 253.478 40.6905C253.961 40.3858 254.523 40.2334 255.163 40.2334C255.803 40.2334 256.363 40.3858 256.844 40.6905C257.327 40.9951 257.702 41.4229 257.97 41.9738C258.241 42.5247 258.376 43.1695 258.376 43.9081C258.376 44.6406 258.241 45.2808 257.97 45.8286C257.702 46.3764 257.327 46.8027 256.844 47.1074C256.363 47.412 255.803 47.5644 255.163 47.5644ZM255.163 46.5857C255.649 46.5857 256.05 46.4611 256.363 46.2118C256.677 45.9625 256.91 45.6347 257.061 45.2285C257.211 44.8222 257.287 44.3821 257.287 43.9081C257.287 43.4342 257.211 42.9925 257.061 42.5832C256.91 42.1739 256.677 41.843 256.363 41.5907C256.05 41.3383 255.649 41.2121 255.163 41.2121C254.677 41.2121 254.277 41.3383 253.963 41.5907C253.649 41.843 253.417 42.1739 253.266 42.5832C253.115 42.9925 253.04 43.4342 253.04 43.9081C253.04 44.3821 253.115 44.8222 253.266 45.2285C253.417 45.6347 253.649 45.9625 253.963 46.2118C254.277 46.4611 254.677 46.5857 255.163 46.5857ZM262.902 50.2235C262.375 50.2235 261.923 50.1558 261.544 50.0204C261.166 49.888 260.85 49.7126 260.598 49.4941C260.349 49.2786 260.15 49.0478 260.002 48.8016L260.87 48.1922C260.969 48.3215 261.093 48.4692 261.244 48.6354C261.395 48.8047 261.601 48.9509 261.863 49.074C262.127 49.2002 262.474 49.2633 262.902 49.2633C263.474 49.2633 263.946 49.1248 264.319 48.8478C264.691 48.5708 264.877 48.1368 264.877 47.5459V46.1056H264.785C264.705 46.2348 264.591 46.3949 264.443 46.5857C264.299 46.7734 264.089 46.9412 263.816 47.0889C263.545 47.2335 263.179 47.3059 262.717 47.3059C262.144 47.3059 261.63 47.1705 261.175 46.8996C260.723 46.6288 260.364 46.2348 260.099 45.7178C259.838 45.2008 259.707 44.5729 259.707 43.8343C259.707 43.108 259.835 42.4755 260.09 41.9369C260.346 41.3952 260.701 40.9767 261.156 40.6812C261.612 40.3827 262.138 40.2334 262.735 40.2334C263.197 40.2334 263.563 40.3104 263.834 40.4642C264.108 40.6151 264.317 40.7874 264.462 40.9813C264.61 41.1721 264.723 41.3291 264.804 41.4522H264.914V40.3258H265.967V47.6198C265.967 48.2292 265.828 48.7247 265.551 49.1063C265.277 49.491 264.908 49.7726 264.443 49.9511C263.982 50.1327 263.468 50.2235 262.902 50.2235ZM262.865 46.3272C263.302 46.3272 263.671 46.2272 263.973 46.0271C264.274 45.8271 264.503 45.5393 264.66 45.1638C264.817 44.7883 264.896 44.339 264.896 43.8158C264.896 43.3049 264.819 42.854 264.665 42.4632C264.511 42.0723 264.283 41.7661 263.982 41.5445C263.68 41.3229 263.308 41.2121 262.865 41.2121C262.403 41.2121 262.018 41.3291 261.71 41.563C261.406 41.7969 261.176 42.1108 261.023 42.5047C260.872 42.8987 260.796 43.3357 260.796 43.8158C260.796 44.3082 260.873 44.7437 261.027 45.1223C261.184 45.4977 261.415 45.7932 261.72 46.0086C262.027 46.221 262.409 46.3272 262.865 46.3272ZM229.335 56.3258C229.279 55.858 229.054 55.4948 228.661 55.2363C228.267 54.9777 227.783 54.8485 227.211 54.8485C226.792 54.8485 226.426 54.9162 226.112 55.0516C225.801 55.187 225.558 55.3732 225.383 55.6102C225.21 55.8472 225.124 56.1165 225.124 56.4181C225.124 56.6705 225.184 56.8874 225.304 57.069C225.427 57.2475 225.584 57.3968 225.775 57.5168C225.966 57.6338 226.166 57.7307 226.375 57.8076C226.585 57.8815 226.777 57.9415 226.952 57.9877L227.913 58.2462C228.159 58.3108 228.433 58.4001 228.734 58.514C229.039 58.6278 229.33 58.7833 229.607 58.9802C229.887 59.1741 230.118 59.4234 230.299 59.7281C230.481 60.0328 230.572 60.4067 230.572 60.8499C230.572 61.3608 230.438 61.8224 230.17 62.2348C229.905 62.6473 229.518 62.975 229.007 63.2182C228.499 63.4613 227.882 63.5829 227.156 63.5829C226.478 63.5829 225.892 63.4736 225.397 63.2551C224.904 63.0366 224.516 62.7319 224.233 62.341C223.953 61.9502 223.795 61.4962 223.758 60.9792H224.94C224.97 61.3362 225.09 61.6316 225.3 61.8655C225.512 62.0964 225.78 62.2687 226.103 62.3826C226.429 62.4934 226.78 62.5488 227.156 62.5488C227.593 62.5488 227.985 62.478 228.333 62.3364C228.681 62.1918 228.956 61.9917 229.159 61.7363C229.362 61.4777 229.464 61.1761 229.464 60.8314C229.464 60.5175 229.376 60.2621 229.201 60.0651C229.025 59.8681 228.794 59.7081 228.508 59.585C228.222 59.4619 227.913 59.3542 227.58 59.2618L226.417 58.9294C225.678 58.7171 225.094 58.4139 224.663 58.02C224.232 57.6261 224.016 57.1106 224.016 56.4735C224.016 55.9441 224.159 55.4825 224.446 55.0885C224.735 54.6915 225.123 54.3838 225.609 54.1652C226.098 53.9437 226.645 53.8329 227.248 53.8329C227.857 53.8329 228.399 53.9421 228.873 54.1606C229.347 54.3761 229.722 54.6715 229.999 55.047C230.279 55.4225 230.427 55.8487 230.442 56.3258H229.335ZM235.279 63.5644C234.596 63.5644 234.007 63.4136 233.511 63.112C233.019 62.8073 232.639 62.3826 232.371 61.8378C232.106 61.29 231.974 60.6529 231.974 59.9266C231.974 59.2003 232.106 58.5601 232.371 58.0062C232.639 57.4491 233.011 57.0151 233.488 56.7043C233.968 56.3904 234.528 56.2334 235.169 56.2334C235.538 56.2334 235.903 56.295 236.263 56.4181C236.623 56.5412 236.951 56.7412 237.246 57.0182C237.541 57.2921 237.777 57.6553 237.952 58.1077C238.128 58.5601 238.215 59.1172 238.215 59.7789V60.2405H232.75V59.2988H237.108C237.108 58.8987 237.028 58.5417 236.867 58.2277C236.711 57.9138 236.486 57.6661 236.193 57.4845C235.904 57.3029 235.563 57.2121 235.169 57.2121C234.735 57.2121 234.359 57.3198 234.042 57.5353C233.728 57.7476 233.487 58.0246 233.317 58.3662C233.148 58.7079 233.063 59.0741 233.063 59.465V60.0928C233.063 60.6283 233.156 61.0823 233.34 61.4547C233.528 61.824 233.788 62.1056 234.121 62.2995C234.453 62.4903 234.839 62.5857 235.279 62.5857C235.566 62.5857 235.824 62.5457 236.055 62.4657C236.289 62.3826 236.49 62.2595 236.66 62.0964C236.829 61.9302 236.96 61.724 237.052 61.4777L238.105 61.7732C237.994 62.1302 237.808 62.4441 237.546 62.715C237.284 62.9827 236.961 63.192 236.577 63.3428C236.192 63.4905 235.76 63.5644 235.279 63.5644ZM239.873 63.4167V56.3258H240.925V57.3968H240.999C241.128 57.0459 241.362 56.7612 241.701 56.5427C242.039 56.3242 242.421 56.215 242.846 56.215C242.926 56.215 243.026 56.2165 243.146 56.2196C243.266 56.2227 243.357 56.2273 243.418 56.2334V57.3414C243.381 57.3321 243.297 57.3183 243.164 57.2998C243.035 57.2783 242.898 57.2675 242.753 57.2675C242.409 57.2675 242.101 57.3398 241.83 57.4845C241.562 57.6261 241.35 57.823 241.193 58.0754C241.039 58.3247 240.962 58.6094 240.962 58.9294V63.4167H239.873ZM250.724 56.3258L248.102 63.4167H246.994L244.372 56.3258H245.553L247.511 61.9763H247.585L249.542 56.3258H250.724ZM254.881 63.5644C254.198 63.5644 253.608 63.4136 253.113 63.112C252.62 62.8073 252.24 62.3826 251.973 61.8378C251.708 61.29 251.576 60.6529 251.576 59.9266C251.576 59.2003 251.708 58.5601 251.973 58.0062C252.24 57.4491 252.613 57.0151 253.09 56.7043C253.57 56.3904 254.13 56.2334 254.77 56.2334C255.139 56.2334 255.504 56.295 255.864 56.4181C256.224 56.5412 256.552 56.7412 256.848 57.0182C257.143 57.2921 257.378 57.6553 257.554 58.1077C257.729 58.5601 257.817 59.1172 257.817 59.7789V60.2405H252.351V59.2988H256.709C256.709 58.8987 256.629 58.5417 256.469 58.2277C256.312 57.9138 256.087 57.6661 255.795 57.4845C255.506 57.3029 255.164 57.2121 254.77 57.2121C254.336 57.2121 253.961 57.3198 253.644 57.5353C253.33 57.7476 253.088 58.0246 252.919 58.3662C252.75 58.7079 252.665 59.0741 252.665 59.465V60.0928C252.665 60.6283 252.757 61.0823 252.942 61.4547C253.13 61.824 253.39 62.1056 253.722 62.2995C254.055 62.4903 254.441 62.5857 254.881 62.5857C255.167 62.5857 255.426 62.5457 255.657 62.4657C255.89 62.3826 256.092 62.2595 256.261 62.0964C256.431 61.9302 256.561 61.724 256.654 61.4777L257.706 61.7732C257.595 62.1302 257.409 62.4441 257.148 62.715C256.886 62.9827 256.563 63.192 256.178 63.3428C255.793 63.4905 255.361 63.5644 254.881 63.5644ZM259.474 63.4167V56.3258H260.527V57.3968H260.601C260.73 57.0459 260.964 56.7612 261.302 56.5427C261.641 56.3242 262.023 56.215 262.447 56.215C262.527 56.215 262.627 56.2165 262.747 56.2196C262.867 56.2227 262.958 56.2273 263.02 56.2334V57.3414C262.983 57.3321 262.898 57.3183 262.766 57.2998C262.637 57.2783 262.5 57.2675 262.355 57.2675C262.01 57.2675 261.703 57.3398 261.432 57.4845C261.164 57.6261 260.952 57.823 260.795 58.0754C260.641 58.3247 260.564 58.6094 260.564 58.9294V63.4167H259.474Z" fill="white"/>
<rect x="178.583" y="95.1667" width="129.167" height="56.25" fill="#00EFB5"/>
<path d="M228.375 112.083H227.23C227.163 111.754 227.044 111.465 226.875 111.215C226.709 110.966 226.506 110.757 226.266 110.588C226.029 110.415 225.766 110.286 225.476 110.2C225.187 110.114 224.885 110.071 224.571 110.071C223.999 110.071 223.48 110.215 223.016 110.504C222.554 110.794 222.186 111.22 221.912 111.783C221.641 112.346 221.506 113.037 221.506 113.856C221.506 114.675 221.641 115.366 221.912 115.929C222.186 116.492 222.554 116.918 223.016 117.208C223.48 117.497 223.999 117.642 224.571 117.642C224.885 117.642 225.187 117.598 225.476 117.512C225.766 117.426 226.029 117.298 226.266 117.129C226.506 116.957 226.709 116.746 226.875 116.497C227.044 116.244 227.163 115.955 227.23 115.629H228.375C228.289 116.112 228.132 116.544 227.904 116.926C227.677 117.308 227.394 117.632 227.055 117.9C226.717 118.165 226.336 118.366 225.915 118.505C225.496 118.643 225.048 118.713 224.571 118.713C223.765 118.713 223.048 118.516 222.42 118.122C221.792 117.728 221.298 117.168 220.938 116.441C220.578 115.715 220.398 114.853 220.398 113.856C220.398 112.859 220.578 111.997 220.938 111.271C221.298 110.545 221.792 109.984 222.42 109.59C223.048 109.196 223.765 109 224.571 109C225.048 109 225.496 109.069 225.915 109.207C226.336 109.346 226.717 109.549 227.055 109.817C227.394 110.081 227.677 110.404 227.904 110.786C228.132 111.165 228.289 111.597 228.375 112.083ZM232.958 118.731C232.318 118.731 231.757 118.579 231.273 118.274C230.793 117.969 230.418 117.543 230.147 116.995C229.879 116.447 229.745 115.807 229.745 115.075C229.745 114.336 229.879 113.691 230.147 113.141C230.418 112.59 230.793 112.162 231.273 111.857C231.757 111.552 232.318 111.4 232.958 111.4C233.599 111.4 234.159 111.552 234.639 111.857C235.122 112.162 235.497 112.59 235.765 113.141C236.036 113.691 236.171 114.336 236.171 115.075C236.171 115.807 236.036 116.447 235.765 116.995C235.497 117.543 235.122 117.969 234.639 118.274C234.159 118.579 233.599 118.731 232.958 118.731ZM232.958 117.752C233.445 117.752 233.845 117.628 234.159 117.378C234.473 117.129 234.705 116.801 234.856 116.395C235.007 115.989 235.082 115.549 235.082 115.075C235.082 114.601 235.007 114.159 234.856 113.75C234.705 113.341 234.473 113.01 234.159 112.757C233.845 112.505 233.445 112.379 232.958 112.379C232.472 112.379 232.072 112.505 231.758 112.757C231.444 113.01 231.212 113.341 231.061 113.75C230.91 114.159 230.835 114.601 230.835 115.075C230.835 115.549 230.91 115.989 231.061 116.395C231.212 116.801 231.444 117.129 231.758 117.378C232.072 117.628 232.472 117.752 232.958 117.752ZM238.924 114.318V118.583H237.835V111.492H238.887V112.6H238.979C239.146 112.24 239.398 111.951 239.737 111.732C240.075 111.511 240.512 111.4 241.048 111.4C241.528 111.4 241.948 111.499 242.308 111.696C242.668 111.889 242.948 112.185 243.148 112.582C243.348 112.976 243.448 113.474 243.448 114.078V118.583H242.359V114.152C242.359 113.594 242.214 113.161 241.925 112.85C241.635 112.536 241.238 112.379 240.734 112.379C240.386 112.379 240.075 112.454 239.801 112.605C239.53 112.756 239.316 112.976 239.159 113.265C239.003 113.554 238.924 113.905 238.924 114.318ZM248.523 111.492V112.416H244.848V111.492H248.523ZM245.919 109.794H247.009V116.552C247.009 116.86 247.053 117.091 247.143 117.245C247.235 117.395 247.352 117.497 247.493 117.549C247.638 117.598 247.79 117.623 247.95 117.623C248.07 117.623 248.169 117.617 248.246 117.605C248.323 117.589 248.384 117.577 248.431 117.568L248.652 118.546C248.578 118.574 248.475 118.602 248.343 118.629C248.21 118.66 248.043 118.676 247.84 118.676C247.532 118.676 247.23 118.609 246.935 118.477C246.642 118.345 246.399 118.143 246.205 117.872C246.015 117.602 245.919 117.26 245.919 116.848V109.794ZM250.162 118.583V111.492H251.214V112.563H251.288C251.417 112.213 251.651 111.928 251.99 111.709C252.328 111.491 252.71 111.382 253.135 111.382C253.215 111.382 253.315 111.383 253.435 111.386C253.555 111.389 253.646 111.394 253.707 111.4V112.508C253.67 112.499 253.586 112.485 253.453 112.466C253.324 112.445 253.187 112.434 253.042 112.434C252.698 112.434 252.39 112.507 252.119 112.651C251.851 112.793 251.639 112.99 251.482 113.242C251.328 113.491 251.251 113.776 251.251 114.096V118.583H250.162ZM257.663 118.731C257.023 118.731 256.462 118.579 255.978 118.274C255.498 117.969 255.123 117.543 254.852 116.995C254.584 116.447 254.45 115.807 254.45 115.075C254.45 114.336 254.584 113.691 254.852 113.141C255.123 112.59 255.498 112.162 255.978 111.857C256.462 111.552 257.023 111.4 257.663 111.4C258.304 111.4 258.864 111.552 259.344 111.857C259.827 112.162 260.203 112.59 260.47 113.141C260.741 113.691 260.877 114.336 260.877 115.075C260.877 115.807 260.741 116.447 260.47 116.995C260.203 117.543 259.827 117.969 259.344 118.274C258.864 118.579 258.304 118.731 257.663 118.731ZM257.663 117.752C258.15 117.752 258.55 117.628 258.864 117.378C259.178 117.129 259.41 116.801 259.561 116.395C259.712 115.989 259.787 115.549 259.787 115.075C259.787 114.601 259.712 114.159 259.561 113.75C259.41 113.341 259.178 113.01 258.864 112.757C258.55 112.505 258.15 112.379 257.663 112.379C257.177 112.379 256.777 112.505 256.463 112.757C256.149 113.01 255.917 113.341 255.766 113.75C255.615 114.159 255.54 114.601 255.54 115.075C255.54 115.549 255.615 115.989 255.766 116.395C255.917 116.801 256.149 117.129 256.463 117.378C256.777 117.628 257.177 117.752 257.663 117.752ZM263.629 109.129V118.583H262.54V109.129H263.629ZM226.353 134.583V125.129H229.548C230.29 125.129 230.896 125.263 231.367 125.53C231.841 125.795 232.192 126.154 232.419 126.606C232.647 127.058 232.761 127.563 232.761 128.12C232.761 128.677 232.647 129.184 232.419 129.639C232.195 130.095 231.847 130.458 231.376 130.729C230.905 130.996 230.302 131.13 229.566 131.13H227.277V130.115H229.529C230.037 130.115 230.445 130.027 230.753 129.851C231.061 129.676 231.284 129.439 231.422 129.141C231.564 128.839 231.635 128.499 231.635 128.12C231.635 127.742 231.564 127.403 231.422 127.105C231.284 126.806 231.059 126.572 230.748 126.403C230.437 126.231 230.025 126.144 229.511 126.144H227.498V134.583H226.353ZM235.547 125.129V134.583H234.458V125.129H235.547ZM239.629 134.75C239.18 134.75 238.772 134.665 238.406 134.496C238.04 134.323 237.749 134.076 237.533 133.752C237.318 133.426 237.21 133.032 237.21 132.571C237.21 132.164 237.29 131.835 237.45 131.583C237.61 131.327 237.824 131.127 238.092 130.982C238.36 130.838 238.655 130.73 238.978 130.659C239.305 130.585 239.632 130.527 239.962 130.484C240.392 130.429 240.742 130.387 241.01 130.359C241.28 130.328 241.477 130.278 241.6 130.207C241.727 130.136 241.79 130.013 241.79 129.838V129.801C241.79 129.345 241.665 128.991 241.416 128.739C241.17 128.487 240.796 128.36 240.294 128.36C239.774 128.36 239.366 128.474 239.071 128.702C238.775 128.93 238.567 129.173 238.447 129.431L237.413 129.062C237.598 128.631 237.844 128.296 238.152 128.056C238.463 127.812 238.801 127.643 239.168 127.548C239.537 127.449 239.9 127.4 240.257 127.4C240.485 127.4 240.746 127.428 241.042 127.483C241.34 127.536 241.628 127.645 241.905 127.811C242.185 127.977 242.418 128.228 242.602 128.563C242.787 128.899 242.879 129.348 242.879 129.911V134.583H241.79V133.623H241.734C241.66 133.777 241.537 133.942 241.365 134.117C241.193 134.292 240.963 134.442 240.677 134.565C240.391 134.688 240.042 134.75 239.629 134.75ZM239.795 133.771C240.226 133.771 240.589 133.686 240.885 133.517C241.183 133.348 241.408 133.129 241.559 132.861C241.713 132.594 241.79 132.312 241.79 132.017V131.019C241.744 131.075 241.642 131.126 241.485 131.172C241.331 131.215 241.153 131.253 240.95 131.287C240.749 131.318 240.554 131.346 240.363 131.37C240.175 131.392 240.023 131.41 239.906 131.426C239.623 131.463 239.358 131.523 239.112 131.606C238.869 131.686 238.672 131.807 238.521 131.97C238.374 132.13 238.3 132.349 238.3 132.626C238.3 133.004 238.44 133.291 238.72 133.485C239.003 133.675 239.361 133.771 239.795 133.771ZM245.957 130.318V134.583H244.868V127.492H245.92V128.6H246.013C246.179 128.24 246.431 127.951 246.77 127.732C247.108 127.511 247.545 127.4 248.081 127.4C248.561 127.4 248.981 127.499 249.341 127.696C249.701 127.889 249.981 128.185 250.181 128.582C250.381 128.976 250.481 129.474 250.481 130.078V134.583H249.392V130.152C249.392 129.594 249.247 129.161 248.958 128.85C248.669 128.536 248.272 128.379 247.767 128.379C247.419 128.379 247.108 128.454 246.834 128.605C246.564 128.756 246.35 128.976 246.193 129.265C246.036 129.554 245.957 129.905 245.957 130.318ZM255.445 134.731C254.762 134.731 254.173 134.58 253.677 134.279C253.185 133.974 252.805 133.549 252.537 133.004C252.272 132.457 252.14 131.82 252.14 131.093C252.14 130.367 252.272 129.727 252.537 129.173C252.805 128.616 253.177 128.182 253.654 127.871C254.134 127.557 254.694 127.4 255.334 127.4C255.704 127.4 256.068 127.462 256.429 127.585C256.789 127.708 257.116 127.908 257.412 128.185C257.707 128.459 257.943 128.822 258.118 129.274C258.294 129.727 258.381 130.284 258.381 130.946V131.407H252.915V130.465H257.273C257.273 130.065 257.193 129.708 257.033 129.394C256.876 129.08 256.652 128.833 256.359 128.651C256.07 128.47 255.728 128.379 255.334 128.379C254.901 128.379 254.525 128.487 254.208 128.702C253.894 128.914 253.653 129.191 253.483 129.533C253.314 129.875 253.229 130.241 253.229 130.632V131.259C253.229 131.795 253.322 132.249 253.506 132.621C253.694 132.991 253.954 133.272 254.287 133.466C254.619 133.657 255.005 133.752 255.445 133.752C255.731 133.752 255.99 133.712 256.221 133.632C256.455 133.549 256.656 133.426 256.826 133.263C256.995 133.097 257.126 132.891 257.218 132.644L258.271 132.94C258.16 133.297 257.974 133.611 257.712 133.882C257.45 134.149 257.127 134.359 256.742 134.509C256.358 134.657 255.925 134.731 255.445 134.731Z" fill="black"/>
<path d="M178.583 170H307.75V221.167C307.75 222.824 306.407 224.167 304.75 224.167H181.583C179.926 224.167 178.583 222.824 178.583 221.167V170Z" fill="#BFBFBF"/>
<path d="M231.829 193.417H228.911V183.962H231.958C232.875 183.962 233.66 184.151 234.313 184.53C234.965 184.905 235.465 185.446 235.813 186.15C236.161 186.852 236.335 187.692 236.335 188.671C236.335 189.656 236.159 190.504 235.808 191.215C235.458 191.922 234.947 192.467 234.276 192.849C233.605 193.227 232.789 193.417 231.829 193.417ZM230.056 192.401H231.755C232.537 192.401 233.185 192.25 233.699 191.949C234.213 191.647 234.596 191.218 234.848 190.661C235.101 190.104 235.227 189.44 235.227 188.671C235.227 187.908 235.102 187.251 234.853 186.7C234.604 186.146 234.231 185.721 233.736 185.426C233.24 185.127 232.623 184.978 231.884 184.978H230.056V192.401ZM240.194 193.583C239.745 193.583 239.337 193.498 238.971 193.329C238.605 193.157 238.314 192.909 238.098 192.586C237.883 192.259 237.775 191.866 237.775 191.404C237.775 190.998 237.855 190.668 238.015 190.416C238.175 190.161 238.389 189.96 238.657 189.816C238.925 189.671 239.22 189.563 239.543 189.493C239.869 189.419 240.197 189.36 240.527 189.317C240.957 189.262 241.307 189.22 241.574 189.193C241.845 189.162 242.042 189.111 242.165 189.04C242.292 188.969 242.355 188.846 242.355 188.671V188.634C242.355 188.179 242.23 187.825 241.981 187.572C241.735 187.32 241.361 187.194 240.859 187.194C240.339 187.194 239.931 187.308 239.636 187.535C239.34 187.763 239.132 188.006 239.012 188.265L237.978 187.895C238.163 187.464 238.409 187.129 238.717 186.889C239.028 186.646 239.366 186.477 239.732 186.381C240.102 186.283 240.465 186.233 240.822 186.233C241.05 186.233 241.311 186.261 241.607 186.317C241.905 186.369 242.193 186.478 242.47 186.644C242.75 186.81 242.982 187.061 243.167 187.397C243.352 187.732 243.444 188.182 243.444 188.745V193.417H242.355V192.456H242.299C242.225 192.61 242.102 192.775 241.93 192.95C241.758 193.126 241.528 193.275 241.242 193.398C240.956 193.521 240.607 193.583 240.194 193.583ZM240.36 192.604C240.791 192.604 241.154 192.52 241.45 192.35C241.748 192.181 241.973 191.962 242.124 191.695C242.278 191.427 242.355 191.145 242.355 190.85V189.853C242.308 189.908 242.207 189.959 242.05 190.005C241.896 190.048 241.718 190.087 241.514 190.121C241.314 190.151 241.119 190.179 240.928 190.204C240.74 190.225 240.588 190.244 240.471 190.259C240.188 190.296 239.923 190.356 239.677 190.439C239.434 190.519 239.237 190.641 239.086 190.804C238.938 190.964 238.865 191.182 238.865 191.459C238.865 191.838 239.005 192.124 239.285 192.318C239.568 192.509 239.926 192.604 240.36 192.604ZM248.516 186.326V187.249H244.842V186.326H248.516ZM245.913 184.627H247.002V191.385C247.002 191.693 247.047 191.924 247.136 192.078C247.228 192.229 247.345 192.33 247.487 192.383C247.632 192.432 247.784 192.456 247.944 192.456C248.064 192.456 248.163 192.45 248.24 192.438C248.316 192.423 248.378 192.41 248.424 192.401L248.646 193.38C248.572 193.407 248.469 193.435 248.336 193.463C248.204 193.494 248.036 193.509 247.833 193.509C247.525 193.509 247.224 193.443 246.928 193.31C246.636 193.178 246.393 192.977 246.199 192.706C246.008 192.435 245.913 192.093 245.913 191.681V184.627ZM252.242 193.583C251.793 193.583 251.385 193.498 251.019 193.329C250.652 193.157 250.362 192.909 250.146 192.586C249.931 192.259 249.823 191.866 249.823 191.404C249.823 190.998 249.903 190.668 250.063 190.416C250.223 190.161 250.437 189.96 250.705 189.816C250.972 189.671 251.268 189.563 251.591 189.493C251.917 189.419 252.245 189.36 252.574 189.317C253.005 189.262 253.355 189.22 253.622 189.193C253.893 189.162 254.09 189.111 254.213 189.04C254.339 188.969 254.403 188.846 254.403 188.671V188.634C254.403 188.179 254.278 187.825 254.029 187.572C253.782 187.32 253.408 187.194 252.907 187.194C252.387 187.194 251.979 187.308 251.683 187.535C251.388 187.763 251.18 188.006 251.06 188.265L250.026 187.895C250.211 187.464 250.457 187.129 250.765 186.889C251.076 186.646 251.414 186.477 251.78 186.381C252.15 186.283 252.513 186.233 252.87 186.233C253.098 186.233 253.359 186.261 253.655 186.317C253.953 186.369 254.241 186.478 254.518 186.644C254.798 186.81 255.03 187.061 255.215 187.397C255.4 187.732 255.492 188.182 255.492 188.745V193.417H254.403V192.456H254.347C254.273 192.61 254.15 192.775 253.978 192.95C253.805 193.126 253.576 193.275 253.29 193.398C253.004 193.521 252.654 193.583 252.242 193.583ZM252.408 192.604C252.839 192.604 253.202 192.52 253.498 192.35C253.796 192.181 254.021 191.962 254.172 191.695C254.326 191.427 254.403 191.145 254.403 190.85V189.853C254.356 189.908 254.255 189.959 254.098 190.005C253.944 190.048 253.765 190.087 253.562 190.121C253.362 190.151 253.167 190.179 252.976 190.204C252.788 190.225 252.636 190.244 252.519 190.259C252.236 190.296 251.971 190.356 251.725 190.439C251.482 190.519 251.285 190.641 251.134 190.804C250.986 190.964 250.912 191.182 250.912 191.459C250.912 191.838 251.052 192.124 251.333 192.318C251.616 192.509 251.974 192.604 252.408 192.604ZM226.353 209.417V199.962H229.548C230.29 199.962 230.896 200.096 231.367 200.364C231.841 200.628 232.192 200.987 232.419 201.439C232.647 201.892 232.761 202.397 232.761 202.954C232.761 203.511 232.647 204.017 232.419 204.472C232.195 204.928 231.847 205.291 231.376 205.562C230.905 205.83 230.302 205.964 229.566 205.964H227.277V204.948H229.529C230.037 204.948 230.445 204.86 230.753 204.685C231.061 204.509 231.284 204.272 231.422 203.974C231.564 203.672 231.635 203.332 231.635 202.954C231.635 202.575 231.564 202.237 231.422 201.938C231.284 201.639 231.059 201.406 230.748 201.236C230.437 201.064 230.025 200.978 229.511 200.978H227.498V209.417H226.353ZM235.547 199.962V209.417H234.458V199.962H235.547ZM239.629 209.583C239.18 209.583 238.772 209.498 238.406 209.329C238.04 209.157 237.749 208.909 237.533 208.586C237.318 208.259 237.21 207.866 237.21 207.404C237.21 206.998 237.29 206.668 237.45 206.416C237.61 206.161 237.824 205.96 238.092 205.816C238.36 205.671 238.655 205.563 238.978 205.493C239.305 205.419 239.632 205.36 239.962 205.317C240.392 205.262 240.742 205.22 241.01 205.193C241.28 205.162 241.477 205.111 241.6 205.04C241.727 204.969 241.79 204.846 241.79 204.671V204.634C241.79 204.179 241.665 203.825 241.416 203.572C241.17 203.32 240.796 203.194 240.294 203.194C239.774 203.194 239.366 203.308 239.071 203.535C238.775 203.763 238.567 204.006 238.447 204.265L237.413 203.895C237.598 203.464 237.844 203.129 238.152 202.889C238.463 202.646 238.801 202.477 239.168 202.381C239.537 202.283 239.9 202.233 240.257 202.233C240.485 202.233 240.746 202.261 241.042 202.317C241.34 202.369 241.628 202.478 241.905 202.644C242.185 202.81 242.418 203.061 242.602 203.397C242.787 203.732 242.879 204.182 242.879 204.745V209.417H241.79V208.456H241.734C241.66 208.61 241.537 208.775 241.365 208.95C241.193 209.126 240.963 209.275 240.677 209.398C240.391 209.521 240.042 209.583 239.629 209.583ZM239.795 208.604C240.226 208.604 240.589 208.52 240.885 208.35C241.183 208.181 241.408 207.962 241.559 207.695C241.713 207.427 241.79 207.145 241.79 206.85V205.853C241.744 205.908 241.642 205.959 241.485 206.005C241.331 206.048 241.153 206.087 240.95 206.121C240.749 206.151 240.554 206.179 240.363 206.204C240.175 206.225 240.023 206.244 239.906 206.259C239.623 206.296 239.358 206.356 239.112 206.439C238.869 206.519 238.672 206.641 238.521 206.804C238.374 206.964 238.3 207.182 238.3 207.459C238.3 207.838 238.44 208.124 238.72 208.318C239.003 208.509 239.361 208.604 239.795 208.604ZM245.957 205.151V209.417H244.868V202.326H245.92V203.434H246.013C246.179 203.074 246.431 202.784 246.77 202.566C247.108 202.344 247.545 202.233 248.081 202.233C248.561 202.233 248.981 202.332 249.341 202.529C249.701 202.723 249.981 203.018 250.181 203.415C250.381 203.809 250.481 204.308 250.481 204.911V209.417H249.392V204.985C249.392 204.428 249.247 203.994 248.958 203.683C248.669 203.369 248.272 203.212 247.767 203.212C247.419 203.212 247.108 203.288 246.834 203.438C246.564 203.589 246.35 203.809 246.193 204.098C246.036 204.388 245.957 204.739 245.957 205.151ZM255.445 209.564C254.762 209.564 254.173 209.414 253.677 209.112C253.185 208.807 252.805 208.383 252.537 207.838C252.272 207.29 252.14 206.653 252.14 205.927C252.14 205.2 252.272 204.56 252.537 204.006C252.805 203.449 253.177 203.015 253.654 202.704C254.134 202.39 254.694 202.233 255.334 202.233C255.704 202.233 256.068 202.295 256.429 202.418C256.789 202.541 257.116 202.741 257.412 203.018C257.707 203.292 257.943 203.655 258.118 204.108C258.294 204.56 258.381 205.117 258.381 205.779V206.241H252.915V205.299H257.273C257.273 204.899 257.193 204.542 257.033 204.228C256.876 203.914 256.652 203.666 256.359 203.484C256.07 203.303 255.728 203.212 255.334 203.212C254.901 203.212 254.525 203.32 254.208 203.535C253.894 203.748 253.653 204.025 253.483 204.366C253.314 204.708 253.229 205.074 253.229 205.465V206.093C253.229 206.628 253.322 207.082 253.506 207.455C253.694 207.824 253.954 208.106 254.287 208.299C254.619 208.49 255.005 208.586 255.445 208.586C255.731 208.586 255.99 208.546 256.221 208.466C256.455 208.383 256.656 208.259 256.826 208.096C256.995 207.93 257.126 207.724 257.218 207.478L258.271 207.773C258.16 208.13 257.974 208.444 257.712 208.715C257.45 208.983 257.127 209.192 256.742 209.343C256.358 209.491 255.925 209.564 255.445 209.564Z" fill="black"/>
<path d="M319.583 27C319.583 25.3431 320.926 24 322.583 24H445.75C447.407 24 448.75 25.3431 448.75 27V78.1667H319.583V27Z" fill="#00B0F0"/>
<path d="M369.122 40.9167H367.977C367.91 40.5874 367.791 40.2981 367.622 40.0488C367.456 39.7995 367.252 39.5902 367.012 39.4209C366.775 39.2486 366.512 39.1193 366.223 39.0331C365.934 38.947 365.632 38.9039 365.318 38.9039C364.746 38.9039 364.227 39.0485 363.762 39.3378C363.301 39.6271 362.933 40.0534 362.659 40.6166C362.388 41.1798 362.253 41.8707 362.253 42.6894C362.253 43.508 362.388 44.199 362.659 44.7622C362.933 45.3254 363.301 45.7517 363.762 46.041C364.227 46.3303 364.746 46.4749 365.318 46.4749C365.632 46.4749 365.934 46.4318 366.223 46.3456C366.512 46.2595 366.775 46.1317 367.012 45.9625C367.252 45.7901 367.456 45.5793 367.622 45.33C367.791 45.0776 367.91 44.7883 367.977 44.4621H369.122C369.036 44.9453 368.879 45.3777 368.651 45.7593C368.423 46.141 368.14 46.4657 367.802 46.7334C367.463 46.9981 367.083 47.1997 366.662 47.3382C366.243 47.4767 365.795 47.5459 365.318 47.5459C364.512 47.5459 363.795 47.349 363.167 46.955C362.539 46.5611 362.045 46.0009 361.685 45.2746C361.325 44.5483 361.145 43.6866 361.145 42.6894C361.145 41.6922 361.325 40.8305 361.685 40.1042C362.045 39.3778 362.539 38.8177 363.167 38.4238C363.795 38.0298 364.512 37.8329 365.318 37.8329C365.795 37.8329 366.243 37.9021 366.662 38.0406C367.083 38.1791 367.463 38.3822 367.802 38.65C368.14 38.9147 368.423 39.2378 368.651 39.6194C368.879 39.998 369.036 40.4304 369.122 40.9167ZM372.911 47.5829C372.462 47.5829 372.054 47.4982 371.688 47.329C371.321 47.1566 371.031 46.9089 370.815 46.5857C370.6 46.2595 370.492 45.8655 370.492 45.4039C370.492 44.9976 370.572 44.6683 370.732 44.416C370.892 44.1605 371.106 43.9605 371.374 43.8158C371.642 43.6712 371.937 43.5634 372.26 43.4927C372.586 43.4188 372.914 43.3603 373.243 43.3172C373.674 43.2618 374.024 43.2203 374.291 43.1926C374.562 43.1618 374.759 43.111 374.882 43.0402C375.009 42.9695 375.072 42.8464 375.072 42.6709V42.634C375.072 42.1785 374.947 41.8246 374.698 41.5722C374.451 41.3198 374.078 41.1937 373.576 41.1937C373.056 41.1937 372.648 41.3075 372.353 41.5353C372.057 41.763 371.849 42.0062 371.729 42.2647L370.695 41.8954C370.88 41.4645 371.126 41.129 371.434 40.889C371.745 40.6458 372.083 40.4766 372.449 40.3812C372.819 40.2827 373.182 40.2334 373.539 40.2334C373.767 40.2334 374.028 40.2611 374.324 40.3165C374.622 40.3688 374.91 40.4781 375.187 40.6443C375.467 40.8105 375.699 41.0613 375.884 41.3968C376.069 41.7322 376.161 42.1816 376.161 42.7448V47.4167H375.072V46.4564H375.016C374.942 46.6103 374.819 46.775 374.647 46.9504C374.475 47.1258 374.245 47.2751 373.959 47.3982C373.673 47.5213 373.324 47.5829 372.911 47.5829ZM373.077 46.6042C373.508 46.6042 373.871 46.5195 374.167 46.3503C374.465 46.181 374.69 45.9625 374.841 45.6947C374.995 45.427 375.072 45.1454 375.072 44.8499V43.8527C375.025 43.9081 374.924 43.9589 374.767 44.0051C374.613 44.0482 374.435 44.0866 374.231 44.1205C374.031 44.1513 373.836 44.179 373.645 44.2036C373.457 44.2251 373.305 44.2436 373.188 44.259C372.905 44.2959 372.64 44.3559 372.394 44.439C372.151 44.5191 371.954 44.6406 371.803 44.8037C371.655 44.9638 371.582 45.1823 371.582 45.4593C371.582 45.8378 371.722 46.1241 372.002 46.3179C372.285 46.5088 372.643 46.6042 373.077 46.6042ZM381.233 40.3258V41.2491H377.559V40.3258H381.233ZM378.63 38.6269H379.719V45.3854C379.719 45.6932 379.764 45.924 379.853 46.0779C379.945 46.2287 380.062 46.3303 380.204 46.3826C380.349 46.4318 380.501 46.4564 380.661 46.4564C380.781 46.4564 380.88 46.4503 380.956 46.438C381.033 46.4226 381.095 46.4103 381.141 46.401L381.363 47.3797C381.289 47.4074 381.186 47.4351 381.053 47.4628C380.921 47.4936 380.753 47.509 380.55 47.509C380.242 47.509 379.941 47.4428 379.645 47.3105C379.353 47.1781 379.11 46.9766 378.916 46.7057C378.725 46.4349 378.63 46.0933 378.63 45.6809V38.6269ZM384.959 47.5829C384.51 47.5829 384.102 47.4982 383.736 47.329C383.369 47.1566 383.079 46.9089 382.863 46.5857C382.648 46.2595 382.54 45.8655 382.54 45.4039C382.54 44.9976 382.62 44.6683 382.78 44.416C382.94 44.1605 383.154 43.9605 383.422 43.8158C383.689 43.6712 383.985 43.5634 384.308 43.4927C384.634 43.4188 384.962 43.3603 385.291 43.3172C385.722 43.2618 386.072 43.2203 386.339 43.1926C386.61 43.1618 386.807 43.111 386.93 43.0402C387.056 42.9695 387.119 42.8464 387.119 42.6709V42.634C387.119 42.1785 386.995 41.8246 386.746 41.5722C386.499 41.3198 386.125 41.1937 385.624 41.1937C385.104 41.1937 384.696 41.3075 384.4 41.5353C384.105 41.763 383.897 42.0062 383.777 42.2647L382.743 41.8954C382.928 41.4645 383.174 41.129 383.482 40.889C383.793 40.6458 384.131 40.4766 384.497 40.3812C384.867 40.2827 385.23 40.2334 385.587 40.2334C385.815 40.2334 386.076 40.2611 386.372 40.3165C386.67 40.3688 386.958 40.4781 387.235 40.6443C387.515 40.8105 387.747 41.0613 387.932 41.3968C388.117 41.7322 388.209 42.1816 388.209 42.7448V47.4167H387.119V46.4564H387.064C386.99 46.6103 386.867 46.775 386.695 46.9504C386.522 47.1258 386.293 47.2751 386.007 47.3982C385.721 47.5213 385.371 47.5829 384.959 47.5829ZM385.125 46.6042C385.556 46.6042 385.919 46.5195 386.215 46.3503C386.513 46.181 386.738 45.9625 386.889 45.6947C387.043 45.427 387.119 45.1454 387.119 44.8499V43.8527C387.073 43.9081 386.972 43.9589 386.815 44.0051C386.661 44.0482 386.482 44.0866 386.279 44.1205C386.079 44.1513 385.884 44.179 385.693 44.2036C385.505 44.2251 385.353 44.2436 385.236 44.259C384.953 44.2959 384.688 44.3559 384.442 44.439C384.199 44.5191 384.002 44.6406 383.851 44.8037C383.703 44.9638 383.629 45.1823 383.629 45.4593C383.629 45.8378 383.769 46.1241 384.05 46.3179C384.333 46.5088 384.691 46.6042 385.125 46.6042ZM391.287 37.9621V47.4167H390.197V37.9621H391.287ZM396.163 47.5644C395.523 47.5644 394.961 47.412 394.478 47.1074C393.998 46.8027 393.623 46.3764 393.352 45.8286C393.084 45.2808 392.95 44.6406 392.95 43.9081C392.95 43.1695 393.084 42.5247 393.352 41.9738C393.623 41.4229 393.998 40.9951 394.478 40.6905C394.961 40.3858 395.523 40.2334 396.163 40.2334C396.803 40.2334 397.363 40.3858 397.844 40.6905C398.327 40.9951 398.702 41.4229 398.97 41.9738C399.241 42.5247 399.376 43.1695 399.376 43.9081C399.376 44.6406 399.241 45.2808 398.97 45.8286C398.702 46.3764 398.327 46.8027 397.844 47.1074C397.363 47.412 396.803 47.5644 396.163 47.5644ZM396.163 46.5857C396.649 46.5857 397.05 46.4611 397.363 46.2118C397.677 45.9625 397.91 45.6347 398.061 45.2285C398.211 44.8222 398.287 44.3821 398.287 43.9081C398.287 43.4342 398.211 42.9925 398.061 42.5832C397.91 42.1739 397.677 41.843 397.363 41.5907C397.05 41.3383 396.649 41.2121 396.163 41.2121C395.677 41.2121 395.277 41.3383 394.963 41.5907C394.649 41.843 394.417 42.1739 394.266 42.5832C394.115 42.9925 394.04 43.4342 394.04 43.9081C394.04 44.3821 394.115 44.8222 394.266 45.2285C394.417 45.6347 394.649 45.9625 394.963 46.2118C395.277 46.4611 395.677 46.5857 396.163 46.5857ZM403.902 50.2235C403.375 50.2235 402.923 50.1558 402.544 50.0204C402.166 49.888 401.85 49.7126 401.598 49.4941C401.349 49.2786 401.15 49.0478 401.002 48.8016L401.87 48.1922C401.969 48.3215 402.093 48.4692 402.244 48.6354C402.395 48.8047 402.601 48.9509 402.863 49.074C403.127 49.2002 403.474 49.2633 403.902 49.2633C404.474 49.2633 404.946 49.1248 405.319 48.8478C405.691 48.5708 405.877 48.1368 405.877 47.5459V46.1056H405.785C405.705 46.2348 405.591 46.3949 405.443 46.5857C405.299 46.7734 405.089 46.9412 404.816 47.0889C404.545 47.2335 404.179 47.3059 403.717 47.3059C403.144 47.3059 402.63 47.1705 402.175 46.8996C401.723 46.6288 401.364 46.2348 401.099 45.7178C400.838 45.2008 400.707 44.5729 400.707 43.8343C400.707 43.108 400.835 42.4755 401.09 41.9369C401.346 41.3952 401.701 40.9767 402.156 40.6812C402.612 40.3827 403.138 40.2334 403.735 40.2334C404.197 40.2334 404.563 40.3104 404.834 40.4642C405.108 40.6151 405.317 40.7874 405.462 40.9813C405.61 41.1721 405.723 41.3291 405.804 41.4522H405.914V40.3258H406.967V47.6198C406.967 48.2292 406.828 48.7247 406.551 49.1063C406.277 49.491 405.908 49.7726 405.443 49.9511C404.982 50.1327 404.468 50.2235 403.902 50.2235ZM403.865 46.3272C404.302 46.3272 404.671 46.2272 404.973 46.0271C405.274 45.8271 405.503 45.5393 405.66 45.1638C405.817 44.7883 405.896 44.339 405.896 43.8158C405.896 43.3049 405.819 42.854 405.665 42.4632C405.511 42.0723 405.283 41.7661 404.982 41.5445C404.68 41.3229 404.308 41.2121 403.865 41.2121C403.403 41.2121 403.018 41.3291 402.71 41.563C402.406 41.7969 402.176 42.1108 402.023 42.5047C401.872 42.8987 401.796 43.3357 401.796 43.8158C401.796 44.3082 401.873 44.7437 402.027 45.1223C402.184 45.4977 402.415 45.7932 402.72 46.0086C403.027 46.221 403.409 46.3272 403.865 46.3272ZM370.335 56.3258C370.279 55.858 370.054 55.4948 369.661 55.2363C369.267 54.9777 368.783 54.8485 368.211 54.8485C367.792 54.8485 367.426 54.9162 367.112 55.0516C366.801 55.187 366.558 55.3732 366.383 55.6102C366.21 55.8472 366.124 56.1165 366.124 56.4181C366.124 56.6705 366.184 56.8874 366.304 57.069C366.427 57.2475 366.584 57.3968 366.775 57.5168C366.966 57.6338 367.166 57.7307 367.375 57.8076C367.585 57.8815 367.777 57.9415 367.952 57.9877L368.913 58.2462C369.159 58.3108 369.433 58.4001 369.734 58.514C370.039 58.6278 370.33 58.7833 370.607 58.9802C370.887 59.1741 371.118 59.4234 371.299 59.7281C371.481 60.0328 371.572 60.4067 371.572 60.8499C371.572 61.3608 371.438 61.8224 371.17 62.2348C370.905 62.6473 370.518 62.975 370.007 63.2182C369.499 63.4613 368.882 63.5829 368.156 63.5829C367.478 63.5829 366.892 63.4736 366.397 63.2551C365.904 63.0366 365.516 62.7319 365.233 62.341C364.953 61.9502 364.795 61.4962 364.758 60.9792H365.94C365.97 61.3362 366.09 61.6316 366.3 61.8655C366.512 62.0964 366.78 62.2687 367.103 62.3826C367.429 62.4934 367.78 62.5488 368.156 62.5488C368.593 62.5488 368.985 62.478 369.333 62.3364C369.681 62.1918 369.956 61.9917 370.159 61.7363C370.362 61.4777 370.464 61.1761 370.464 60.8314C370.464 60.5175 370.376 60.2621 370.201 60.0651C370.025 59.8681 369.794 59.7081 369.508 59.585C369.222 59.4619 368.913 59.3542 368.58 59.2618L367.417 58.9294C366.678 58.7171 366.094 58.4139 365.663 58.02C365.232 57.6261 365.016 57.1106 365.016 56.4735C365.016 55.9441 365.159 55.4825 365.446 55.0885C365.735 54.6915 366.123 54.3838 366.609 54.1652C367.098 53.9437 367.645 53.8329 368.248 53.8329C368.857 53.8329 369.399 53.9421 369.873 54.1606C370.347 54.3761 370.722 54.6715 370.999 55.047C371.279 55.4225 371.427 55.8487 371.442 56.3258H370.335ZM376.279 63.5644C375.596 63.5644 375.007 63.4136 374.511 63.112C374.019 62.8073 373.639 62.3826 373.371 61.8378C373.106 61.29 372.974 60.6529 372.974 59.9266C372.974 59.2003 373.106 58.5601 373.371 58.0062C373.639 57.4491 374.011 57.0151 374.488 56.7043C374.968 56.3904 375.528 56.2334 376.169 56.2334C376.538 56.2334 376.903 56.295 377.263 56.4181C377.623 56.5412 377.951 56.7412 378.246 57.0182C378.541 57.2921 378.777 57.6553 378.952 58.1077C379.128 58.5601 379.215 59.1172 379.215 59.7789V60.2405H373.75V59.2988H378.108C378.108 58.8987 378.028 58.5417 377.867 58.2277C377.711 57.9138 377.486 57.6661 377.193 57.4845C376.904 57.3029 376.563 57.2121 376.169 57.2121C375.735 57.2121 375.359 57.3198 375.042 57.5353C374.728 57.7476 374.487 58.0246 374.317 58.3662C374.148 58.7079 374.063 59.0741 374.063 59.465V60.0928C374.063 60.6283 374.156 61.0823 374.34 61.4547C374.528 61.824 374.788 62.1056 375.121 62.2995C375.453 62.4903 375.839 62.5857 376.279 62.5857C376.566 62.5857 376.824 62.5457 377.055 62.4657C377.289 62.3826 377.49 62.2595 377.66 62.0964C377.829 61.9302 377.96 61.724 378.052 61.4777L379.105 61.7732C378.994 62.1302 378.808 62.4441 378.546 62.715C378.284 62.9827 377.961 63.192 377.577 63.3428C377.192 63.4905 376.76 63.5644 376.279 63.5644ZM380.873 63.4167V56.3258H381.925V57.3968H381.999C382.128 57.0459 382.362 56.7612 382.701 56.5427C383.039 56.3242 383.421 56.215 383.846 56.215C383.926 56.215 384.026 56.2165 384.146 56.2196C384.266 56.2227 384.357 56.2273 384.418 56.2334V57.3414C384.381 57.3321 384.297 57.3183 384.164 57.2998C384.035 57.2783 383.898 57.2675 383.753 57.2675C383.409 57.2675 383.101 57.3398 382.83 57.4845C382.562 57.6261 382.35 57.823 382.193 58.0754C382.039 58.3247 381.962 58.6094 381.962 58.9294V63.4167H380.873ZM391.724 56.3258L389.102 63.4167H387.994L385.372 56.3258H386.553L388.511 61.9763H388.585L390.542 56.3258H391.724ZM395.881 63.5644C395.198 63.5644 394.608 63.4136 394.113 63.112C393.62 62.8073 393.24 62.3826 392.973 61.8378C392.708 61.29 392.576 60.6529 392.576 59.9266C392.576 59.2003 392.708 58.5601 392.973 58.0062C393.24 57.4491 393.613 57.0151 394.09 56.7043C394.57 56.3904 395.13 56.2334 395.77 56.2334C396.139 56.2334 396.504 56.295 396.864 56.4181C397.224 56.5412 397.552 56.7412 397.848 57.0182C398.143 57.2921 398.378 57.6553 398.554 58.1077C398.729 58.5601 398.817 59.1172 398.817 59.7789V60.2405H393.351V59.2988H397.709C397.709 58.8987 397.629 58.5417 397.469 58.2277C397.312 57.9138 397.087 57.6661 396.795 57.4845C396.506 57.3029 396.164 57.2121 395.77 57.2121C395.336 57.2121 394.961 57.3198 394.644 57.5353C394.33 57.7476 394.088 58.0246 393.919 58.3662C393.75 58.7079 393.665 59.0741 393.665 59.465V60.0928C393.665 60.6283 393.757 61.0823 393.942 61.4547C394.13 61.824 394.39 62.1056 394.722 62.2995C395.055 62.4903 395.441 62.5857 395.881 62.5857C396.167 62.5857 396.426 62.5457 396.657 62.4657C396.89 62.3826 397.092 62.2595 397.261 62.0964C397.431 61.9302 397.561 61.724 397.654 61.4777L398.706 61.7732C398.595 62.1302 398.409 62.4441 398.148 62.715C397.886 62.9827 397.563 63.192 397.178 63.3428C396.793 63.4905 396.361 63.5644 395.881 63.5644ZM400.474 63.4167V56.3258H401.527V57.3968H401.601C401.73 57.0459 401.964 56.7612 402.302 56.5427C402.641 56.3242 403.023 56.215 403.447 56.215C403.527 56.215 403.627 56.2165 403.747 56.2196C403.867 56.2227 403.958 56.2273 404.02 56.2334V57.3414C403.983 57.3321 403.898 57.3183 403.766 57.2998C403.637 57.2783 403.5 57.2675 403.355 57.2675C403.01 57.2675 402.703 57.3398 402.432 57.4845C402.164 57.6261 401.952 57.823 401.795 58.0754C401.641 58.3247 401.564 58.6094 401.564 58.9294V63.4167H400.474Z" fill="white"/>
<rect x="319.583" y="95.1667" width="129.167" height="56.25" fill="#00EFB5"/>
<path d="M369.375 112.083H368.23C368.163 111.754 368.044 111.465 367.875 111.215C367.709 110.966 367.506 110.757 367.266 110.588C367.029 110.415 366.766 110.286 366.476 110.2C366.187 110.114 365.885 110.071 365.571 110.071C364.999 110.071 364.48 110.215 364.016 110.504C363.554 110.794 363.186 111.22 362.912 111.783C362.641 112.346 362.506 113.037 362.506 113.856C362.506 114.675 362.641 115.366 362.912 115.929C363.186 116.492 363.554 116.918 364.016 117.208C364.48 117.497 364.999 117.642 365.571 117.642C365.885 117.642 366.187 117.598 366.476 117.512C366.766 117.426 367.029 117.298 367.266 117.129C367.506 116.957 367.709 116.746 367.875 116.497C368.044 116.244 368.163 115.955 368.23 115.629H369.375C369.289 116.112 369.132 116.544 368.904 116.926C368.677 117.308 368.394 117.632 368.055 117.9C367.717 118.165 367.336 118.366 366.915 118.505C366.496 118.643 366.048 118.713 365.571 118.713C364.765 118.713 364.048 118.516 363.42 118.122C362.792 117.728 362.298 117.168 361.938 116.441C361.578 115.715 361.398 114.853 361.398 113.856C361.398 112.859 361.578 111.997 361.938 111.271C362.298 110.545 362.792 109.984 363.42 109.59C364.048 109.196 364.765 109 365.571 109C366.048 109 366.496 109.069 366.915 109.207C367.336 109.346 367.717 109.549 368.055 109.817C368.394 110.081 368.677 110.404 368.904 110.786C369.132 111.165 369.289 111.597 369.375 112.083ZM373.958 118.731C373.318 118.731 372.757 118.579 372.273 118.274C371.793 117.969 371.418 117.543 371.147 116.995C370.879 116.447 370.745 115.807 370.745 115.075C370.745 114.336 370.879 113.691 371.147 113.141C371.418 112.59 371.793 112.162 372.273 111.857C372.757 111.552 373.318 111.4 373.958 111.4C374.599 111.4 375.159 111.552 375.639 111.857C376.122 112.162 376.497 112.59 376.765 113.141C377.036 113.691 377.171 114.336 377.171 115.075C377.171 115.807 377.036 116.447 376.765 116.995C376.497 117.543 376.122 117.969 375.639 118.274C375.159 118.579 374.599 118.731 373.958 118.731ZM373.958 117.752C374.445 117.752 374.845 117.628 375.159 117.378C375.473 117.129 375.705 116.801 375.856 116.395C376.007 115.989 376.082 115.549 376.082 115.075C376.082 114.601 376.007 114.159 375.856 113.75C375.705 113.341 375.473 113.01 375.159 112.757C374.845 112.505 374.445 112.379 373.958 112.379C373.472 112.379 373.072 112.505 372.758 112.757C372.444 113.01 372.212 113.341 372.061 113.75C371.91 114.159 371.835 114.601 371.835 115.075C371.835 115.549 371.91 115.989 372.061 116.395C372.212 116.801 372.444 117.129 372.758 117.378C373.072 117.628 373.472 117.752 373.958 117.752ZM379.924 114.318V118.583H378.835V111.492H379.887V112.6H379.979C380.146 112.24 380.398 111.951 380.737 111.732C381.075 111.511 381.512 111.4 382.048 111.4C382.528 111.4 382.948 111.499 383.308 111.696C383.668 111.889 383.948 112.185 384.148 112.582C384.348 112.976 384.448 113.474 384.448 114.078V118.583H383.359V114.152C383.359 113.594 383.214 113.161 382.925 112.85C382.635 112.536 382.238 112.379 381.734 112.379C381.386 112.379 381.075 112.454 380.801 112.605C380.53 112.756 380.316 112.976 380.159 113.265C380.003 113.554 379.924 113.905 379.924 114.318ZM389.523 111.492V112.416H385.848V111.492H389.523ZM386.919 109.794H388.009V116.552C388.009 116.86 388.053 117.091 388.143 117.245C388.235 117.395 388.352 117.497 388.493 117.549C388.638 117.598 388.79 117.623 388.95 117.623C389.07 117.623 389.169 117.617 389.246 117.605C389.323 117.589 389.384 117.577 389.431 117.568L389.652 118.546C389.578 118.574 389.475 118.602 389.343 118.629C389.21 118.66 389.043 118.676 388.84 118.676C388.532 118.676 388.23 118.609 387.935 118.477C387.642 118.345 387.399 118.143 387.205 117.872C387.015 117.602 386.919 117.26 386.919 116.848V109.794ZM391.162 118.583V111.492H392.214V112.563H392.288C392.417 112.213 392.651 111.928 392.99 111.709C393.328 111.491 393.71 111.382 394.135 111.382C394.215 111.382 394.315 111.383 394.435 111.386C394.555 111.389 394.646 111.394 394.707 111.4V112.508C394.67 112.499 394.586 112.485 394.453 112.466C394.324 112.445 394.187 112.434 394.042 112.434C393.698 112.434 393.39 112.507 393.119 112.651C392.851 112.793 392.639 112.99 392.482 113.242C392.328 113.491 392.251 113.776 392.251 114.096V118.583H391.162ZM398.663 118.731C398.023 118.731 397.462 118.579 396.978 118.274C396.498 117.969 396.123 117.543 395.852 116.995C395.584 116.447 395.45 115.807 395.45 115.075C395.45 114.336 395.584 113.691 395.852 113.141C396.123 112.59 396.498 112.162 396.978 111.857C397.462 111.552 398.023 111.4 398.663 111.4C399.304 111.4 399.864 111.552 400.344 111.857C400.827 112.162 401.203 112.59 401.47 113.141C401.741 113.691 401.877 114.336 401.877 115.075C401.877 115.807 401.741 116.447 401.47 116.995C401.203 117.543 400.827 117.969 400.344 118.274C399.864 118.579 399.304 118.731 398.663 118.731ZM398.663 117.752C399.15 117.752 399.55 117.628 399.864 117.378C400.178 117.129 400.41 116.801 400.561 116.395C400.712 115.989 400.787 115.549 400.787 115.075C400.787 114.601 400.712 114.159 400.561 113.75C400.41 113.341 400.178 113.01 399.864 112.757C399.55 112.505 399.15 112.379 398.663 112.379C398.177 112.379 397.777 112.505 397.463 112.757C397.149 113.01 396.917 113.341 396.766 113.75C396.615 114.159 396.54 114.601 396.54 115.075C396.54 115.549 396.615 115.989 396.766 116.395C396.917 116.801 397.149 117.129 397.463 117.378C397.777 117.628 398.177 117.752 398.663 117.752ZM404.629 109.129V118.583H403.54V109.129H404.629ZM367.353 134.583V125.129H370.548C371.29 125.129 371.896 125.263 372.367 125.53C372.841 125.795 373.192 126.154 373.419 126.606C373.647 127.058 373.761 127.563 373.761 128.12C373.761 128.677 373.647 129.184 373.419 129.639C373.195 130.095 372.847 130.458 372.376 130.729C371.905 130.996 371.302 131.13 370.566 131.13H368.277V130.115H370.529C371.037 130.115 371.445 130.027 371.753 129.851C372.061 129.676 372.284 129.439 372.422 129.141C372.564 128.839 372.635 128.499 372.635 128.12C372.635 127.742 372.564 127.403 372.422 127.105C372.284 126.806 372.059 126.572 371.748 126.403C371.437 126.231 371.025 126.144 370.511 126.144H368.498V134.583H367.353ZM376.547 125.129V134.583H375.458V125.129H376.547ZM380.629 134.75C380.18 134.75 379.772 134.665 379.406 134.496C379.04 134.323 378.749 134.076 378.533 133.752C378.318 133.426 378.21 133.032 378.21 132.571C378.21 132.164 378.29 131.835 378.45 131.583C378.61 131.327 378.824 131.127 379.092 130.982C379.36 130.838 379.655 130.73 379.978 130.659C380.305 130.585 380.632 130.527 380.962 130.484C381.392 130.429 381.742 130.387 382.01 130.359C382.28 130.328 382.477 130.278 382.6 130.207C382.727 130.136 382.79 130.013 382.79 129.838V129.801C382.79 129.345 382.665 128.991 382.416 128.739C382.17 128.487 381.796 128.36 381.294 128.36C380.774 128.36 380.366 128.474 380.071 128.702C379.775 128.93 379.567 129.173 379.447 129.431L378.413 129.062C378.598 128.631 378.844 128.296 379.152 128.056C379.463 127.812 379.801 127.643 380.168 127.548C380.537 127.449 380.9 127.4 381.257 127.4C381.485 127.4 381.746 127.428 382.042 127.483C382.34 127.536 382.628 127.645 382.905 127.811C383.185 127.977 383.418 128.228 383.602 128.563C383.787 128.899 383.879 129.348 383.879 129.911V134.583H382.79V133.623H382.734C382.66 133.777 382.537 133.942 382.365 134.117C382.193 134.292 381.963 134.442 381.677 134.565C381.391 134.688 381.042 134.75 380.629 134.75ZM380.795 133.771C381.226 133.771 381.589 133.686 381.885 133.517C382.183 133.348 382.408 133.129 382.559 132.861C382.713 132.594 382.79 132.312 382.79 132.017V131.019C382.744 131.075 382.642 131.126 382.485 131.172C382.331 131.215 382.153 131.253 381.95 131.287C381.749 131.318 381.554 131.346 381.363 131.37C381.175 131.392 381.023 131.41 380.906 131.426C380.623 131.463 380.358 131.523 380.112 131.606C379.869 131.686 379.672 131.807 379.521 131.97C379.374 132.13 379.3 132.349 379.3 132.626C379.3 133.004 379.44 133.291 379.72 133.485C380.003 133.675 380.361 133.771 380.795 133.771ZM386.957 130.318V134.583H385.868V127.492H386.92V128.6H387.013C387.179 128.24 387.431 127.951 387.77 127.732C388.108 127.511 388.545 127.4 389.081 127.4C389.561 127.4 389.981 127.499 390.341 127.696C390.701 127.889 390.981 128.185 391.181 128.582C391.381 128.976 391.481 129.474 391.481 130.078V134.583H390.392V130.152C390.392 129.594 390.247 129.161 389.958 128.85C389.669 128.536 389.272 128.379 388.767 128.379C388.419 128.379 388.108 128.454 387.834 128.605C387.564 128.756 387.35 128.976 387.193 129.265C387.036 129.554 386.957 129.905 386.957 130.318ZM396.445 134.731C395.762 134.731 395.173 134.58 394.677 134.279C394.185 133.974 393.805 133.549 393.537 133.004C393.272 132.457 393.14 131.82 393.14 131.093C393.14 130.367 393.272 129.727 393.537 129.173C393.805 128.616 394.177 128.182 394.654 127.871C395.134 127.557 395.694 127.4 396.334 127.4C396.704 127.4 397.068 127.462 397.429 127.585C397.789 127.708 398.116 127.908 398.412 128.185C398.707 128.459 398.943 128.822 399.118 129.274C399.294 129.727 399.381 130.284 399.381 130.946V131.407H393.915V130.465H398.273C398.273 130.065 398.193 129.708 398.033 129.394C397.876 129.08 397.652 128.833 397.359 128.651C397.07 128.47 396.728 128.379 396.334 128.379C395.901 128.379 395.525 128.487 395.208 128.702C394.894 128.914 394.653 129.191 394.483 129.533C394.314 129.875 394.229 130.241 394.229 130.632V131.259C394.229 131.795 394.322 132.249 394.506 132.621C394.694 132.991 394.954 133.272 395.287 133.466C395.619 133.657 396.005 133.752 396.445 133.752C396.731 133.752 396.99 133.712 397.221 133.632C397.455 133.549 397.656 133.426 397.826 133.263C397.995 133.097 398.126 132.891 398.218 132.644L399.271 132.94C399.16 133.297 398.974 133.611 398.712 133.882C398.45 134.149 398.127 134.359 397.742 134.509C397.358 134.657 396.925 134.731 396.445 134.731Z" fill="black"/>
<path d="M319.583 170H448.75V221.167C448.75 222.824 447.407 224.167 445.75 224.167H322.583C320.926 224.167 319.583 222.824 319.583 221.167V170Z" fill="#BFBFBF"/>
<path d="M372.829 193.417H369.911V183.962H372.958C373.875 183.962 374.66 184.151 375.313 184.53C375.965 184.905 376.465 185.446 376.813 186.15C377.161 186.852 377.335 187.692 377.335 188.671C377.335 189.656 377.159 190.504 376.808 191.215C376.458 191.922 375.947 192.467 375.276 192.849C374.605 193.227 373.789 193.417 372.829 193.417ZM371.056 192.401H372.755C373.537 192.401 374.185 192.25 374.699 191.949C375.213 191.647 375.596 191.218 375.848 190.661C376.101 190.104 376.227 189.44 376.227 188.671C376.227 187.908 376.102 187.251 375.853 186.7C375.604 186.146 375.231 185.721 374.736 185.426C374.24 185.127 373.623 184.978 372.884 184.978H371.056V192.401ZM381.194 193.583C380.745 193.583 380.337 193.498 379.971 193.329C379.605 193.157 379.314 192.909 379.098 192.586C378.883 192.259 378.775 191.866 378.775 191.404C378.775 190.998 378.855 190.668 379.015 190.416C379.175 190.161 379.389 189.96 379.657 189.816C379.925 189.671 380.22 189.563 380.543 189.493C380.869 189.419 381.197 189.36 381.527 189.317C381.957 189.262 382.307 189.22 382.574 189.193C382.845 189.162 383.042 189.111 383.165 189.04C383.292 188.969 383.355 188.846 383.355 188.671V188.634C383.355 188.179 383.23 187.825 382.981 187.572C382.735 187.32 382.361 187.194 381.859 187.194C381.339 187.194 380.931 187.308 380.636 187.535C380.34 187.763 380.132 188.006 380.012 188.265L378.978 187.895C379.163 187.464 379.409 187.129 379.717 186.889C380.028 186.646 380.366 186.477 380.732 186.381C381.102 186.283 381.465 186.233 381.822 186.233C382.05 186.233 382.311 186.261 382.607 186.317C382.905 186.369 383.193 186.478 383.47 186.644C383.75 186.81 383.982 187.061 384.167 187.397C384.352 187.732 384.444 188.182 384.444 188.745V193.417H383.355V192.456H383.299C383.225 192.61 383.102 192.775 382.93 192.95C382.758 193.126 382.528 193.275 382.242 193.398C381.956 193.521 381.607 193.583 381.194 193.583ZM381.36 192.604C381.791 192.604 382.154 192.52 382.45 192.35C382.748 192.181 382.973 191.962 383.124 191.695C383.278 191.427 383.355 191.145 383.355 190.85V189.853C383.308 189.908 383.207 189.959 383.05 190.005C382.896 190.048 382.718 190.087 382.514 190.121C382.314 190.151 382.119 190.179 381.928 190.204C381.74 190.225 381.588 190.244 381.471 190.259C381.188 190.296 380.923 190.356 380.677 190.439C380.434 190.519 380.237 190.641 380.086 190.804C379.938 190.964 379.865 191.182 379.865 191.459C379.865 191.838 380.005 192.124 380.285 192.318C380.568 192.509 380.926 192.604 381.36 192.604ZM389.516 186.326V187.249H385.842V186.326H389.516ZM386.913 184.627H388.002V191.385C388.002 191.693 388.047 191.924 388.136 192.078C388.228 192.229 388.345 192.33 388.487 192.383C388.632 192.432 388.784 192.456 388.944 192.456C389.064 192.456 389.163 192.45 389.24 192.438C389.316 192.423 389.378 192.41 389.424 192.401L389.646 193.38C389.572 193.407 389.469 193.435 389.336 193.463C389.204 193.494 389.036 193.509 388.833 193.509C388.525 193.509 388.224 193.443 387.928 193.31C387.636 193.178 387.393 192.977 387.199 192.706C387.008 192.435 386.913 192.093 386.913 191.681V184.627ZM393.242 193.583C392.793 193.583 392.385 193.498 392.019 193.329C391.652 193.157 391.362 192.909 391.146 192.586C390.931 192.259 390.823 191.866 390.823 191.404C390.823 190.998 390.903 190.668 391.063 190.416C391.223 190.161 391.437 189.96 391.705 189.816C391.972 189.671 392.268 189.563 392.591 189.493C392.917 189.419 393.245 189.36 393.574 189.317C394.005 189.262 394.355 189.22 394.622 189.193C394.893 189.162 395.09 189.111 395.213 189.04C395.339 188.969 395.403 188.846 395.403 188.671V188.634C395.403 188.179 395.278 187.825 395.029 187.572C394.782 187.32 394.408 187.194 393.907 187.194C393.387 187.194 392.979 187.308 392.683 187.535C392.388 187.763 392.18 188.006 392.06 188.265L391.026 187.895C391.211 187.464 391.457 187.129 391.765 186.889C392.076 186.646 392.414 186.477 392.78 186.381C393.15 186.283 393.513 186.233 393.87 186.233C394.098 186.233 394.359 186.261 394.655 186.317C394.953 186.369 395.241 186.478 395.518 186.644C395.798 186.81 396.03 187.061 396.215 187.397C396.4 187.732 396.492 188.182 396.492 188.745V193.417H395.403V192.456H395.347C395.273 192.61 395.15 192.775 394.978 192.95C394.805 193.126 394.576 193.275 394.29 193.398C394.004 193.521 393.654 193.583 393.242 193.583ZM393.408 192.604C393.839 192.604 394.202 192.52 394.498 192.35C394.796 192.181 395.021 191.962 395.172 191.695C395.326 191.427 395.403 191.145 395.403 190.85V189.853C395.356 189.908 395.255 189.959 395.098 190.005C394.944 190.048 394.765 190.087 394.562 190.121C394.362 190.151 394.167 190.179 393.976 190.204C393.788 190.225 393.636 190.244 393.519 190.259C393.236 190.296 392.971 190.356 392.725 190.439C392.482 190.519 392.285 190.641 392.134 190.804C391.986 190.964 391.912 191.182 391.912 191.459C391.912 191.838 392.052 192.124 392.333 192.318C392.616 192.509 392.974 192.604 393.408 192.604ZM367.353 209.417V199.962H370.548C371.29 199.962 371.896 200.096 372.367 200.364C372.841 200.628 373.192 200.987 373.419 201.439C373.647 201.892 373.761 202.397 373.761 202.954C373.761 203.511 373.647 204.017 373.419 204.472C373.195 204.928 372.847 205.291 372.376 205.562C371.905 205.83 371.302 205.964 370.566 205.964H368.277V204.948H370.529C371.037 204.948 371.445 204.86 371.753 204.685C372.061 204.509 372.284 204.272 372.422 203.974C372.564 203.672 372.635 203.332 372.635 202.954C372.635 202.575 372.564 202.237 372.422 201.938C372.284 201.639 372.059 201.406 371.748 201.236C371.437 201.064 371.025 200.978 370.511 200.978H368.498V209.417H367.353ZM376.547 199.962V209.417H375.458V199.962H376.547ZM380.629 209.583C380.18 209.583 379.772 209.498 379.406 209.329C379.04 209.157 378.749 208.909 378.533 208.586C378.318 208.259 378.21 207.866 378.21 207.404C378.21 206.998 378.29 206.668 378.45 206.416C378.61 206.161 378.824 205.96 379.092 205.816C379.36 205.671 379.655 205.563 379.978 205.493C380.305 205.419 380.632 205.36 380.962 205.317C381.392 205.262 381.742 205.22 382.01 205.193C382.28 205.162 382.477 205.111 382.6 205.04C382.727 204.969 382.79 204.846 382.79 204.671V204.634C382.79 204.179 382.665 203.825 382.416 203.572C382.17 203.32 381.796 203.194 381.294 203.194C380.774 203.194 380.366 203.308 380.071 203.535C379.775 203.763 379.567 204.006 379.447 204.265L378.413 203.895C378.598 203.464 378.844 203.129 379.152 202.889C379.463 202.646 379.801 202.477 380.168 202.381C380.537 202.283 380.9 202.233 381.257 202.233C381.485 202.233 381.746 202.261 382.042 202.317C382.34 202.369 382.628 202.478 382.905 202.644C383.185 202.81 383.418 203.061 383.602 203.397C383.787 203.732 383.879 204.182 383.879 204.745V209.417H382.79V208.456H382.734C382.66 208.61 382.537 208.775 382.365 208.95C382.193 209.126 381.963 209.275 381.677 209.398C381.391 209.521 381.042 209.583 380.629 209.583ZM380.795 208.604C381.226 208.604 381.589 208.52 381.885 208.35C382.183 208.181 382.408 207.962 382.559 207.695C382.713 207.427 382.79 207.145 382.79 206.85V205.853C382.744 205.908 382.642 205.959 382.485 206.005C382.331 206.048 382.153 206.087 381.95 206.121C381.749 206.151 381.554 206.179 381.363 206.204C381.175 206.225 381.023 206.244 380.906 206.259C380.623 206.296 380.358 206.356 380.112 206.439C379.869 206.519 379.672 206.641 379.521 206.804C379.374 206.964 379.3 207.182 379.3 207.459C379.3 207.838 379.44 208.124 379.72 208.318C380.003 208.509 380.361 208.604 380.795 208.604ZM386.957 205.151V209.417H385.868V202.326H386.92V203.434H387.013C387.179 203.074 387.431 202.784 387.77 202.566C388.108 202.344 388.545 202.233 389.081 202.233C389.561 202.233 389.981 202.332 390.341 202.529C390.701 202.723 390.981 203.018 391.181 203.415C391.381 203.809 391.481 204.308 391.481 204.911V209.417H390.392V204.985C390.392 204.428 390.247 203.994 389.958 203.683C389.669 203.369 389.272 203.212 388.767 203.212C388.419 203.212 388.108 203.288 387.834 203.438C387.564 203.589 387.35 203.809 387.193 204.098C387.036 204.388 386.957 204.739 386.957 205.151ZM396.445 209.564C395.762 209.564 395.173 209.414 394.677 209.112C394.185 208.807 393.805 208.383 393.537 207.838C393.272 207.29 393.14 206.653 393.14 205.927C393.14 205.2 393.272 204.56 393.537 204.006C393.805 203.449 394.177 203.015 394.654 202.704C395.134 202.39 395.694 202.233 396.334 202.233C396.704 202.233 397.068 202.295 397.429 202.418C397.789 202.541 398.116 202.741 398.412 203.018C398.707 203.292 398.943 203.655 399.118 204.108C399.294 204.56 399.381 205.117 399.381 205.779V206.241H393.915V205.299H398.273C398.273 204.899 398.193 204.542 398.033 204.228C397.876 203.914 397.652 203.666 397.359 203.484C397.07 203.303 396.728 203.212 396.334 203.212C395.901 203.212 395.525 203.32 395.208 203.535C394.894 203.748 394.653 204.025 394.483 204.366C394.314 204.708 394.229 205.074 394.229 205.465V206.093C394.229 206.628 394.322 207.082 394.506 207.455C394.694 207.824 394.954 208.106 395.287 208.299C395.619 208.49 396.005 208.586 396.445 208.586C396.731 208.586 396.99 208.546 397.221 208.466C397.455 208.383 397.656 208.259 397.826 208.096C397.995 207.93 398.126 207.724 398.218 207.478L399.271 207.773C399.16 208.13 398.974 208.444 398.712 208.715C398.45 208.983 398.127 209.192 397.742 209.343C397.358 209.491 396.925 209.564 396.445 209.564Z" fill="black"/>
</svg>
