<svg width="425" height="338" viewBox="0 0 425 338" fill="none" xmlns="http://www.w3.org/2000/svg">
<rect x="129" y="1" width="167" height="88" rx="4" stroke="#FFC000" stroke-width="2"/>
<path d="M148 21C148 19.3431 149.343 18 151 18H274.167C275.824 18 277.167 19.3431 277.167 21V72.1667H148V21Z" fill="#00B0F0"/>
<path d="M197.539 34.9167H196.394C196.326 34.5873 196.208 34.298 196.038 34.0488C195.872 33.7995 195.669 33.5902 195.429 33.4209C195.192 33.2486 194.929 33.1193 194.64 33.0331C194.35 32.947 194.049 32.9039 193.735 32.9039C193.162 32.9039 192.644 33.0485 192.179 33.3378C191.717 33.6271 191.35 34.0534 191.076 34.6166C190.805 35.1798 190.669 35.8707 190.669 36.6894C190.669 37.508 190.805 38.199 191.076 38.7622C191.35 39.3254 191.717 39.7516 192.179 40.0409C192.644 40.3302 193.162 40.4749 193.735 40.4749C194.049 40.4749 194.35 40.4318 194.64 40.3456C194.929 40.2595 195.192 40.1317 195.429 39.9625C195.669 39.7901 195.872 39.5793 196.038 39.33C196.208 39.0776 196.326 38.7883 196.394 38.4621H197.539C197.453 38.9453 197.296 39.3777 197.068 39.7593C196.84 40.141 196.557 40.4657 196.218 40.7334C195.88 40.9981 195.5 41.1997 195.078 41.3382C194.66 41.4767 194.212 41.5459 193.735 41.5459C192.928 41.5459 192.211 41.3489 191.584 40.955C190.956 40.5611 190.462 40.0009 190.102 39.2746C189.742 38.5483 189.562 37.6865 189.562 36.6894C189.562 35.6922 189.742 34.8305 190.102 34.1042C190.462 33.3778 190.956 32.8177 191.584 32.4238C192.211 32.0298 192.928 31.8328 193.735 31.8328C194.212 31.8328 194.66 31.9021 195.078 32.0406C195.5 32.1791 195.88 32.3822 196.218 32.65C196.557 32.9146 196.84 33.2378 197.068 33.6194C197.296 33.998 197.453 34.4304 197.539 34.9167ZM201.328 41.5828C200.878 41.5828 200.471 41.4982 200.104 41.3289C199.738 41.1566 199.447 40.9088 199.232 40.5857C199.016 40.2595 198.909 39.8655 198.909 39.4039C198.909 38.9976 198.989 38.6683 199.149 38.4159C199.309 38.1605 199.523 37.9605 199.79 37.8158C200.058 37.6712 200.354 37.5634 200.677 37.4927C201.003 37.4188 201.331 37.3603 201.66 37.3172C202.091 37.2618 202.44 37.2203 202.708 37.1926C202.979 37.1618 203.176 37.111 203.299 37.0402C203.425 36.9694 203.488 36.8463 203.488 36.6709V36.634C203.488 36.1785 203.364 35.8246 203.114 35.5722C202.868 35.3198 202.494 35.1936 201.993 35.1936C201.472 35.1936 201.065 35.3075 200.769 35.5353C200.474 35.763 200.266 36.0061 200.146 36.2647L199.112 35.8953C199.297 35.4645 199.543 35.129 199.851 34.889C200.161 34.6458 200.5 34.4766 200.866 34.3811C201.235 34.2827 201.599 34.2334 201.956 34.2334C202.183 34.2334 202.445 34.2611 202.74 34.3165C203.039 34.3688 203.327 34.4781 203.604 34.6443C203.884 34.8105 204.116 35.0613 204.301 35.3968C204.485 35.7322 204.578 36.1816 204.578 36.7448V41.4167H203.488V40.4564H203.433C203.359 40.6103 203.236 40.775 203.064 40.9504C202.891 41.1258 202.662 41.2751 202.376 41.3982C202.09 41.5213 201.74 41.5828 201.328 41.5828ZM201.494 40.6042C201.925 40.6042 202.288 40.5195 202.583 40.3503C202.882 40.181 203.107 39.9625 203.257 39.6947C203.411 39.427 203.488 39.1453 203.488 38.8499V37.8527C203.442 37.9081 203.341 37.9589 203.184 38.0051C203.03 38.0482 202.851 38.0866 202.648 38.1205C202.448 38.1513 202.253 38.179 202.062 38.2036C201.874 38.2251 201.722 38.2436 201.605 38.259C201.322 38.2959 201.057 38.3559 200.811 38.439C200.568 38.519 200.371 38.6406 200.22 38.8037C200.072 38.9638 199.998 39.1823 199.998 39.4593C199.998 39.8378 200.138 40.124 200.418 40.3179C200.701 40.5087 201.06 40.6042 201.494 40.6042ZM209.65 34.3257V35.249H205.975V34.3257H209.65ZM207.046 32.6269H208.136V39.3854C208.136 39.6932 208.181 39.924 208.27 40.0779C208.362 40.2287 208.479 40.3302 208.621 40.3826C208.765 40.4318 208.918 40.4564 209.078 40.4564C209.198 40.4564 209.296 40.4503 209.373 40.438C209.45 40.4226 209.512 40.4103 209.558 40.401L209.779 41.3797C209.706 41.4074 209.602 41.4351 209.47 41.4628C209.338 41.4936 209.17 41.509 208.967 41.509C208.659 41.509 208.358 41.4428 208.062 41.3105C207.77 41.1781 207.527 40.9766 207.333 40.7057C207.142 40.4349 207.046 40.0933 207.046 39.6809V32.6269ZM213.376 41.5828C212.926 41.5828 212.519 41.4982 212.152 41.3289C211.786 41.1566 211.495 40.9088 211.28 40.5857C211.064 40.2595 210.957 39.8655 210.957 39.4039C210.957 38.9976 211.037 38.6683 211.197 38.4159C211.357 38.1605 211.571 37.9605 211.838 37.8158C212.106 37.6712 212.402 37.5634 212.725 37.4927C213.051 37.4188 213.379 37.3603 213.708 37.3172C214.139 37.2618 214.488 37.2203 214.756 37.1926C215.027 37.1618 215.224 37.111 215.347 37.0402C215.473 36.9694 215.536 36.8463 215.536 36.6709V36.634C215.536 36.1785 215.412 35.8246 215.162 35.5722C214.916 35.3198 214.542 35.1936 214.04 35.1936C213.52 35.1936 213.112 35.3075 212.817 35.5353C212.522 35.763 212.314 36.0061 212.194 36.2647L211.16 35.8953C211.344 35.4645 211.591 35.129 211.898 34.889C212.209 34.6458 212.548 34.4766 212.914 34.3811C213.283 34.2827 213.646 34.2334 214.003 34.2334C214.231 34.2334 214.493 34.2611 214.788 34.3165C215.087 34.3688 215.375 34.4781 215.652 34.6443C215.932 34.8105 216.164 35.0613 216.349 35.3968C216.533 35.7322 216.626 36.1816 216.626 36.7448V41.4167H215.536V40.4564H215.481C215.407 40.6103 215.284 40.775 215.111 40.9504C214.939 41.1258 214.71 41.2751 214.424 41.3982C214.137 41.5213 213.788 41.5828 213.376 41.5828ZM213.542 40.6042C213.973 40.6042 214.336 40.5195 214.631 40.3503C214.93 40.181 215.155 39.9625 215.305 39.6947C215.459 39.427 215.536 39.1453 215.536 38.8499V37.8527C215.49 37.9081 215.388 37.9589 215.231 38.0051C215.078 38.0482 214.899 38.0866 214.696 38.1205C214.496 38.1513 214.3 38.179 214.11 38.2036C213.922 38.2251 213.77 38.2436 213.653 38.259C213.369 38.2959 213.105 38.3559 212.859 38.439C212.615 38.519 212.418 38.6406 212.268 38.8037C212.12 38.9638 212.046 39.1823 212.046 39.4593C212.046 39.8378 212.186 40.124 212.466 40.3179C212.749 40.5087 213.108 40.6042 213.542 40.6042ZM219.704 31.9621V41.4167H218.614V31.9621H219.704ZM224.58 41.5644C223.94 41.5644 223.378 41.412 222.895 41.1074C222.415 40.8027 222.039 40.3764 221.768 39.8286C221.501 39.2808 221.367 38.6406 221.367 37.9081C221.367 37.1695 221.501 36.5247 221.768 35.9738C222.039 35.4229 222.415 34.9951 222.895 34.6904C223.378 34.3858 223.94 34.2334 224.58 34.2334C225.22 34.2334 225.78 34.3858 226.26 34.6904C226.743 34.9951 227.119 35.4229 227.387 35.9738C227.657 36.5247 227.793 37.1695 227.793 37.9081C227.793 38.6406 227.657 39.2808 227.387 39.8286C227.119 40.3764 226.743 40.8027 226.26 41.1074C225.78 41.412 225.22 41.5644 224.58 41.5644ZM224.58 40.5857C225.066 40.5857 225.466 40.461 225.78 40.2118C226.094 39.9625 226.326 39.6347 226.477 39.2284C226.628 38.8222 226.703 38.3821 226.703 37.9081C226.703 37.4342 226.628 36.9925 226.477 36.5832C226.326 36.1739 226.094 35.843 225.78 35.5907C225.466 35.3383 225.066 35.2121 224.58 35.2121C224.094 35.2121 223.693 35.3383 223.38 35.5907C223.066 35.843 222.833 36.1739 222.682 36.5832C222.532 36.9925 222.456 37.4342 222.456 37.9081C222.456 38.3821 222.532 38.8222 222.682 39.2284C222.833 39.6347 223.066 39.9625 223.38 40.2118C223.693 40.461 224.094 40.5857 224.58 40.5857ZM232.318 44.2235C231.792 44.2235 231.34 44.1558 230.961 44.0203C230.582 43.888 230.267 43.7126 230.015 43.4941C229.765 43.2786 229.567 43.0478 229.419 42.8016L230.287 42.1922C230.385 42.3215 230.51 42.4692 230.661 42.6354C230.812 42.8047 231.018 42.9509 231.279 43.074C231.544 43.2002 231.89 43.2632 232.318 43.2632C232.891 43.2632 233.363 43.1248 233.735 42.8478C234.108 42.5708 234.294 42.1368 234.294 41.5459V40.1056H234.202C234.122 40.2348 234.008 40.3949 233.86 40.5857C233.715 40.7734 233.506 40.9412 233.232 41.0889C232.961 41.2335 232.595 41.3059 232.134 41.3059C231.561 41.3059 231.047 41.1704 230.592 40.8996C230.139 40.6288 229.781 40.2348 229.516 39.7178C229.254 39.2007 229.124 38.5729 229.124 37.8343C229.124 37.1079 229.251 36.4755 229.507 35.9369C229.762 35.3952 230.118 34.9767 230.573 34.6812C231.029 34.3827 231.555 34.2334 232.152 34.2334C232.614 34.2334 232.98 34.3104 233.251 34.4642C233.525 34.615 233.734 34.7874 233.879 34.9813C234.026 35.1721 234.14 35.3291 234.22 35.4522H234.331V34.3257H235.384V41.6198C235.384 42.2292 235.245 42.7247 234.968 43.1063C234.694 43.491 234.325 43.7726 233.86 43.9511C233.398 44.1327 232.884 44.2235 232.318 44.2235ZM232.281 40.3272C232.718 40.3272 233.088 40.2271 233.389 40.0271C233.691 39.827 233.92 39.5393 234.077 39.1638C234.234 38.7883 234.313 38.339 234.313 37.8158C234.313 37.3049 234.236 36.854 234.082 36.4632C233.928 36.0723 233.7 35.7661 233.398 35.5445C233.097 35.3229 232.724 35.2121 232.281 35.2121C231.82 35.2121 231.435 35.3291 231.127 35.563C230.822 35.7969 230.593 36.1108 230.439 36.5047C230.288 36.8987 230.213 37.3357 230.213 37.8158C230.213 38.3082 230.29 38.7437 230.444 39.1223C230.601 39.4977 230.832 39.7932 231.136 40.0086C231.444 40.221 231.826 40.3272 232.281 40.3272ZM198.751 50.3257C198.696 49.8579 198.471 49.4948 198.077 49.2363C197.683 48.9777 197.2 48.8485 196.628 48.8485C196.209 48.8485 195.843 48.9162 195.529 49.0516C195.218 49.187 194.975 49.3732 194.8 49.6102C194.627 49.8472 194.541 50.1165 194.541 50.4181C194.541 50.6704 194.601 50.8874 194.721 51.069C194.844 51.2475 195.001 51.3968 195.192 51.5168C195.383 51.6337 195.583 51.7307 195.792 51.8076C196.001 51.8815 196.194 51.9415 196.369 51.9877L197.329 52.2462C197.576 52.3108 197.849 52.4001 198.151 52.514C198.456 52.6278 198.747 52.7833 199.024 52.9802C199.304 53.1741 199.534 53.4234 199.716 53.7281C199.898 54.0328 199.988 54.4067 199.988 54.8499C199.988 55.3608 199.855 55.8224 199.587 56.2348C199.322 56.6472 198.934 56.975 198.423 57.2181C197.916 57.4613 197.299 57.5828 196.572 57.5828C195.895 57.5828 195.309 57.4736 194.813 57.2551C194.321 57.0366 193.933 56.7319 193.65 56.341C193.37 55.9502 193.211 55.4962 193.175 54.9792H194.356C194.387 55.3362 194.507 55.6316 194.716 55.8655C194.929 56.0963 195.197 56.2687 195.52 56.3826C195.846 56.4934 196.197 56.5488 196.572 56.5488C197.009 56.5488 197.402 56.478 197.749 56.3364C198.097 56.1918 198.373 55.9917 198.576 55.7363C198.779 55.4777 198.88 55.1761 198.88 54.8314C198.88 54.5175 198.793 54.2621 198.617 54.0651C198.442 53.8681 198.211 53.7081 197.925 53.585C197.639 53.4619 197.329 53.3542 196.997 53.2618L195.834 52.9294C195.095 52.7171 194.51 52.4139 194.079 52.02C193.648 51.6261 193.433 51.1105 193.433 50.4735C193.433 49.9441 193.576 49.4825 193.862 49.0885C194.152 48.6915 194.539 48.3837 195.026 48.1652C195.515 47.9436 196.061 47.8328 196.665 47.8328C197.274 47.8328 197.816 47.9421 198.29 48.1606C198.764 48.3761 199.139 48.6715 199.416 49.047C199.696 49.4225 199.844 49.8487 199.859 50.3257H198.751ZM204.696 57.5644C204.013 57.5644 203.423 57.4136 202.928 57.112C202.436 56.8073 202.055 56.3826 201.788 55.8378C201.523 55.29 201.391 54.6529 201.391 53.9266C201.391 53.2003 201.523 52.5601 201.788 52.0061C202.055 51.4491 202.428 51.0151 202.905 50.7043C203.385 50.3904 203.945 50.2334 204.585 50.2334C204.955 50.2334 205.319 50.295 205.679 50.4181C206.039 50.5412 206.367 50.7412 206.663 51.0182C206.958 51.2921 207.194 51.6553 207.369 52.1077C207.544 52.5601 207.632 53.1172 207.632 53.7789V54.2405H202.166V53.2988H206.524C206.524 52.8987 206.444 52.5417 206.284 52.2277C206.127 51.9138 205.903 51.6661 205.61 51.4845C205.321 51.3029 204.979 51.2121 204.585 51.2121C204.151 51.2121 203.776 51.3198 203.459 51.5353C203.145 51.7476 202.903 52.0246 202.734 52.3662C202.565 52.7078 202.48 53.0741 202.48 53.465V54.0928C202.48 54.6283 202.573 55.0823 202.757 55.4547C202.945 55.824 203.205 56.1056 203.537 56.2995C203.87 56.4903 204.256 56.5857 204.696 56.5857C204.982 56.5857 205.241 56.5457 205.472 56.4657C205.706 56.3826 205.907 56.2595 206.076 56.0963C206.246 55.9302 206.376 55.7239 206.469 55.4777L207.521 55.7732C207.411 56.1302 207.224 56.4441 206.963 56.715C206.701 56.9827 206.378 57.192 205.993 57.3428C205.609 57.4905 205.176 57.5644 204.696 57.5644ZM209.289 57.4167V50.3257H210.342V51.3968H210.416C210.545 51.0459 210.779 50.7612 211.118 50.5427C211.456 50.3242 211.838 50.215 212.262 50.215C212.343 50.215 212.443 50.2165 212.563 50.2196C212.683 50.2226 212.773 50.2273 212.835 50.2334V51.3414C212.798 51.3321 212.713 51.3183 212.581 51.2998C212.452 51.2783 212.315 51.2675 212.17 51.2675C211.825 51.2675 211.518 51.3398 211.247 51.4845C210.979 51.6261 210.767 51.823 210.61 52.0754C210.456 52.3247 210.379 52.6094 210.379 52.9294V57.4167H209.289ZM220.141 50.3257L217.518 57.4167H216.41L213.788 50.3257H214.97L216.927 55.9763H217.001L218.959 50.3257H220.141ZM224.298 57.5644C223.614 57.5644 223.025 57.4136 222.53 57.112C222.037 56.8073 221.657 56.3826 221.389 55.8378C221.125 55.29 220.992 54.6529 220.992 53.9266C220.992 53.2003 221.125 52.5601 221.389 52.0061C221.657 51.4491 222.029 51.0151 222.506 50.7043C222.987 50.3904 223.547 50.2334 224.187 50.2334C224.556 50.2334 224.921 50.295 225.281 50.4181C225.641 50.5412 225.969 50.7412 226.264 51.0182C226.56 51.2921 226.795 51.6553 226.971 52.1077C227.146 52.5601 227.234 53.1172 227.234 53.7789V54.2405H221.768V53.2988H226.126C226.126 52.8987 226.046 52.5417 225.886 52.2277C225.729 51.9138 225.504 51.6661 225.212 51.4845C224.922 51.3029 224.581 51.2121 224.187 51.2121C223.753 51.2121 223.377 51.3198 223.06 51.5353C222.747 51.7476 222.505 52.0246 222.336 52.3662C222.166 52.7078 222.082 53.0741 222.082 53.465V54.0928C222.082 54.6283 222.174 55.0823 222.359 55.4547C222.546 55.824 222.807 56.1056 223.139 56.2995C223.471 56.4903 223.858 56.5857 224.298 56.5857C224.584 56.5857 224.842 56.5457 225.073 56.4657C225.307 56.3826 225.509 56.2595 225.678 56.0963C225.847 55.9302 225.978 55.7239 226.07 55.4777L227.123 55.7732C227.012 56.1302 226.826 56.4441 226.564 56.715C226.303 56.9827 225.98 57.192 225.595 57.3428C225.21 57.4905 224.778 57.5644 224.298 57.5644ZM228.891 57.4167V50.3257H229.944V51.3968H230.017C230.147 51.0459 230.381 50.7612 230.719 50.5427C231.058 50.3242 231.439 50.215 231.864 50.215C231.944 50.215 232.044 50.2165 232.164 50.2196C232.284 50.2226 232.375 50.2273 232.436 50.2334V51.3414C232.4 51.3321 232.315 51.3183 232.183 51.2998C232.053 51.2783 231.916 51.2675 231.772 51.2675C231.427 51.2675 231.119 51.3398 230.848 51.4845C230.581 51.6261 230.368 51.823 230.211 52.0754C230.057 52.3247 229.981 52.6094 229.981 52.9294V57.4167H228.891Z" fill="white"/>
<rect x="1" y="149" width="198" height="188" rx="4" stroke="#FFC000" stroke-width="2"/>
<path d="M35.4167 188.833C35.4167 187.176 36.7598 185.833 38.4167 185.833H161.583C163.24 185.833 164.583 187.176 164.583 188.833V242.083H35.4167V188.833Z" fill="#00EFB5"/>
<path d="M85.2087 202.75H84.0639C83.9961 202.421 83.8777 202.131 83.7084 201.882C83.5422 201.633 83.3391 201.424 83.099 201.254C82.862 201.082 82.5989 200.953 82.3096 200.866C82.0203 200.78 81.7187 200.737 81.4048 200.737C80.8323 200.737 80.3137 200.882 79.849 201.171C79.3874 201.46 79.0196 201.887 78.7457 202.45C78.4748 203.013 78.3394 203.704 78.3394 204.523C78.3394 205.341 78.4748 206.032 78.7457 206.596C79.0196 207.159 79.3874 207.585 79.849 207.874C80.3137 208.164 80.8323 208.308 81.4048 208.308C81.7187 208.308 82.0203 208.265 82.3096 208.179C82.5989 208.093 82.862 207.965 83.099 207.796C83.3391 207.623 83.5422 207.413 83.7084 207.163C83.8777 206.911 83.9961 206.622 84.0639 206.295H85.2087C85.1226 206.779 84.9656 207.211 84.7379 207.593C84.5101 207.974 84.227 208.299 83.8884 208.567C83.5499 208.831 83.1698 209.033 82.7482 209.172C82.3296 209.31 81.8818 209.379 81.4048 209.379C80.5984 209.379 79.8813 209.182 79.2535 208.788C78.6256 208.394 78.1317 207.834 77.7716 207.108C77.4115 206.382 77.2315 205.52 77.2315 204.523C77.2315 203.526 77.4115 202.664 77.7716 201.938C78.1317 201.211 78.6256 200.651 79.2535 200.257C79.8813 199.863 80.5984 199.666 81.4048 199.666C81.8818 199.666 82.3296 199.735 82.7482 199.874C83.1698 200.012 83.5499 200.216 83.8884 200.483C84.227 200.748 84.5101 201.071 84.7379 201.453C84.9656 201.831 85.1226 202.264 85.2087 202.75ZM89.7917 209.398C89.1516 209.398 88.5899 209.245 88.1067 208.941C87.6266 208.636 87.2511 208.21 86.9803 207.662C86.7126 207.114 86.5787 206.474 86.5787 205.741C86.5787 205.003 86.7126 204.358 86.9803 203.807C87.2511 203.256 87.6266 202.828 88.1067 202.524C88.5899 202.219 89.1516 202.067 89.7917 202.067C90.4319 202.067 90.992 202.219 91.4721 202.524C91.9553 202.828 92.3308 203.256 92.5986 203.807C92.8694 204.358 93.0048 205.003 93.0048 205.741C93.0048 206.474 92.8694 207.114 92.5986 207.662C92.3308 208.21 91.9553 208.636 91.4721 208.941C90.992 209.245 90.4319 209.398 89.7917 209.398ZM89.7917 208.419C90.278 208.419 90.6781 208.294 90.992 208.045C91.3059 207.796 91.5383 207.468 91.6891 207.062C91.8399 206.656 91.9153 206.215 91.9153 205.741C91.9153 205.268 91.8399 204.826 91.6891 204.417C91.5383 204.007 91.3059 203.676 90.992 203.424C90.6781 203.172 90.278 203.045 89.7917 203.045C89.3055 203.045 88.9054 203.172 88.5915 203.424C88.2775 203.676 88.0452 204.007 87.8944 204.417C87.7436 204.826 87.6682 205.268 87.6682 205.741C87.6682 206.215 87.7436 206.656 87.8944 207.062C88.0452 207.468 88.2775 207.796 88.5915 208.045C88.9054 208.294 89.3055 208.419 89.7917 208.419ZM95.7574 204.984V209.25H94.6679V202.159H95.7205V203.267H95.8128C95.979 202.907 96.2313 202.618 96.5699 202.399C96.9084 202.178 97.3455 202.067 97.881 202.067C98.3611 202.067 98.7812 202.165 99.1413 202.362C99.5014 202.556 99.7814 202.852 99.9815 203.249C100.182 203.643 100.282 204.141 100.282 204.744V209.25H99.192V204.818C99.192 204.261 99.0474 203.827 98.7581 203.516C98.4688 203.202 98.0718 203.045 97.567 203.045C97.2193 203.045 96.9084 203.121 96.6345 203.272C96.3637 203.422 96.1498 203.643 95.9928 203.932C95.8359 204.221 95.7574 204.572 95.7574 204.984ZM105.356 202.159V203.082H101.681V202.159H105.356ZM102.753 200.46H103.842V207.219C103.842 207.527 103.887 207.757 103.976 207.911C104.068 208.062 104.185 208.164 104.327 208.216C104.471 208.265 104.624 208.29 104.784 208.29C104.904 208.29 105.002 208.284 105.079 208.271C105.156 208.256 105.218 208.244 105.264 208.234L105.485 209.213C105.412 209.241 105.308 209.268 105.176 209.296C105.044 209.327 104.876 209.342 104.673 209.342C104.365 209.342 104.064 209.276 103.768 209.144C103.476 209.011 103.233 208.81 103.039 208.539C102.848 208.268 102.753 207.927 102.753 207.514V200.46ZM106.995 209.25V202.159H108.048V203.23H108.121C108.251 202.879 108.485 202.595 108.823 202.376C109.162 202.158 109.543 202.048 109.968 202.048C110.048 202.048 110.148 202.05 110.268 202.053C110.388 202.056 110.479 202.061 110.541 202.067V203.175C110.504 203.165 110.419 203.152 110.287 203.133C110.157 203.112 110.02 203.101 109.876 203.101C109.531 203.101 109.223 203.173 108.952 203.318C108.685 203.459 108.472 203.656 108.315 203.909C108.161 204.158 108.085 204.443 108.085 204.763V209.25H106.995ZM114.497 209.398C113.857 209.398 113.295 209.245 112.812 208.941C112.332 208.636 111.956 208.21 111.685 207.662C111.418 207.114 111.284 206.474 111.284 205.741C111.284 205.003 111.418 204.358 111.685 203.807C111.956 203.256 112.332 202.828 112.812 202.524C113.295 202.219 113.857 202.067 114.497 202.067C115.137 202.067 115.697 202.219 116.177 202.524C116.66 202.828 117.036 203.256 117.304 203.807C117.574 204.358 117.71 205.003 117.71 205.741C117.71 206.474 117.574 207.114 117.304 207.662C117.036 208.21 116.66 208.636 116.177 208.941C115.697 209.245 115.137 209.398 114.497 209.398ZM114.497 208.419C114.983 208.419 115.383 208.294 115.697 208.045C116.011 207.796 116.243 207.468 116.394 207.062C116.545 206.656 116.62 206.215 116.62 205.741C116.62 205.268 116.545 204.826 116.394 204.417C116.243 204.007 116.011 203.676 115.697 203.424C115.383 203.172 114.983 203.045 114.497 203.045C114.011 203.045 113.61 203.172 113.297 203.424C112.983 203.676 112.75 204.007 112.599 204.417C112.449 204.826 112.373 205.268 112.373 205.741C112.373 206.215 112.449 206.656 112.599 207.062C112.75 207.468 112.983 207.796 113.297 208.045C113.61 208.294 114.011 208.419 114.497 208.419ZM120.462 199.795V209.25H119.373V199.795H120.462ZM83.1867 225.25V215.795H86.3813C87.123 215.795 87.7293 215.929 88.2002 216.197C88.6742 216.462 89.025 216.82 89.2528 217.273C89.4805 217.725 89.5944 218.23 89.5944 218.787C89.5944 219.344 89.4805 219.85 89.2528 220.306C89.0281 220.761 88.6803 221.124 88.2094 221.395C87.7386 221.663 87.1353 221.797 86.3998 221.797H84.11V220.781H86.3629C86.8707 220.781 87.2785 220.694 87.5862 220.518C87.894 220.343 88.1171 220.106 88.2556 219.807C88.3972 219.506 88.468 219.165 88.468 218.787C88.468 218.408 88.3972 218.07 88.2556 217.771C88.1171 217.473 87.8924 217.239 87.5816 217.07C87.2708 216.897 86.8584 216.811 86.3444 216.811H84.3316V225.25H83.1867ZM92.3804 215.795V225.25H91.2909V215.795H92.3804ZM96.4626 225.416C96.0132 225.416 95.6054 225.332 95.2392 225.162C94.8729 224.99 94.5821 224.742 94.3667 224.419C94.1512 224.093 94.0435 223.699 94.0435 223.237C94.0435 222.831 94.1235 222.502 94.2836 222.249C94.4436 221.994 94.6575 221.794 94.9253 221.649C95.193 221.504 95.4885 221.397 95.8116 221.326C96.1379 221.252 96.4656 221.194 96.7949 221.151C97.2258 221.095 97.5751 221.054 97.8429 221.026C98.1137 220.995 98.3107 220.944 98.4338 220.874C98.56 220.803 98.6231 220.68 98.6231 220.504V220.467C98.6231 220.012 98.4984 219.658 98.2491 219.406C98.0029 219.153 97.629 219.027 97.1273 219.027C96.6072 219.027 96.1994 219.141 95.904 219.369C95.6085 219.596 95.4008 219.839 95.2807 220.098L94.2466 219.729C94.4313 219.298 94.6775 218.962 94.9853 218.722C95.2961 218.479 95.6347 218.31 96.0009 218.214C96.3702 218.116 96.7334 218.067 97.0904 218.067C97.3181 218.067 97.5797 218.094 97.8752 218.15C98.1737 218.202 98.4615 218.311 98.7385 218.478C99.0185 218.644 99.2509 218.895 99.4356 219.23C99.6202 219.566 99.7126 220.015 99.7126 220.578V225.25H98.6231V224.29H98.5677C98.4938 224.444 98.3707 224.608 98.1984 224.784C98.026 224.959 97.7967 225.108 97.5105 225.232C97.2243 225.355 96.875 225.416 96.4626 225.416ZM96.6287 224.438C97.0596 224.438 97.4228 224.353 97.7182 224.184C98.0168 224.014 98.2414 223.796 98.3922 223.528C98.5461 223.26 98.6231 222.979 98.6231 222.683V221.686C98.5769 221.741 98.4753 221.792 98.3184 221.838C98.1645 221.882 97.986 221.92 97.7829 221.954C97.5828 221.985 97.3874 222.012 97.1966 222.037C97.0088 222.058 96.8565 222.077 96.7395 222.092C96.4564 222.129 96.1917 222.189 95.9455 222.272C95.7024 222.352 95.5054 222.474 95.3546 222.637C95.2069 222.797 95.133 223.016 95.133 223.293C95.133 223.671 95.273 223.957 95.5531 224.151C95.8363 224.342 96.1948 224.438 96.6287 224.438ZM102.791 220.984V225.25H101.701V218.159H102.754V219.267H102.846C103.012 218.907 103.265 218.618 103.603 218.399C103.942 218.178 104.379 218.067 104.914 218.067C105.394 218.067 105.814 218.165 106.174 218.362C106.535 218.556 106.815 218.852 107.015 219.249C107.215 219.643 107.315 220.141 107.315 220.744V225.25H106.225V220.818C106.225 220.261 106.081 219.827 105.791 219.516C105.502 219.202 105.105 219.045 104.6 219.045C104.252 219.045 103.942 219.121 103.668 219.272C103.397 219.422 103.183 219.643 103.026 219.932C102.869 220.221 102.791 220.572 102.791 220.984ZM112.279 225.398C111.595 225.398 111.006 225.247 110.51 224.945C110.018 224.641 109.638 224.216 109.37 223.671C109.106 223.123 108.973 222.486 108.973 221.76C108.973 221.034 109.106 220.393 109.37 219.839C109.638 219.282 110.01 218.848 110.487 218.538C110.968 218.224 111.528 218.067 112.168 218.067C112.537 218.067 112.902 218.128 113.262 218.251C113.622 218.375 113.95 218.575 114.245 218.852C114.541 219.125 114.776 219.489 114.952 219.941C115.127 220.393 115.215 220.951 115.215 221.612V222.074H109.749V221.132H114.107C114.107 220.732 114.027 220.375 113.867 220.061C113.71 219.747 113.485 219.499 113.193 219.318C112.903 219.136 112.562 219.045 112.168 219.045C111.734 219.045 111.358 219.153 111.041 219.369C110.727 219.581 110.486 219.858 110.317 220.2C110.147 220.541 110.063 220.907 110.063 221.298V221.926C110.063 222.462 110.155 222.916 110.34 223.288C110.527 223.657 110.787 223.939 111.12 224.133C111.452 224.324 111.839 224.419 112.279 224.419C112.565 224.419 112.823 224.379 113.054 224.299C113.288 224.216 113.49 224.093 113.659 223.93C113.828 223.763 113.959 223.557 114.051 223.311L115.104 223.607C114.993 223.964 114.807 224.277 114.545 224.548C114.284 224.816 113.961 225.025 113.576 225.176C113.191 225.324 112.759 225.398 112.279 225.398Z" fill="black"/>
<path d="M35.4167 242.083H164.583V293.25C164.583 294.907 163.24 296.25 161.583 296.25H38.4167C36.7598 296.25 35.4167 294.907 35.4167 293.25V242.083Z" fill="#BFBFBF"/>
<path d="M88.6624 265.5H85.7448V256.045H88.7917C89.7088 256.045 90.4936 256.235 91.1461 256.613C91.7986 256.989 92.2987 257.529 92.6465 258.234C92.9942 258.935 93.1681 259.776 93.1681 260.754C93.1681 261.739 92.9927 262.587 92.6418 263.298C92.291 264.006 91.7801 264.551 91.1092 264.932C90.4382 265.311 89.6227 265.5 88.6624 265.5ZM86.8897 264.484H88.5886C89.3703 264.484 90.0181 264.334 90.5321 264.032C91.0461 263.73 91.4292 263.301 91.6816 262.744C91.934 262.187 92.0602 261.524 92.0602 260.754C92.0602 259.991 91.9355 259.334 91.6862 258.783C91.4369 258.229 91.0645 257.804 90.569 257.509C90.0735 257.21 89.4565 257.061 88.7178 257.061H86.8897V264.484ZM97.0275 265.666C96.5782 265.666 96.1704 265.582 95.8041 265.412C95.4379 265.24 95.1471 264.992 94.9316 264.669C94.7162 264.343 94.6085 263.949 94.6085 263.487C94.6085 263.081 94.6885 262.752 94.8485 262.499C95.0086 262.244 95.2225 262.044 95.4902 261.899C95.758 261.754 96.0534 261.647 96.3766 261.576C96.7028 261.502 97.0306 261.444 97.3599 261.401C97.7908 261.345 98.1401 261.304 98.4078 261.276C98.6787 261.245 98.8756 261.194 98.9987 261.124C99.1249 261.053 99.188 260.93 99.188 260.754V260.717C99.188 260.262 99.0634 259.908 98.8141 259.656C98.5679 259.403 98.1939 259.277 97.6923 259.277C97.1721 259.277 96.7644 259.391 96.4689 259.619C96.1734 259.846 95.9657 260.089 95.8457 260.348L94.8116 259.979C94.9962 259.548 95.2425 259.212 95.5502 258.972C95.8611 258.729 96.1996 258.56 96.5658 258.464C96.9352 258.366 97.2983 258.317 97.6553 258.317C97.8831 258.317 98.1447 258.344 98.4401 258.4C98.7387 258.452 99.0264 258.561 99.3034 258.728C99.5835 258.894 99.8158 259.145 100.001 259.48C100.185 259.816 100.277 260.265 100.277 260.828V265.5H99.188V264.54H99.1326C99.0587 264.694 98.9356 264.858 98.7633 265.034C98.5909 265.209 98.3617 265.358 98.0754 265.482C97.7892 265.605 97.4399 265.666 97.0275 265.666ZM97.1937 264.688C97.6246 264.688 97.9877 264.603 98.2832 264.434C98.5817 264.264 98.8064 264.046 98.9572 263.778C99.1111 263.51 99.188 263.229 99.188 262.933V261.936C99.1418 261.991 99.0403 262.042 98.8833 262.088C98.7294 262.132 98.5509 262.17 98.3478 262.204C98.1478 262.235 97.9523 262.262 97.7615 262.287C97.5738 262.308 97.4214 262.327 97.3045 262.342C97.0213 262.379 96.7567 262.439 96.5105 262.522C96.2673 262.602 96.0703 262.724 95.9195 262.887C95.7718 263.047 95.698 263.266 95.698 263.543C95.698 263.921 95.838 264.207 96.1181 264.401C96.4012 264.592 96.7597 264.688 97.1937 264.688ZM105.35 258.409V259.332H101.675V258.409H105.35ZM102.746 256.71H103.836V263.469C103.836 263.777 103.88 264.007 103.97 264.161C104.062 264.312 104.179 264.414 104.32 264.466C104.465 264.515 104.617 264.54 104.777 264.54C104.897 264.54 104.996 264.534 105.073 264.521C105.15 264.506 105.211 264.494 105.258 264.484L105.479 265.463C105.405 265.491 105.302 265.518 105.17 265.546C105.037 265.577 104.87 265.592 104.667 265.592C104.359 265.592 104.057 265.526 103.762 265.394C103.469 265.261 103.226 265.06 103.032 264.789C102.842 264.518 102.746 264.177 102.746 263.764V256.71ZM109.075 265.666C108.626 265.666 108.218 265.582 107.852 265.412C107.486 265.24 107.195 264.992 106.979 264.669C106.764 264.343 106.656 263.949 106.656 263.487C106.656 263.081 106.736 262.752 106.896 262.499C107.056 262.244 107.27 262.044 107.538 261.899C107.806 261.754 108.101 261.647 108.424 261.576C108.751 261.502 109.078 261.444 109.408 261.401C109.839 261.345 110.188 261.304 110.456 261.276C110.727 261.245 110.923 261.194 111.047 261.124C111.173 261.053 111.236 260.93 111.236 260.754V260.717C111.236 260.262 111.111 259.908 110.862 259.656C110.616 259.403 110.242 259.277 109.74 259.277C109.22 259.277 108.812 259.391 108.517 259.619C108.221 259.846 108.014 260.089 107.894 260.348L106.859 259.979C107.044 259.548 107.29 259.212 107.598 258.972C107.909 258.729 108.247 258.56 108.614 258.464C108.983 258.366 109.346 258.317 109.703 258.317C109.931 258.317 110.193 258.344 110.488 258.4C110.787 258.452 111.074 258.561 111.351 258.728C111.631 258.894 111.864 259.145 112.048 259.48C112.233 259.816 112.325 260.265 112.325 260.828V265.5H111.236V264.54H111.18C111.107 264.694 110.983 264.858 110.811 265.034C110.639 265.209 110.41 265.358 110.123 265.482C109.837 265.605 109.488 265.666 109.075 265.666ZM109.242 264.688C109.672 264.688 110.036 264.603 110.331 264.434C110.63 264.264 110.854 264.046 111.005 263.778C111.159 263.51 111.236 263.229 111.236 262.933V261.936C111.19 261.991 111.088 262.042 110.931 262.088C110.777 262.132 110.599 262.17 110.396 262.204C110.196 262.235 110 262.262 109.809 262.287C109.622 262.308 109.469 262.327 109.352 262.342C109.069 262.379 108.805 262.439 108.558 262.522C108.315 262.602 108.118 262.724 107.967 262.887C107.82 263.047 107.746 263.266 107.746 263.543C107.746 263.921 107.886 264.207 108.166 264.401C108.449 264.592 108.808 264.688 109.242 264.688ZM83.1867 281.5V272.045H86.3813C87.123 272.045 87.7293 272.179 88.2002 272.447C88.6742 272.712 89.025 273.07 89.2528 273.523C89.4805 273.975 89.5944 274.48 89.5944 275.037C89.5944 275.594 89.4805 276.1 89.2528 276.556C89.0281 277.011 88.6803 277.374 88.2094 277.645C87.7386 277.913 87.1353 278.047 86.3998 278.047H84.11V277.031H86.3629C86.8707 277.031 87.2785 276.944 87.5862 276.768C87.894 276.593 88.1171 276.356 88.2556 276.057C88.3972 275.756 88.468 275.415 88.468 275.037C88.468 274.658 88.3972 274.32 88.2556 274.021C88.1171 273.723 87.8924 273.489 87.5816 273.32C87.2708 273.147 86.8584 273.061 86.3444 273.061H84.3316V281.5H83.1867ZM92.3804 272.045V281.5H91.2909V272.045H92.3804ZM96.4626 281.666C96.0132 281.666 95.6054 281.582 95.2392 281.412C94.8729 281.24 94.5821 280.992 94.3667 280.669C94.1512 280.343 94.0435 279.949 94.0435 279.487C94.0435 279.081 94.1235 278.752 94.2836 278.499C94.4436 278.244 94.6575 278.044 94.9253 277.899C95.193 277.754 95.4885 277.647 95.8116 277.576C96.1379 277.502 96.4656 277.444 96.7949 277.401C97.2258 277.345 97.5751 277.304 97.8429 277.276C98.1137 277.245 98.3107 277.194 98.4338 277.124C98.56 277.053 98.6231 276.93 98.6231 276.754V276.717C98.6231 276.262 98.4984 275.908 98.2491 275.656C98.0029 275.403 97.629 275.277 97.1273 275.277C96.6072 275.277 96.1994 275.391 95.904 275.619C95.6085 275.846 95.4008 276.089 95.2807 276.348L94.2466 275.979C94.4313 275.548 94.6775 275.212 94.9853 274.972C95.2961 274.729 95.6347 274.56 96.0009 274.464C96.3702 274.366 96.7334 274.317 97.0904 274.317C97.3181 274.317 97.5797 274.344 97.8752 274.4C98.1737 274.452 98.4615 274.561 98.7385 274.728C99.0185 274.894 99.2509 275.145 99.4356 275.48C99.6202 275.816 99.7126 276.265 99.7126 276.828V281.5H98.6231V280.54H98.5677C98.4938 280.694 98.3707 280.858 98.1984 281.034C98.026 281.209 97.7967 281.358 97.5105 281.482C97.2243 281.605 96.875 281.666 96.4626 281.666ZM96.6287 280.688C97.0596 280.688 97.4228 280.603 97.7182 280.434C98.0168 280.264 98.2414 280.046 98.3922 279.778C98.5461 279.51 98.6231 279.229 98.6231 278.933V277.936C98.5769 277.991 98.4753 278.042 98.3184 278.088C98.1645 278.132 97.986 278.17 97.7829 278.204C97.5828 278.235 97.3874 278.262 97.1966 278.287C97.0088 278.308 96.8565 278.327 96.7395 278.342C96.4564 278.379 96.1917 278.439 95.9455 278.522C95.7024 278.602 95.5054 278.724 95.3546 278.887C95.2069 279.047 95.133 279.266 95.133 279.543C95.133 279.921 95.273 280.207 95.5531 280.401C95.8363 280.592 96.1948 280.688 96.6287 280.688ZM102.791 277.234V281.5H101.701V274.409H102.754V275.517H102.846C103.012 275.157 103.265 274.868 103.603 274.649C103.942 274.428 104.379 274.317 104.914 274.317C105.394 274.317 105.814 274.415 106.174 274.612C106.535 274.806 106.815 275.102 107.015 275.499C107.215 275.893 107.315 276.391 107.315 276.994V281.5H106.225V277.068C106.225 276.511 106.081 276.077 105.791 275.766C105.502 275.452 105.105 275.295 104.6 275.295C104.252 275.295 103.942 275.371 103.668 275.522C103.397 275.672 103.183 275.893 103.026 276.182C102.869 276.471 102.791 276.822 102.791 277.234ZM112.279 281.648C111.595 281.648 111.006 281.497 110.51 281.195C110.018 280.891 109.638 280.466 109.37 279.921C109.106 279.373 108.973 278.736 108.973 278.01C108.973 277.284 109.106 276.643 109.37 276.089C109.638 275.532 110.01 275.098 110.487 274.788C110.968 274.474 111.528 274.317 112.168 274.317C112.537 274.317 112.902 274.378 113.262 274.501C113.622 274.625 113.95 274.825 114.245 275.102C114.541 275.375 114.776 275.739 114.952 276.191C115.127 276.643 115.215 277.201 115.215 277.862V278.324H109.749V277.382H114.107C114.107 276.982 114.027 276.625 113.867 276.311C113.71 275.997 113.485 275.749 113.193 275.568C112.903 275.386 112.562 275.295 112.168 275.295C111.734 275.295 111.358 275.403 111.041 275.619C110.727 275.831 110.486 276.108 110.317 276.45C110.147 276.791 110.063 277.157 110.063 277.548V278.176C110.063 278.712 110.155 279.166 110.34 279.538C110.527 279.907 110.787 280.189 111.12 280.383C111.452 280.574 111.839 280.669 112.279 280.669C112.565 280.669 112.823 280.629 113.054 280.549C113.288 280.466 113.49 280.343 113.659 280.18C113.828 280.013 113.959 279.807 114.051 279.561L115.104 279.857C114.993 280.214 114.807 280.527 114.545 280.798C114.284 281.066 113.961 281.275 113.576 281.426C113.191 281.574 112.759 281.648 112.279 281.648Z" fill="black"/>
<rect x="226" y="149" width="198" height="188" rx="4" stroke="#FFC000" stroke-width="2"/>
<path d="M260.417 188.833C260.417 187.176 261.76 185.833 263.417 185.833H386.583C388.24 185.833 389.583 187.176 389.583 188.833V242.083H260.417V188.833Z" fill="#00EFB5"/>
<path d="M310.209 202.75H309.064C308.996 202.421 308.878 202.131 308.708 201.882C308.542 201.633 308.339 201.424 308.099 201.254C307.862 201.082 307.599 200.953 307.31 200.866C307.02 200.78 306.719 200.737 306.405 200.737C305.832 200.737 305.314 200.882 304.849 201.171C304.387 201.46 304.02 201.887 303.746 202.45C303.475 203.013 303.339 203.704 303.339 204.523C303.339 205.341 303.475 206.032 303.746 206.596C304.02 207.159 304.387 207.585 304.849 207.874C305.314 208.164 305.832 208.308 306.405 208.308C306.719 208.308 307.02 208.265 307.31 208.179C307.599 208.093 307.862 207.965 308.099 207.796C308.339 207.623 308.542 207.413 308.708 207.163C308.878 206.911 308.996 206.622 309.064 206.295H310.209C310.123 206.779 309.966 207.211 309.738 207.593C309.51 207.974 309.227 208.299 308.888 208.567C308.55 208.831 308.17 209.033 307.748 209.172C307.33 209.31 306.882 209.379 306.405 209.379C305.598 209.379 304.881 209.182 304.253 208.788C303.626 208.394 303.132 207.834 302.772 207.108C302.411 206.382 302.231 205.52 302.231 204.523C302.231 203.526 302.411 202.664 302.772 201.938C303.132 201.211 303.626 200.651 304.253 200.257C304.881 199.863 305.598 199.666 306.405 199.666C306.882 199.666 307.33 199.735 307.748 199.874C308.17 200.012 308.55 200.216 308.888 200.483C309.227 200.748 309.51 201.071 309.738 201.453C309.966 201.831 310.123 202.264 310.209 202.75ZM314.792 209.398C314.152 209.398 313.59 209.245 313.107 208.941C312.627 208.636 312.251 208.21 311.98 207.662C311.713 207.114 311.579 206.474 311.579 205.741C311.579 205.003 311.713 204.358 311.98 203.807C312.251 203.256 312.627 202.828 313.107 202.524C313.59 202.219 314.152 202.067 314.792 202.067C315.432 202.067 315.992 202.219 316.472 202.524C316.955 202.828 317.331 203.256 317.599 203.807C317.869 204.358 318.005 205.003 318.005 205.741C318.005 206.474 317.869 207.114 317.599 207.662C317.331 208.21 316.955 208.636 316.472 208.941C315.992 209.245 315.432 209.398 314.792 209.398ZM314.792 208.419C315.278 208.419 315.678 208.294 315.992 208.045C316.306 207.796 316.538 207.468 316.689 207.062C316.84 206.656 316.915 206.215 316.915 205.741C316.915 205.268 316.84 204.826 316.689 204.417C316.538 204.007 316.306 203.676 315.992 203.424C315.678 203.172 315.278 203.045 314.792 203.045C314.305 203.045 313.905 203.172 313.591 203.424C313.278 203.676 313.045 204.007 312.894 204.417C312.744 204.826 312.668 205.268 312.668 205.741C312.668 206.215 312.744 206.656 312.894 207.062C313.045 207.468 313.278 207.796 313.591 208.045C313.905 208.294 314.305 208.419 314.792 208.419ZM320.757 204.984V209.25H319.668V202.159H320.72V203.267H320.813C320.979 202.907 321.231 202.618 321.57 202.399C321.908 202.178 322.345 202.067 322.881 202.067C323.361 202.067 323.781 202.165 324.141 202.362C324.501 202.556 324.781 202.852 324.981 203.249C325.181 203.643 325.282 204.141 325.282 204.744V209.25H324.192V204.818C324.192 204.261 324.047 203.827 323.758 203.516C323.469 203.202 323.072 203.045 322.567 203.045C322.219 203.045 321.908 203.121 321.635 203.272C321.364 203.422 321.15 203.643 320.993 203.932C320.836 204.221 320.757 204.572 320.757 204.984ZM330.356 202.159V203.082H326.681V202.159H330.356ZM327.752 200.46H328.842V207.219C328.842 207.527 328.887 207.757 328.976 207.911C329.068 208.062 329.185 208.164 329.327 208.216C329.471 208.265 329.624 208.29 329.784 208.29C329.904 208.29 330.002 208.284 330.079 208.271C330.156 208.256 330.218 208.244 330.264 208.234L330.485 209.213C330.412 209.241 330.308 209.268 330.176 209.296C330.044 209.327 329.876 209.342 329.673 209.342C329.365 209.342 329.064 209.276 328.768 209.144C328.476 209.011 328.233 208.81 328.039 208.539C327.848 208.268 327.752 207.927 327.752 207.514V200.46ZM331.995 209.25V202.159H333.048V203.23H333.121C333.251 202.879 333.485 202.595 333.823 202.376C334.162 202.158 334.543 202.048 334.968 202.048C335.048 202.048 335.148 202.05 335.268 202.053C335.388 202.056 335.479 202.061 335.54 202.067V203.175C335.504 203.165 335.419 203.152 335.287 203.133C335.157 203.112 335.02 203.101 334.876 203.101C334.531 203.101 334.223 203.173 333.952 203.318C333.685 203.459 333.472 203.656 333.315 203.909C333.161 204.158 333.085 204.443 333.085 204.763V209.25H331.995ZM339.497 209.398C338.857 209.398 338.295 209.245 337.812 208.941C337.332 208.636 336.956 208.21 336.685 207.662C336.418 207.114 336.284 206.474 336.284 205.741C336.284 205.003 336.418 204.358 336.685 203.807C336.956 203.256 337.332 202.828 337.812 202.524C338.295 202.219 338.857 202.067 339.497 202.067C340.137 202.067 340.697 202.219 341.177 202.524C341.66 202.828 342.036 203.256 342.304 203.807C342.574 204.358 342.71 205.003 342.71 205.741C342.71 206.474 342.574 207.114 342.304 207.662C342.036 208.21 341.66 208.636 341.177 208.941C340.697 209.245 340.137 209.398 339.497 209.398ZM339.497 208.419C339.983 208.419 340.383 208.294 340.697 208.045C341.011 207.796 341.243 207.468 341.394 207.062C341.545 206.656 341.62 206.215 341.62 205.741C341.62 205.268 341.545 204.826 341.394 204.417C341.243 204.007 341.011 203.676 340.697 203.424C340.383 203.172 339.983 203.045 339.497 203.045C339.011 203.045 338.61 203.172 338.297 203.424C337.983 203.676 337.75 204.007 337.599 204.417C337.449 204.826 337.373 205.268 337.373 205.741C337.373 206.215 337.449 206.656 337.599 207.062C337.75 207.468 337.983 207.796 338.297 208.045C338.61 208.294 339.011 208.419 339.497 208.419ZM345.462 199.795V209.25H344.373V199.795H345.462ZM308.187 225.25V215.795H311.381C312.123 215.795 312.729 215.929 313.2 216.197C313.674 216.462 314.025 216.82 314.253 217.273C314.481 217.725 314.594 218.23 314.594 218.787C314.594 219.344 314.481 219.85 314.253 220.306C314.028 220.761 313.68 221.124 313.209 221.395C312.739 221.663 312.135 221.797 311.4 221.797H309.11V220.781H311.363C311.871 220.781 312.278 220.694 312.586 220.518C312.894 220.343 313.117 220.106 313.256 219.807C313.397 219.506 313.468 219.165 313.468 218.787C313.468 218.408 313.397 218.07 313.256 217.771C313.117 217.473 312.892 217.239 312.582 217.07C312.271 216.897 311.858 216.811 311.344 216.811H309.332V225.25H308.187ZM317.38 215.795V225.25H316.291V215.795H317.38ZM321.463 225.416C321.013 225.416 320.605 225.332 320.239 225.162C319.873 224.99 319.582 224.742 319.367 224.419C319.151 224.093 319.044 223.699 319.044 223.237C319.044 222.831 319.124 222.502 319.284 222.249C319.444 221.994 319.657 221.794 319.925 221.649C320.193 221.504 320.488 221.397 320.812 221.326C321.138 221.252 321.466 221.194 321.795 221.151C322.226 221.095 322.575 221.054 322.843 221.026C323.114 220.995 323.311 220.944 323.434 220.874C323.56 220.803 323.623 220.68 323.623 220.504V220.467C323.623 220.012 323.498 219.658 323.249 219.406C323.003 219.153 322.629 219.027 322.127 219.027C321.607 219.027 321.199 219.141 320.904 219.369C320.608 219.596 320.401 219.839 320.281 220.098L319.247 219.729C319.431 219.298 319.678 218.962 319.985 218.722C320.296 218.479 320.635 218.31 321.001 218.214C321.37 218.116 321.733 218.067 322.09 218.067C322.318 218.067 322.58 218.094 322.875 218.15C323.174 218.202 323.461 218.311 323.738 218.478C324.019 218.644 324.251 218.895 324.436 219.23C324.62 219.566 324.713 220.015 324.713 220.578V225.25H323.623V224.29H323.568C323.494 224.444 323.371 224.608 323.198 224.784C323.026 224.959 322.797 225.108 322.51 225.232C322.224 225.355 321.875 225.416 321.463 225.416ZM321.629 224.438C322.06 224.438 322.423 224.353 322.718 224.184C323.017 224.014 323.241 223.796 323.392 223.528C323.546 223.26 323.623 222.979 323.623 222.683V221.686C323.577 221.741 323.475 221.792 323.318 221.838C323.164 221.882 322.986 221.92 322.783 221.954C322.583 221.985 322.387 222.012 322.197 222.037C322.009 222.058 321.856 222.077 321.74 222.092C321.456 222.129 321.192 222.189 320.945 222.272C320.702 222.352 320.505 222.474 320.355 222.637C320.207 222.797 320.133 223.016 320.133 223.293C320.133 223.671 320.273 223.957 320.553 224.151C320.836 224.342 321.195 224.438 321.629 224.438ZM327.791 220.984V225.25H326.701V218.159H327.754V219.267H327.846C328.012 218.907 328.265 218.618 328.603 218.399C328.942 218.178 329.379 218.067 329.914 218.067C330.394 218.067 330.814 218.165 331.174 218.362C331.535 218.556 331.815 218.852 332.015 219.249C332.215 219.643 332.315 220.141 332.315 220.744V225.25H331.225V220.818C331.225 220.261 331.081 219.827 330.791 219.516C330.502 219.202 330.105 219.045 329.6 219.045C329.252 219.045 328.942 219.121 328.668 219.272C328.397 219.422 328.183 219.643 328.026 219.932C327.869 220.221 327.791 220.572 327.791 220.984ZM337.279 225.398C336.595 225.398 336.006 225.247 335.51 224.945C335.018 224.641 334.638 224.216 334.37 223.671C334.106 223.123 333.973 222.486 333.973 221.76C333.973 221.034 334.106 220.393 334.37 219.839C334.638 219.282 335.01 218.848 335.487 218.538C335.968 218.224 336.528 218.067 337.168 218.067C337.537 218.067 337.902 218.128 338.262 218.251C338.622 218.375 338.95 218.575 339.245 218.852C339.541 219.125 339.776 219.489 339.952 219.941C340.127 220.393 340.215 220.951 340.215 221.612V222.074H334.749V221.132H339.107C339.107 220.732 339.027 220.375 338.867 220.061C338.71 219.747 338.485 219.499 338.193 219.318C337.903 219.136 337.562 219.045 337.168 219.045C336.734 219.045 336.358 219.153 336.041 219.369C335.727 219.581 335.486 219.858 335.317 220.2C335.147 220.541 335.063 220.907 335.063 221.298V221.926C335.063 222.462 335.155 222.916 335.34 223.288C335.527 223.657 335.787 223.939 336.12 224.133C336.452 224.324 336.838 224.419 337.279 224.419C337.565 224.419 337.823 224.379 338.054 224.299C338.288 224.216 338.49 224.093 338.659 223.93C338.828 223.763 338.959 223.557 339.051 223.311L340.104 223.607C339.993 223.964 339.807 224.277 339.545 224.548C339.284 224.816 338.961 225.025 338.576 225.176C338.191 225.324 337.759 225.398 337.279 225.398Z" fill="black"/>
<path d="M260.417 242.083H389.583V293.25C389.583 294.907 388.24 296.25 386.583 296.25H263.417C261.76 296.25 260.417 294.907 260.417 293.25V242.083Z" fill="#BFBFBF"/>
<path d="M313.662 265.5H310.745V256.045H313.792C314.709 256.045 315.494 256.235 316.146 256.613C316.799 256.989 317.299 257.529 317.646 258.234C317.994 258.935 318.168 259.776 318.168 260.754C318.168 261.739 317.993 262.587 317.642 263.298C317.291 264.006 316.78 264.551 316.109 264.932C315.438 265.311 314.623 265.5 313.662 265.5ZM311.89 264.484H313.589C314.37 264.484 315.018 264.334 315.532 264.032C316.046 263.73 316.429 263.301 316.682 262.744C316.934 262.187 317.06 261.524 317.06 260.754C317.06 259.991 316.936 259.334 316.686 258.783C316.437 258.229 316.065 257.804 315.569 257.509C315.074 257.21 314.456 257.061 313.718 257.061H311.89V264.484ZM322.027 265.666C321.578 265.666 321.17 265.582 320.804 265.412C320.438 265.24 320.147 264.992 319.932 264.669C319.716 264.343 319.608 263.949 319.608 263.487C319.608 263.081 319.688 262.752 319.849 262.499C320.009 262.244 320.222 262.044 320.49 261.899C320.758 261.754 321.053 261.647 321.377 261.576C321.703 261.502 322.031 261.444 322.36 261.401C322.791 261.345 323.14 261.304 323.408 261.276C323.679 261.245 323.876 261.194 323.999 261.124C324.125 261.053 324.188 260.93 324.188 260.754V260.717C324.188 260.262 324.063 259.908 323.814 259.656C323.568 259.403 323.194 259.277 322.692 259.277C322.172 259.277 321.764 259.391 321.469 259.619C321.173 259.846 320.966 260.089 320.846 260.348L319.812 259.979C319.996 259.548 320.242 259.212 320.55 258.972C320.861 258.729 321.2 258.56 321.566 258.464C321.935 258.366 322.298 258.317 322.655 258.317C322.883 258.317 323.145 258.344 323.44 258.4C323.739 258.452 324.026 258.561 324.303 258.728C324.583 258.894 324.816 259.145 325 259.48C325.185 259.816 325.277 260.265 325.277 260.828V265.5H324.188V264.54H324.133C324.059 264.694 323.936 264.858 323.763 265.034C323.591 265.209 323.362 265.358 323.075 265.482C322.789 265.605 322.44 265.666 322.027 265.666ZM322.194 264.688C322.625 264.688 322.988 264.603 323.283 264.434C323.582 264.264 323.806 264.046 323.957 263.778C324.111 263.51 324.188 263.229 324.188 262.933V261.936C324.142 261.991 324.04 262.042 323.883 262.088C323.729 262.132 323.551 262.17 323.348 262.204C323.148 262.235 322.952 262.262 322.762 262.287C322.574 262.308 322.421 262.327 322.304 262.342C322.021 262.379 321.757 262.439 321.51 262.522C321.267 262.602 321.07 262.724 320.92 262.887C320.772 263.047 320.698 263.266 320.698 263.543C320.698 263.921 320.838 264.207 321.118 264.401C321.401 264.592 321.76 264.688 322.194 264.688ZM330.35 258.409V259.332H326.675V258.409H330.35ZM327.746 256.71H328.836V263.469C328.836 263.777 328.88 264.007 328.97 264.161C329.062 264.312 329.179 264.414 329.32 264.466C329.465 264.515 329.617 264.54 329.777 264.54C329.897 264.54 329.996 264.534 330.073 264.521C330.15 264.506 330.211 264.494 330.258 264.484L330.479 265.463C330.405 265.491 330.302 265.518 330.17 265.546C330.037 265.577 329.87 265.592 329.667 265.592C329.359 265.592 329.057 265.526 328.762 265.394C328.469 265.261 328.226 265.06 328.032 264.789C327.842 264.518 327.746 264.177 327.746 263.764V256.71ZM334.075 265.666C333.626 265.666 333.218 265.582 332.852 265.412C332.486 265.24 332.195 264.992 331.979 264.669C331.764 264.343 331.656 263.949 331.656 263.487C331.656 263.081 331.736 262.752 331.896 262.499C332.056 262.244 332.27 262.044 332.538 261.899C332.806 261.754 333.101 261.647 333.424 261.576C333.751 261.502 334.078 261.444 334.408 261.401C334.839 261.345 335.188 261.304 335.456 261.276C335.726 261.245 335.923 261.194 336.047 261.124C336.173 261.053 336.236 260.93 336.236 260.754V260.717C336.236 260.262 336.111 259.908 335.862 259.656C335.616 259.403 335.242 259.277 334.74 259.277C334.22 259.277 333.812 259.391 333.517 259.619C333.221 259.846 333.014 260.089 332.894 260.348L331.859 259.979C332.044 259.548 332.29 259.212 332.598 258.972C332.909 258.729 333.247 258.56 333.614 258.464C333.983 258.366 334.346 258.317 334.703 258.317C334.931 258.317 335.193 258.344 335.488 258.4C335.787 258.452 336.074 258.561 336.351 258.728C336.631 258.894 336.864 259.145 337.048 259.48C337.233 259.816 337.325 260.265 337.325 260.828V265.5H336.236V264.54H336.18C336.107 264.694 335.983 264.858 335.811 265.034C335.639 265.209 335.409 265.358 335.123 265.482C334.837 265.605 334.488 265.666 334.075 265.666ZM334.242 264.688C334.672 264.688 335.036 264.603 335.331 264.434C335.63 264.264 335.854 264.046 336.005 263.778C336.159 263.51 336.236 263.229 336.236 262.933V261.936C336.19 261.991 336.088 262.042 335.931 262.088C335.777 262.132 335.599 262.17 335.396 262.204C335.196 262.235 335 262.262 334.809 262.287C334.622 262.308 334.469 262.327 334.352 262.342C334.069 262.379 333.804 262.439 333.558 262.522C333.315 262.602 333.118 262.724 332.967 262.887C332.82 263.047 332.746 263.266 332.746 263.543C332.746 263.921 332.886 264.207 333.166 264.401C333.449 264.592 333.808 264.688 334.242 264.688ZM308.187 281.5V272.045H311.381C312.123 272.045 312.729 272.179 313.2 272.447C313.674 272.712 314.025 273.07 314.253 273.523C314.481 273.975 314.594 274.48 314.594 275.037C314.594 275.594 314.481 276.1 314.253 276.556C314.028 277.011 313.68 277.374 313.209 277.645C312.739 277.913 312.135 278.047 311.4 278.047H309.11V277.031H311.363C311.871 277.031 312.278 276.944 312.586 276.768C312.894 276.593 313.117 276.356 313.256 276.057C313.397 275.756 313.468 275.415 313.468 275.037C313.468 274.658 313.397 274.32 313.256 274.021C313.117 273.723 312.892 273.489 312.582 273.32C312.271 273.147 311.858 273.061 311.344 273.061H309.332V281.5H308.187ZM317.38 272.045V281.5H316.291V272.045H317.38ZM321.463 281.666C321.013 281.666 320.605 281.582 320.239 281.412C319.873 281.24 319.582 280.992 319.367 280.669C319.151 280.343 319.044 279.949 319.044 279.487C319.044 279.081 319.124 278.752 319.284 278.499C319.444 278.244 319.657 278.044 319.925 277.899C320.193 277.754 320.488 277.647 320.812 277.576C321.138 277.502 321.466 277.444 321.795 277.401C322.226 277.345 322.575 277.304 322.843 277.276C323.114 277.245 323.311 277.194 323.434 277.124C323.56 277.053 323.623 276.93 323.623 276.754V276.717C323.623 276.262 323.498 275.908 323.249 275.656C323.003 275.403 322.629 275.277 322.127 275.277C321.607 275.277 321.199 275.391 320.904 275.619C320.608 275.846 320.401 276.089 320.281 276.348L319.247 275.979C319.431 275.548 319.678 275.212 319.985 274.972C320.296 274.729 320.635 274.56 321.001 274.464C321.37 274.366 321.733 274.317 322.09 274.317C322.318 274.317 322.58 274.344 322.875 274.4C323.174 274.452 323.461 274.561 323.738 274.728C324.019 274.894 324.251 275.145 324.436 275.48C324.62 275.816 324.713 276.265 324.713 276.828V281.5H323.623V280.54H323.568C323.494 280.694 323.371 280.858 323.198 281.034C323.026 281.209 322.797 281.358 322.51 281.482C322.224 281.605 321.875 281.666 321.463 281.666ZM321.629 280.688C322.06 280.688 322.423 280.603 322.718 280.434C323.017 280.264 323.241 280.046 323.392 279.778C323.546 279.51 323.623 279.229 323.623 278.933V277.936C323.577 277.991 323.475 278.042 323.318 278.088C323.164 278.132 322.986 278.17 322.783 278.204C322.583 278.235 322.387 278.262 322.197 278.287C322.009 278.308 321.856 278.327 321.74 278.342C321.456 278.379 321.192 278.439 320.945 278.522C320.702 278.602 320.505 278.724 320.355 278.887C320.207 279.047 320.133 279.266 320.133 279.543C320.133 279.921 320.273 280.207 320.553 280.401C320.836 280.592 321.195 280.688 321.629 280.688ZM327.791 277.234V281.5H326.701V274.409H327.754V275.517H327.846C328.012 275.157 328.265 274.868 328.603 274.649C328.942 274.428 329.379 274.317 329.914 274.317C330.394 274.317 330.814 274.415 331.174 274.612C331.535 274.806 331.815 275.102 332.015 275.499C332.215 275.893 332.315 276.391 332.315 276.994V281.5H331.225V277.068C331.225 276.511 331.081 276.077 330.791 275.766C330.502 275.452 330.105 275.295 329.6 275.295C329.252 275.295 328.942 275.371 328.668 275.522C328.397 275.672 328.183 275.893 328.026 276.182C327.869 276.471 327.791 276.822 327.791 277.234ZM337.279 281.648C336.595 281.648 336.006 281.497 335.51 281.195C335.018 280.891 334.638 280.466 334.37 279.921C334.106 279.373 333.973 278.736 333.973 278.01C333.973 277.284 334.106 276.643 334.37 276.089C334.638 275.532 335.01 275.098 335.487 274.788C335.968 274.474 336.528 274.317 337.168 274.317C337.537 274.317 337.902 274.378 338.262 274.501C338.622 274.625 338.95 274.825 339.245 275.102C339.541 275.375 339.776 275.739 339.952 276.191C340.127 276.643 340.215 277.201 340.215 277.862V278.324H334.749V277.382H339.107C339.107 276.982 339.027 276.625 338.867 276.311C338.71 275.997 338.485 275.749 338.193 275.568C337.903 275.386 337.562 275.295 337.168 275.295C336.734 275.295 336.358 275.403 336.041 275.619C335.727 275.831 335.486 276.108 335.317 276.45C335.147 276.791 335.063 277.157 335.063 277.548V278.176C335.063 278.712 335.155 279.166 335.34 279.538C335.527 279.907 335.787 280.189 336.12 280.383C336.452 280.574 336.838 280.669 337.279 280.669C337.565 280.669 337.823 280.629 338.054 280.549C338.288 280.466 338.49 280.343 338.659 280.18C338.828 280.013 338.959 279.807 339.051 279.561L340.104 279.857C339.993 280.214 339.807 280.527 339.545 280.798C339.284 281.066 338.961 281.275 338.576 281.426C338.191 281.574 337.759 281.648 337.279 281.648Z" fill="black"/>
<path d="M148 134L159.221 131.276L151.251 122.92L148 134ZM212.31 71.2764L153.822 127.064L155.203 128.512L213.69 72.7236L212.31 71.2764Z" fill="#00B0F0"/>
<path d="M278 134L266.779 131.276L274.749 122.92L278 134ZM213.69 71.2764L272.178 127.064L270.797 128.512L212.31 72.7236L213.69 71.2764Z" fill="#00B0F0"/>
</svg>
