<svg width="425" height="371" viewBox="0 0 425 371" fill="none" xmlns="http://www.w3.org/2000/svg">
<path d="M149 3C149 1.34315 150.343 0 152 0H275.167C276.824 0 278.167 1.34315 278.167 3V54.1667H149V3Z" fill="#00B0F0"/>
<path d="M200.49 23.4167V13.9621H203.685C204.424 13.9621 205.03 14.0883 205.504 14.3407C205.978 14.59 206.329 14.9331 206.556 15.3701C206.784 15.8072 206.898 16.3042 206.898 16.8613C206.898 17.4183 206.784 17.9123 206.556 18.3431C206.329 18.774 205.979 19.1126 205.509 19.3588C205.038 19.6019 204.436 19.7235 203.703 19.7235H201.118V18.6894H203.667C204.171 18.6894 204.578 18.6155 204.885 18.4678C205.196 18.3201 205.421 18.1108 205.559 17.84C205.701 17.566 205.772 17.2398 205.772 16.8613C205.772 16.4827 205.701 16.1519 205.559 15.8687C205.418 15.5856 205.192 15.3671 204.881 15.2132C204.57 15.0562 204.159 14.9777 203.648 14.9777H201.635V23.4167H200.49ZM204.941 19.1695L207.267 23.4167H205.938L203.648 19.1695H204.941ZM211.463 23.5644C210.822 23.5644 210.261 23.412 209.778 23.1074C209.298 22.8027 208.922 22.3764 208.651 21.8286C208.383 21.2808 208.25 20.6406 208.25 19.9081C208.25 19.1695 208.383 18.5247 208.651 17.9738C208.922 17.4229 209.298 16.9951 209.778 16.6904C210.261 16.3858 210.822 16.2334 211.463 16.2334C212.103 16.2334 212.663 16.3858 213.143 16.6904C213.626 16.9951 214.002 17.4229 214.269 17.9738C214.54 18.5247 214.676 19.1695 214.676 19.9081C214.676 20.6406 214.54 21.2808 214.269 21.8286C214.002 22.3764 213.626 22.8027 213.143 23.1074C212.663 23.412 212.103 23.5644 211.463 23.5644ZM211.463 22.5857C211.949 22.5857 212.349 22.461 212.663 22.2118C212.977 21.9625 213.209 21.6347 213.36 21.2284C213.511 20.8222 213.586 20.3821 213.586 19.9081C213.586 19.4342 213.511 18.9925 213.36 18.5832C213.209 18.1739 212.977 17.843 212.663 17.5907C212.349 17.3383 211.949 17.2121 211.463 17.2121C210.976 17.2121 210.576 17.3383 210.262 17.5907C209.948 17.843 209.716 18.1739 209.565 18.5832C209.414 18.9925 209.339 19.4342 209.339 19.9081C209.339 20.3821 209.414 20.8222 209.565 21.2284C209.716 21.6347 209.948 21.9625 210.262 22.2118C210.576 22.461 210.976 22.5857 211.463 22.5857ZM219.219 23.5644C218.579 23.5644 218.018 23.412 217.534 23.1074C217.054 22.8027 216.679 22.3764 216.408 21.8286C216.14 21.2808 216.006 20.6406 216.006 19.9081C216.006 19.1695 216.14 18.5247 216.408 17.9738C216.679 17.4229 217.054 16.9951 217.534 16.6904C218.018 16.3858 218.579 16.2334 219.219 16.2334C219.86 16.2334 220.42 16.3858 220.9 16.6904C221.383 16.9951 221.759 17.4229 222.026 17.9738C222.297 18.5247 222.433 19.1695 222.433 19.9081C222.433 20.6406 222.297 21.2808 222.026 21.8286C221.759 22.3764 221.383 22.8027 220.9 23.1074C220.42 23.412 219.86 23.5644 219.219 23.5644ZM219.219 22.5857C219.706 22.5857 220.106 22.461 220.42 22.2118C220.734 21.9625 220.966 21.6347 221.117 21.2284C221.268 20.8222 221.343 20.3821 221.343 19.9081C221.343 19.4342 221.268 18.9925 221.117 18.5832C220.966 18.1739 220.734 17.843 220.42 17.5907C220.106 17.3383 219.706 17.2121 219.219 17.2121C218.733 17.2121 218.333 17.3383 218.019 17.5907C217.705 17.843 217.473 18.1739 217.322 18.5832C217.171 18.9925 217.096 19.4342 217.096 19.9081C217.096 20.3821 217.171 20.8222 217.322 21.2284C217.473 21.6347 217.705 21.9625 218.019 22.2118C218.333 22.461 218.733 22.5857 219.219 22.5857ZM227.179 16.3257V17.249H223.505V16.3257H227.179ZM224.576 14.6269H225.665V21.3854C225.665 21.6932 225.71 21.924 225.799 22.0779C225.891 22.2287 226.008 22.3302 226.15 22.3826C226.295 22.4318 226.447 22.4564 226.607 22.4564C226.727 22.4564 226.826 22.4503 226.902 22.438C226.979 22.4226 227.041 22.4103 227.087 22.401L227.309 23.3797C227.235 23.4074 227.132 23.4351 226.999 23.4628C226.867 23.4936 226.699 23.509 226.496 23.509C226.188 23.509 225.887 23.4428 225.591 23.3105C225.299 23.1781 225.056 22.9766 224.862 22.7057C224.671 22.4349 224.576 22.0933 224.576 21.6809V14.6269ZM198.539 32.9167H197.394C197.326 32.5873 197.208 32.298 197.038 32.0488C196.872 31.7995 196.669 31.5902 196.429 31.4209C196.192 31.2486 195.929 31.1193 195.64 31.0331C195.35 30.947 195.049 30.9039 194.735 30.9039C194.162 30.9039 193.644 31.0485 193.179 31.3378C192.717 31.6271 192.35 32.0534 192.076 32.6166C191.805 33.1798 191.669 33.8707 191.669 34.6894C191.669 35.508 191.805 36.199 192.076 36.7622C192.35 37.3254 192.717 37.7516 193.179 38.0409C193.644 38.3302 194.162 38.4749 194.735 38.4749C195.049 38.4749 195.35 38.4318 195.64 38.3456C195.929 38.2595 196.192 38.1317 196.429 37.9625C196.669 37.7901 196.872 37.5793 197.038 37.33C197.208 37.0776 197.326 36.7883 197.394 36.4621H198.539C198.453 36.9453 198.296 37.3777 198.068 37.7593C197.84 38.141 197.557 38.4657 197.218 38.7334C196.88 38.9981 196.5 39.1997 196.078 39.3382C195.66 39.4767 195.212 39.5459 194.735 39.5459C193.928 39.5459 193.211 39.3489 192.584 38.955C191.956 38.5611 191.462 38.0009 191.102 37.2746C190.742 36.5483 190.562 35.6865 190.562 34.6894C190.562 33.6922 190.742 32.8305 191.102 32.1042C191.462 31.3778 191.956 30.8177 192.584 30.4238C193.211 30.0298 193.928 29.8328 194.735 29.8328C195.212 29.8328 195.66 29.9021 196.078 30.0406C196.5 30.1791 196.88 30.3822 197.218 30.65C197.557 30.9146 197.84 31.2378 198.068 31.6194C198.296 31.998 198.453 32.4304 198.539 32.9167ZM202.328 39.5828C201.878 39.5828 201.471 39.4982 201.104 39.3289C200.738 39.1566 200.447 38.9088 200.232 38.5857C200.016 38.2595 199.909 37.8655 199.909 37.4039C199.909 36.9976 199.989 36.6683 200.149 36.4159C200.309 36.1605 200.523 35.9605 200.79 35.8158C201.058 35.6712 201.354 35.5634 201.677 35.4927C202.003 35.4188 202.331 35.3603 202.66 35.3172C203.091 35.2618 203.44 35.2203 203.708 35.1926C203.979 35.1618 204.176 35.111 204.299 35.0402C204.425 34.9694 204.488 34.8463 204.488 34.6709V34.634C204.488 34.1785 204.364 33.8246 204.114 33.5722C203.868 33.3198 203.494 33.1936 202.993 33.1936C202.472 33.1936 202.065 33.3075 201.769 33.5353C201.474 33.763 201.266 34.0061 201.146 34.2647L200.112 33.8953C200.297 33.4645 200.543 33.129 200.851 32.889C201.161 32.6458 201.5 32.4766 201.866 32.3811C202.235 32.2827 202.599 32.2334 202.956 32.2334C203.183 32.2334 203.445 32.2611 203.74 32.3165C204.039 32.3688 204.327 32.4781 204.604 32.6443C204.884 32.8105 205.116 33.0613 205.301 33.3968C205.485 33.7322 205.578 34.1816 205.578 34.7448V39.4167H204.488V38.4564H204.433C204.359 38.6103 204.236 38.775 204.064 38.9504C203.891 39.1258 203.662 39.2751 203.376 39.3982C203.09 39.5213 202.74 39.5828 202.328 39.5828ZM202.494 38.6042C202.925 38.6042 203.288 38.5195 203.583 38.3503C203.882 38.181 204.107 37.9625 204.257 37.6947C204.411 37.427 204.488 37.1453 204.488 36.8499V35.8527C204.442 35.9081 204.341 35.9589 204.184 36.0051C204.03 36.0482 203.851 36.0866 203.648 36.1205C203.448 36.1513 203.253 36.179 203.062 36.2036C202.874 36.2251 202.722 36.2436 202.605 36.259C202.322 36.2959 202.057 36.3559 201.811 36.439C201.568 36.519 201.371 36.6406 201.22 36.8037C201.072 36.9638 200.998 37.1823 200.998 37.4593C200.998 37.8378 201.138 38.124 201.418 38.3179C201.701 38.5087 202.06 38.6042 202.494 38.6042ZM210.65 32.3257V33.249H206.975V32.3257H210.65ZM208.046 30.6269H209.136V37.3854C209.136 37.6932 209.181 37.924 209.27 38.0779C209.362 38.2287 209.479 38.3302 209.621 38.3826C209.765 38.4318 209.918 38.4564 210.078 38.4564C210.198 38.4564 210.296 38.4503 210.373 38.438C210.45 38.4226 210.512 38.4103 210.558 38.401L210.779 39.3797C210.706 39.4074 210.602 39.4351 210.47 39.4628C210.338 39.4936 210.17 39.509 209.967 39.509C209.659 39.509 209.358 39.4428 209.062 39.3105C208.77 39.1781 208.527 38.9766 208.333 38.7057C208.142 38.4349 208.046 38.0933 208.046 37.6809V30.6269ZM214.376 39.5828C213.926 39.5828 213.519 39.4982 213.152 39.3289C212.786 39.1566 212.495 38.9088 212.28 38.5857C212.064 38.2595 211.957 37.8655 211.957 37.4039C211.957 36.9976 212.037 36.6683 212.197 36.4159C212.357 36.1605 212.571 35.9605 212.838 35.8158C213.106 35.6712 213.402 35.5634 213.725 35.4927C214.051 35.4188 214.379 35.3603 214.708 35.3172C215.139 35.2618 215.488 35.2203 215.756 35.1926C216.027 35.1618 216.224 35.111 216.347 35.0402C216.473 34.9694 216.536 34.8463 216.536 34.6709V34.634C216.536 34.1785 216.412 33.8246 216.162 33.5722C215.916 33.3198 215.542 33.1936 215.04 33.1936C214.52 33.1936 214.112 33.3075 213.817 33.5353C213.522 33.763 213.314 34.0061 213.194 34.2647L212.16 33.8953C212.344 33.4645 212.591 33.129 212.898 32.889C213.209 32.6458 213.548 32.4766 213.914 32.3811C214.283 32.2827 214.646 32.2334 215.003 32.2334C215.231 32.2334 215.493 32.2611 215.788 32.3165C216.087 32.3688 216.375 32.4781 216.652 32.6443C216.932 32.8105 217.164 33.0613 217.349 33.3968C217.533 33.7322 217.626 34.1816 217.626 34.7448V39.4167H216.536V38.4564H216.481C216.407 38.6103 216.284 38.775 216.111 38.9504C215.939 39.1258 215.71 39.2751 215.424 39.3982C215.137 39.5213 214.788 39.5828 214.376 39.5828ZM214.542 38.6042C214.973 38.6042 215.336 38.5195 215.631 38.3503C215.93 38.181 216.155 37.9625 216.305 37.6947C216.459 37.427 216.536 37.1453 216.536 36.8499V35.8527C216.49 35.9081 216.388 35.9589 216.231 36.0051C216.078 36.0482 215.899 36.0866 215.696 36.1205C215.496 36.1513 215.3 36.179 215.11 36.2036C214.922 36.2251 214.77 36.2436 214.653 36.259C214.369 36.2959 214.105 36.3559 213.859 36.439C213.615 36.519 213.418 36.6406 213.268 36.8037C213.12 36.9638 213.046 37.1823 213.046 37.4593C213.046 37.8378 213.186 38.124 213.466 38.3179C213.749 38.5087 214.108 38.6042 214.542 38.6042ZM220.704 29.9621V39.4167H219.614V29.9621H220.704ZM225.58 39.5644C224.94 39.5644 224.378 39.412 223.895 39.1074C223.415 38.8027 223.039 38.3764 222.768 37.8286C222.501 37.2808 222.367 36.6406 222.367 35.9081C222.367 35.1695 222.501 34.5247 222.768 33.9738C223.039 33.4229 223.415 32.9951 223.895 32.6904C224.378 32.3858 224.94 32.2334 225.58 32.2334C226.22 32.2334 226.78 32.3858 227.26 32.6904C227.743 32.9951 228.119 33.4229 228.387 33.9738C228.657 34.5247 228.793 35.1695 228.793 35.9081C228.793 36.6406 228.657 37.2808 228.387 37.8286C228.119 38.3764 227.743 38.8027 227.26 39.1074C226.78 39.412 226.22 39.5644 225.58 39.5644ZM225.58 38.5857C226.066 38.5857 226.466 38.461 226.78 38.2118C227.094 37.9625 227.326 37.6347 227.477 37.2284C227.628 36.8222 227.703 36.3821 227.703 35.9081C227.703 35.4342 227.628 34.9925 227.477 34.5832C227.326 34.1739 227.094 33.843 226.78 33.5907C226.466 33.3383 226.066 33.2121 225.58 33.2121C225.094 33.2121 224.693 33.3383 224.38 33.5907C224.066 33.843 223.833 34.1739 223.682 34.5832C223.532 34.9925 223.456 35.4342 223.456 35.9081C223.456 36.3821 223.532 36.8222 223.682 37.2284C223.833 37.6347 224.066 37.9625 224.38 38.2118C224.693 38.461 225.094 38.5857 225.58 38.5857ZM233.318 42.2235C232.792 42.2235 232.34 42.1558 231.961 42.0203C231.582 41.888 231.267 41.7126 231.015 41.4941C230.765 41.2786 230.567 41.0478 230.419 40.8016L231.287 40.1922C231.385 40.3215 231.51 40.4692 231.661 40.6354C231.812 40.8047 232.018 40.9509 232.279 41.074C232.544 41.2002 232.89 41.2632 233.318 41.2632C233.891 41.2632 234.363 41.1248 234.735 40.8478C235.108 40.5708 235.294 40.1368 235.294 39.5459V38.1056H235.202C235.122 38.2348 235.008 38.3949 234.86 38.5857C234.715 38.7734 234.506 38.9412 234.232 39.0889C233.961 39.2335 233.595 39.3059 233.134 39.3059C232.561 39.3059 232.047 39.1704 231.592 38.8996C231.139 38.6288 230.781 38.2348 230.516 37.7178C230.254 37.2007 230.124 36.5729 230.124 35.8343C230.124 35.1079 230.251 34.4755 230.507 33.9369C230.762 33.3952 231.118 32.9767 231.573 32.6812C232.029 32.3827 232.555 32.2334 233.152 32.2334C233.614 32.2334 233.98 32.3104 234.251 32.4642C234.525 32.615 234.734 32.7874 234.879 32.9813C235.026 33.1721 235.14 33.3291 235.22 33.4522H235.331V32.3257H236.384V39.6198C236.384 40.2292 236.245 40.7247 235.968 41.1063C235.694 41.491 235.325 41.7726 234.86 41.9511C234.398 42.1327 233.884 42.2235 233.318 42.2235ZM233.281 38.3272C233.718 38.3272 234.088 38.2271 234.389 38.0271C234.691 37.827 234.92 37.5393 235.077 37.1638C235.234 36.7883 235.313 36.339 235.313 35.8158C235.313 35.3049 235.236 34.854 235.082 34.4632C234.928 34.0723 234.7 33.7661 234.398 33.5445C234.097 33.3229 233.724 33.2121 233.281 33.2121C232.82 33.2121 232.435 33.3291 232.127 33.563C231.822 33.7969 231.593 34.1108 231.439 34.5047C231.288 34.8987 231.213 35.3357 231.213 35.8158C231.213 36.3082 231.29 36.7437 231.444 37.1223C231.601 37.4977 231.832 37.7932 232.136 38.0086C232.444 38.221 232.826 38.3272 233.281 38.3272Z" fill="white"/>
<rect x="1" y="124" width="198" height="245.917" rx="4" stroke="#FFC000" stroke-width="2"/>
<path d="M35.4167 167.667C35.4167 166.01 36.7598 164.667 38.4167 164.667H161.583C163.24 164.667 164.583 166.01 164.583 167.667V218.833H35.4167V167.667Z" fill="#00B0F0"/>
<path d="M84.9555 181.583H83.8106C83.7429 181.254 83.6244 180.965 83.4551 180.715C83.2889 180.466 83.0858 180.257 82.8457 180.088C82.6088 179.915 82.3456 179.786 82.0563 179.7C81.767 179.614 81.4654 179.571 81.1515 179.571C80.579 179.571 80.0605 179.715 79.5957 180.004C79.1341 180.294 78.7663 180.72 78.4924 181.283C78.2216 181.846 78.0862 182.537 78.0862 183.356C78.0862 184.175 78.2216 184.866 78.4924 185.429C78.7663 185.992 79.1341 186.418 79.5957 186.708C80.0605 186.997 80.579 187.142 81.1515 187.142C81.4654 187.142 81.767 187.098 82.0563 187.012C82.3456 186.926 82.6088 186.798 82.8457 186.629C83.0858 186.457 83.2889 186.246 83.4551 185.997C83.6244 185.744 83.7429 185.455 83.8106 185.129H84.9555C84.8693 185.612 84.7123 186.044 84.4846 186.426C84.2568 186.808 83.9737 187.132 83.6352 187.4C83.2966 187.665 82.9165 187.866 82.4949 188.005C82.0763 188.143 81.6285 188.213 81.1515 188.213C80.3451 188.213 79.6281 188.016 79.0002 187.622C78.3724 187.228 77.8784 186.668 77.5183 185.941C77.1582 185.215 76.9782 184.353 76.9782 183.356C76.9782 182.359 77.1582 181.497 77.5183 180.771C77.8784 180.044 78.3724 179.484 79.0002 179.09C79.6281 178.696 80.3451 178.5 81.1515 178.5C81.6285 178.5 82.0763 178.569 82.4949 178.707C82.9165 178.846 83.2966 179.049 83.6352 179.317C83.9737 179.581 84.2568 179.904 84.4846 180.286C84.7123 180.665 84.8693 181.097 84.9555 181.583ZM88.7444 188.25C88.2951 188.25 87.8873 188.165 87.5211 187.996C87.1548 187.823 86.864 187.576 86.6486 187.252C86.4331 186.926 86.3254 186.532 86.3254 186.071C86.3254 185.664 86.4054 185.335 86.5655 185.083C86.7255 184.827 86.9394 184.627 87.2072 184.482C87.4749 184.338 87.7704 184.23 88.0935 184.159C88.4197 184.085 88.7475 184.027 89.0768 183.984C89.5077 183.928 89.857 183.887 90.1248 183.859C90.3956 183.828 90.5926 183.778 90.7157 183.707C90.8419 183.636 90.905 183.513 90.905 183.338V183.301C90.905 182.845 90.7803 182.491 90.531 182.239C90.2848 181.986 89.9109 181.86 89.4092 181.86C88.8891 181.86 88.4813 181.974 88.1858 182.202C87.8904 182.43 87.6827 182.673 87.5626 182.931L86.5285 182.562C86.7132 182.131 86.9594 181.796 87.2672 181.556C87.578 181.312 87.9166 181.143 88.2828 181.048C88.6521 180.949 89.0153 180.9 89.3723 180.9C89.6 180.9 89.8616 180.928 90.1571 180.983C90.4556 181.035 90.7434 181.145 91.0204 181.311C91.3004 181.477 91.5328 181.728 91.7175 182.063C91.9021 182.399 91.9944 182.848 91.9944 183.411V188.083H90.905V187.123H90.8496C90.7757 187.277 90.6526 187.442 90.4802 187.617C90.3079 187.792 90.0786 187.942 89.7924 188.065C89.5062 188.188 89.1568 188.25 88.7444 188.25ZM88.9106 187.271C89.3415 187.271 89.7047 187.186 90.0001 187.017C90.2987 186.848 90.5233 186.629 90.6741 186.361C90.828 186.094 90.905 185.812 90.905 185.517V184.519C90.8588 184.575 90.7572 184.626 90.6003 184.672C90.4464 184.715 90.2679 184.753 90.0648 184.787C89.8647 184.818 89.6693 184.846 89.4785 184.87C89.2907 184.892 89.1384 184.91 89.0214 184.926C88.7383 184.963 88.4736 185.023 88.2274 185.106C87.9843 185.186 87.7873 185.307 87.6365 185.47C87.4888 185.63 87.4149 185.849 87.4149 186.126C87.4149 186.504 87.5549 186.791 87.835 186.985C88.1181 187.175 88.4767 187.271 88.9106 187.271ZM97.0668 180.992V181.916H93.3921V180.992H97.0668ZM94.4631 179.294H95.5526V186.052C95.5526 186.36 95.5972 186.591 95.6865 186.745C95.7788 186.895 95.8957 186.997 96.0373 187.049C96.182 187.098 96.3343 187.123 96.4944 187.123C96.6144 187.123 96.7129 187.117 96.7898 187.105C96.8667 187.089 96.9283 187.077 96.9745 187.068L97.1961 188.046C97.1222 188.074 97.0191 188.102 96.8868 188.129C96.7544 188.16 96.5867 188.176 96.3836 188.176C96.0758 188.176 95.7742 188.109 95.4787 187.977C95.1864 187.845 94.9432 187.643 94.7493 187.372C94.5585 187.102 94.4631 186.76 94.4631 186.348V179.294ZM100.792 188.25C100.343 188.25 99.9352 188.165 99.5689 187.996C99.2027 187.823 98.9118 187.576 98.6964 187.252C98.481 186.926 98.3733 186.532 98.3733 186.071C98.3733 185.664 98.4533 185.335 98.6133 185.083C98.7734 184.827 98.9873 184.627 99.255 184.482C99.5228 184.338 99.8182 184.23 100.141 184.159C100.468 184.085 100.795 184.027 101.125 183.984C101.556 183.928 101.905 183.887 102.173 183.859C102.443 183.828 102.64 183.778 102.764 183.707C102.89 183.636 102.953 183.513 102.953 183.338V183.301C102.953 182.845 102.828 182.491 102.579 182.239C102.333 181.986 101.959 181.86 101.457 181.86C100.937 181.86 100.529 181.974 100.234 182.202C99.9382 182.43 99.7305 182.673 99.6105 182.931L98.5764 182.562C98.761 182.131 99.0073 181.796 99.315 181.556C99.6259 181.312 99.9644 181.143 100.331 181.048C100.7 180.949 101.063 180.9 101.42 180.9C101.648 180.9 101.909 180.928 102.205 180.983C102.503 181.035 102.791 181.145 103.068 181.311C103.348 181.477 103.581 181.728 103.765 182.063C103.95 182.399 104.042 182.848 104.042 183.411V188.083H102.953V187.123H102.897C102.824 187.277 102.7 187.442 102.528 187.617C102.356 187.792 102.126 187.942 101.84 188.065C101.554 188.188 101.205 188.25 100.792 188.25ZM100.958 187.271C101.389 187.271 101.753 187.186 102.048 187.017C102.347 186.848 102.571 186.629 102.722 186.361C102.876 186.094 102.953 185.812 102.953 185.517V184.519C102.907 184.575 102.805 184.626 102.648 184.672C102.494 184.715 102.316 184.753 102.113 184.787C101.913 184.818 101.717 184.846 101.526 184.87C101.339 184.892 101.186 184.91 101.069 184.926C100.786 184.963 100.521 185.023 100.275 185.106C100.032 185.186 99.8351 185.307 99.6843 185.47C99.5366 185.63 99.4627 185.849 99.4627 186.126C99.4627 186.504 99.6028 186.791 99.8828 186.985C100.166 187.175 100.525 187.271 100.958 187.271ZM107.12 178.629V188.083H106.031V178.629H107.12ZM111.996 188.231C111.356 188.231 110.795 188.079 110.311 187.774C109.831 187.469 109.456 187.043 109.185 186.495C108.917 185.947 108.783 185.307 108.783 184.575C108.783 183.836 108.917 183.191 109.185 182.64C109.456 182.09 109.831 181.662 110.311 181.357C110.795 181.052 111.356 180.9 111.996 180.9C112.637 180.9 113.197 181.052 113.677 181.357C114.16 181.662 114.536 182.09 114.803 182.64C115.074 183.191 115.21 183.836 115.21 184.575C115.21 185.307 115.074 185.947 114.803 186.495C114.536 187.043 114.16 187.469 113.677 187.774C113.197 188.079 112.637 188.231 111.996 188.231ZM111.996 187.252C112.483 187.252 112.883 187.128 113.197 186.878C113.511 186.629 113.743 186.301 113.894 185.895C114.045 185.489 114.12 185.049 114.12 184.575C114.12 184.101 114.045 183.659 113.894 183.25C113.743 182.841 113.511 182.51 113.197 182.257C112.883 182.005 112.483 181.879 111.996 181.879C111.51 181.879 111.11 182.005 110.796 182.257C110.482 182.51 110.25 182.841 110.099 183.25C109.948 183.659 109.873 184.101 109.873 184.575C109.873 185.049 109.948 185.489 110.099 185.895C110.25 186.301 110.482 186.629 110.796 186.878C111.11 187.128 111.51 187.252 111.996 187.252ZM119.735 190.89C119.209 190.89 118.756 190.822 118.378 190.687C117.999 190.555 117.684 190.379 117.431 190.161C117.182 189.945 116.983 189.714 116.836 189.468L117.704 188.859C117.802 188.988 117.927 189.136 118.078 189.302C118.228 189.471 118.435 189.618 118.696 189.741C118.961 189.867 119.307 189.93 119.735 189.93C120.307 189.93 120.78 189.791 121.152 189.514C121.525 189.237 121.711 188.803 121.711 188.213V186.772H121.618C121.538 186.901 121.424 187.062 121.277 187.252C121.132 187.44 120.923 187.608 120.649 187.756C120.378 187.9 120.012 187.973 119.55 187.973C118.978 187.973 118.464 187.837 118.008 187.566C117.556 187.295 117.197 186.901 116.933 186.384C116.671 185.867 116.54 185.24 116.54 184.501C116.54 183.775 116.668 183.142 116.923 182.604C117.179 182.062 117.534 181.643 117.99 181.348C118.445 181.049 118.972 180.9 119.569 180.9C120.03 180.9 120.397 180.977 120.667 181.131C120.941 181.282 121.151 181.454 121.295 181.648C121.443 181.839 121.557 181.996 121.637 182.119H121.748V180.992H122.8V188.286C122.8 188.896 122.662 189.391 122.385 189.773C122.111 190.158 121.741 190.439 121.277 190.618C120.815 190.799 120.301 190.89 119.735 190.89ZM119.698 186.994C120.135 186.994 120.504 186.894 120.806 186.694C121.107 186.494 121.337 186.206 121.494 185.83C121.651 185.455 121.729 185.006 121.729 184.482C121.729 183.972 121.652 183.521 121.498 183.13C121.344 182.739 121.117 182.433 120.815 182.211C120.514 181.99 120.141 181.879 119.698 181.879C119.236 181.879 118.852 181.996 118.544 182.23C118.239 182.464 118.01 182.777 117.856 183.171C117.705 183.565 117.63 184.002 117.63 184.482C117.63 184.975 117.707 185.41 117.861 185.789C118.018 186.164 118.248 186.46 118.553 186.675C118.861 186.888 119.242 186.994 119.698 186.994ZM86.1679 196.992C86.1125 196.525 85.8878 196.161 85.4939 195.903C85.0999 195.644 84.6167 195.515 84.0443 195.515C83.6257 195.515 83.2595 195.583 82.9456 195.718C82.6347 195.854 82.3916 196.04 82.2162 196.277C82.0438 196.514 81.9576 196.783 81.9576 197.085C81.9576 197.337 82.0177 197.554 82.1377 197.736C82.2608 197.914 82.4178 198.063 82.6086 198.183C82.7994 198.3 82.9994 198.397 83.2087 198.474C83.418 198.548 83.6103 198.608 83.7858 198.654L84.746 198.913C84.9922 198.977 85.2661 199.067 85.5677 199.181C85.8724 199.294 86.1633 199.45 86.4402 199.647C86.7203 199.841 86.9511 200.09 87.1327 200.395C87.3143 200.699 87.4051 201.073 87.4051 201.517C87.4051 202.027 87.2712 202.489 87.0035 202.901C86.7388 203.314 86.351 203.642 85.8401 203.885C85.3323 204.128 84.7152 204.25 83.9889 204.25C83.3118 204.25 82.7255 204.14 82.23 203.922C81.7376 203.703 81.3498 203.399 81.0667 203.008C80.7866 202.617 80.6281 202.163 80.5912 201.646H81.773C81.8038 202.003 81.9238 202.298 82.1331 202.532C82.3454 202.763 82.6132 202.935 82.9363 203.049C83.2626 203.16 83.6134 203.215 83.9889 203.215C84.4259 203.215 84.8183 203.145 85.1661 203.003C85.5139 202.858 85.7893 202.658 85.9924 202.403C86.1956 202.144 86.2971 201.843 86.2971 201.498C86.2971 201.184 86.2094 200.929 86.034 200.732C85.8586 200.535 85.6277 200.375 85.3415 200.252C85.0553 200.129 84.746 200.021 84.4136 199.928L83.2503 199.596C82.5116 199.384 81.9269 199.081 81.496 198.687C81.0651 198.293 80.8497 197.777 80.8497 197.14C80.8497 196.611 80.9928 196.149 81.279 195.755C81.5683 195.358 81.9561 195.05 82.4424 194.832C82.9317 194.61 83.478 194.5 84.0812 194.5C84.6906 194.5 85.2323 194.609 85.7062 194.827C86.1802 195.043 86.5557 195.338 86.8326 195.714C87.1127 196.089 87.2604 196.515 87.2758 196.992H86.1679ZM92.1127 204.231C91.4295 204.231 90.8401 204.08 90.3446 203.779C89.8522 203.474 89.4721 203.049 89.2044 202.504C88.9397 201.957 88.8073 201.32 88.8073 200.593C88.8073 199.867 88.9397 199.227 89.2044 198.673C89.4721 198.116 89.8445 197.682 90.3215 197.371C90.8017 197.057 91.3618 196.9 92.0019 196.9C92.3713 196.9 92.736 196.962 93.096 197.085C93.4561 197.208 93.7839 197.408 94.0794 197.685C94.3748 197.959 94.6103 198.322 94.7857 198.774C94.9611 199.227 95.0488 199.784 95.0488 200.446V200.907H89.5829V199.965H93.9409C93.9409 199.565 93.8608 199.208 93.7008 198.894C93.5438 198.58 93.3192 198.333 93.0268 198.151C92.7375 197.97 92.3959 197.879 92.0019 197.879C91.568 197.879 91.1925 197.986 90.8755 198.202C90.5616 198.414 90.32 198.691 90.1507 199.033C89.9815 199.375 89.8968 199.741 89.8968 200.132V200.759C89.8968 201.295 89.9892 201.749 90.1738 202.121C90.3616 202.491 90.6216 202.772 90.954 202.966C91.2864 203.157 91.6726 203.252 92.1127 203.252C92.399 203.252 92.6575 203.212 92.8883 203.132C93.1222 203.049 93.3238 202.926 93.4931 202.763C93.6623 202.597 93.7931 202.391 93.8855 202.144L94.938 202.44C94.8272 202.797 94.641 203.111 94.3794 203.382C94.1178 203.649 93.7947 203.859 93.41 204.009C93.0253 204.157 92.5929 204.231 92.1127 204.231ZM96.7061 204.083V196.992H97.7587V198.063H97.8326C97.9618 197.713 98.1957 197.428 98.5343 197.209C98.8728 196.991 99.2544 196.882 99.6791 196.882C99.7592 196.882 99.8592 196.883 99.9792 196.886C100.099 196.889 100.19 196.894 100.252 196.9V198.008C100.215 197.999 100.13 197.985 99.9977 197.966C99.8684 197.945 99.7315 197.934 99.5868 197.934C99.2421 197.934 98.9344 198.006 98.6635 198.151C98.3958 198.293 98.1834 198.49 98.0264 198.742C97.8726 198.991 97.7956 199.276 97.7956 199.596V204.083H96.7061ZM107.557 196.992L104.935 204.083H103.827L101.205 196.992H102.387L104.344 202.643H104.418L106.375 196.992H107.557ZM111.714 204.231C111.031 204.231 110.442 204.08 109.946 203.779C109.454 203.474 109.074 203.049 108.806 202.504C108.541 201.957 108.409 201.32 108.409 200.593C108.409 199.867 108.541 199.227 108.806 198.673C109.074 198.116 109.446 197.682 109.923 197.371C110.403 197.057 110.963 196.9 111.604 196.9C111.973 196.9 112.338 196.962 112.698 197.085C113.058 197.208 113.385 197.408 113.681 197.685C113.976 197.959 114.212 198.322 114.387 198.774C114.563 199.227 114.65 199.784 114.65 200.446V200.907H109.184V199.965H113.542C113.542 199.565 113.462 199.208 113.302 198.894C113.145 198.58 112.921 198.333 112.628 198.151C112.339 197.97 111.997 197.879 111.604 197.879C111.17 197.879 110.794 197.986 110.477 198.202C110.163 198.414 109.922 198.691 109.752 199.033C109.583 199.375 109.498 199.741 109.498 200.132V200.759C109.498 201.295 109.591 201.749 109.775 202.121C109.963 202.491 110.223 202.772 110.556 202.966C110.888 203.157 111.274 203.252 111.714 203.252C112.001 203.252 112.259 203.212 112.49 203.132C112.724 203.049 112.925 202.926 113.095 202.763C113.264 202.597 113.395 202.391 113.487 202.144L114.54 202.44C114.429 202.797 114.243 203.111 113.981 203.382C113.719 203.649 113.396 203.859 113.012 204.009C112.627 204.157 112.194 204.231 111.714 204.231ZM116.308 204.083V196.992H117.36V198.063H117.434C117.563 197.713 117.797 197.428 118.136 197.209C118.474 196.991 118.856 196.882 119.281 196.882C119.361 196.882 119.461 196.883 119.581 196.886C119.701 196.889 119.792 196.894 119.853 196.9V198.008C119.816 197.999 119.732 197.985 119.599 197.966C119.47 197.945 119.333 197.934 119.188 197.934C118.844 197.934 118.536 198.006 118.265 198.151C117.997 198.293 117.785 198.49 117.628 198.742C117.474 198.991 117.397 199.276 117.397 199.596V204.083H116.308Z" fill="white"/>
<rect x="35.4167" y="218.833" width="129.167" height="56.25" fill="#00EFB5"/>
<path d="M85.2087 235.75H84.0638C83.9961 235.421 83.8776 235.131 83.7084 234.882C83.5422 234.633 83.339 234.424 83.099 234.254C82.862 234.082 82.5989 233.953 82.3096 233.866C82.0203 233.78 81.7187 233.737 81.4047 233.737C80.8323 233.737 80.3137 233.882 79.849 234.171C79.3873 234.46 79.0196 234.887 78.7457 235.45C78.4748 236.013 78.3394 236.704 78.3394 237.523C78.3394 238.341 78.4748 239.032 78.7457 239.595C79.0196 240.159 79.3873 240.585 79.849 240.874C80.3137 241.164 80.8323 241.308 81.4047 241.308C81.7187 241.308 82.0203 241.265 82.3096 241.179C82.5989 241.093 82.862 240.965 83.099 240.796C83.339 240.623 83.5422 240.413 83.7084 240.163C83.8776 239.911 83.9961 239.622 84.0638 239.295H85.2087C85.1225 239.779 84.9656 240.211 84.7378 240.593C84.5101 240.974 84.227 241.299 83.8884 241.567C83.5499 241.831 83.1698 242.033 82.7481 242.171C82.3296 242.31 81.8818 242.379 81.4047 242.379C80.5984 242.379 79.8813 242.182 79.2535 241.788C78.6256 241.394 78.1317 240.834 77.7716 240.108C77.4115 239.382 77.2314 238.52 77.2314 237.523C77.2314 236.526 77.4115 235.664 77.7716 234.937C78.1317 234.211 78.6256 233.651 79.2535 233.257C79.8813 232.863 80.5984 232.666 81.4047 232.666C81.8818 232.666 82.3296 232.735 82.7481 232.874C83.1698 233.012 83.5499 233.216 83.8884 233.483C84.227 233.748 84.5101 234.071 84.7378 234.453C84.9656 234.831 85.1225 235.264 85.2087 235.75ZM89.7917 242.398C89.1516 242.398 88.5899 242.245 88.1067 241.941C87.6266 241.636 87.2511 241.21 86.9803 240.662C86.7125 240.114 86.5787 239.474 86.5787 238.741C86.5787 238.003 86.7125 237.358 86.9803 236.807C87.2511 236.256 87.6266 235.828 88.1067 235.524C88.5899 235.219 89.1516 235.067 89.7917 235.067C90.4319 235.067 90.992 235.219 91.4721 235.524C91.9553 235.828 92.3308 236.256 92.5985 236.807C92.8694 237.358 93.0048 238.003 93.0048 238.741C93.0048 239.474 92.8694 240.114 92.5985 240.662C92.3308 241.21 91.9553 241.636 91.4721 241.941C90.992 242.245 90.4319 242.398 89.7917 242.398ZM89.7917 241.419C90.278 241.419 90.6781 241.294 90.992 241.045C91.3059 240.796 91.5383 240.468 91.6891 240.062C91.8399 239.656 91.9153 239.215 91.9153 238.741C91.9153 238.267 91.8399 237.826 91.6891 237.417C91.5383 237.007 91.3059 236.676 90.992 236.424C90.6781 236.172 90.278 236.045 89.7917 236.045C89.3055 236.045 88.9054 236.172 88.5914 236.424C88.2775 236.676 88.0452 237.007 87.8944 237.417C87.7436 237.826 87.6682 238.267 87.6682 238.741C87.6682 239.215 87.7436 239.656 87.8944 240.062C88.0452 240.468 88.2775 240.796 88.5914 241.045C88.9054 241.294 89.3055 241.419 89.7917 241.419ZM95.7574 237.984V242.25H94.6679V235.159H95.7204V236.267H95.8128C95.979 235.907 96.2313 235.618 96.5699 235.399C96.9084 235.178 97.3454 235.067 97.881 235.067C98.3611 235.067 98.7812 235.165 99.1413 235.362C99.5013 235.556 99.7814 235.852 99.9814 236.249C100.181 236.642 100.282 237.141 100.282 237.744V242.25H99.192V237.818C99.192 237.261 99.0474 236.827 98.7581 236.516C98.4688 236.202 98.0718 236.045 97.567 236.045C97.2193 236.045 96.9084 236.121 96.6345 236.272C96.3637 236.422 96.1498 236.642 95.9928 236.932C95.8359 237.221 95.7574 237.572 95.7574 237.984ZM105.356 235.159V236.082H101.681V235.159H105.356ZM102.752 233.46H103.842V240.219C103.842 240.526 103.887 240.757 103.976 240.911C104.068 241.062 104.185 241.164 104.327 241.216C104.471 241.265 104.624 241.29 104.784 241.29C104.904 241.29 105.002 241.284 105.079 241.271C105.156 241.256 105.218 241.244 105.264 241.234L105.485 242.213C105.412 242.241 105.308 242.268 105.176 242.296C105.044 242.327 104.876 242.342 104.673 242.342C104.365 242.342 104.064 242.276 103.768 242.144C103.476 242.011 103.233 241.81 103.039 241.539C102.848 241.268 102.752 240.927 102.752 240.514V233.46ZM106.995 242.25V235.159H108.048V236.23H108.121C108.251 235.879 108.485 235.595 108.823 235.376C109.162 235.158 109.543 235.048 109.968 235.048C110.048 235.048 110.148 235.05 110.268 235.053C110.388 235.056 110.479 235.061 110.54 235.067V236.175C110.504 236.165 110.419 236.152 110.287 236.133C110.157 236.112 110.02 236.101 109.876 236.101C109.531 236.101 109.223 236.173 108.952 236.318C108.685 236.459 108.472 236.656 108.315 236.909C108.161 237.158 108.085 237.443 108.085 237.763V242.25H106.995ZM114.497 242.398C113.857 242.398 113.295 242.245 112.812 241.941C112.332 241.636 111.956 241.21 111.685 240.662C111.418 240.114 111.284 239.474 111.284 238.741C111.284 238.003 111.418 237.358 111.685 236.807C111.956 236.256 112.332 235.828 112.812 235.524C113.295 235.219 113.857 235.067 114.497 235.067C115.137 235.067 115.697 235.219 116.177 235.524C116.66 235.828 117.036 236.256 117.304 236.807C117.574 237.358 117.71 238.003 117.71 238.741C117.71 239.474 117.574 240.114 117.304 240.662C117.036 241.21 116.66 241.636 116.177 241.941C115.697 242.245 115.137 242.398 114.497 242.398ZM114.497 241.419C114.983 241.419 115.383 241.294 115.697 241.045C116.011 240.796 116.243 240.468 116.394 240.062C116.545 239.656 116.62 239.215 116.62 238.741C116.62 238.267 116.545 237.826 116.394 237.417C116.243 237.007 116.011 236.676 115.697 236.424C115.383 236.172 114.983 236.045 114.497 236.045C114.011 236.045 113.61 236.172 113.297 236.424C112.983 236.676 112.75 237.007 112.599 237.417C112.449 237.826 112.373 238.267 112.373 238.741C112.373 239.215 112.449 239.656 112.599 240.062C112.75 240.468 112.983 240.796 113.297 241.045C113.61 241.294 114.011 241.419 114.497 241.419ZM120.462 232.795V242.25H119.373V232.795H120.462ZM83.1867 258.25V248.795H86.3813C87.123 248.795 87.7293 248.929 88.2002 249.197C88.6742 249.462 89.025 249.82 89.2528 250.273C89.4805 250.725 89.5944 251.23 89.5944 251.787C89.5944 252.344 89.4805 252.85 89.2528 253.306C89.0281 253.761 88.6803 254.124 88.2094 254.395C87.7386 254.663 87.1353 254.797 86.3998 254.797H84.11V253.781H86.3628C86.8707 253.781 87.2784 253.694 87.5862 253.518C87.894 253.343 88.1171 253.106 88.2556 252.807C88.3972 252.506 88.468 252.165 88.468 251.787C88.468 251.408 88.3972 251.07 88.2556 250.771C88.1171 250.473 87.8924 250.239 87.5816 250.07C87.2707 249.897 86.8583 249.811 86.3444 249.811H84.3316V258.25H83.1867ZM92.3804 248.795V258.25H91.2909V248.795H92.3804ZM96.4625 258.416C96.0132 258.416 95.6054 258.332 95.2392 258.162C94.8729 257.99 94.5821 257.742 94.3667 257.419C94.1512 257.093 94.0435 256.699 94.0435 256.237C94.0435 255.831 94.1235 255.502 94.2836 255.249C94.4436 254.994 94.6575 254.794 94.9253 254.649C95.193 254.504 95.4885 254.397 95.8116 254.326C96.1378 254.252 96.4656 254.194 96.7949 254.151C97.2258 254.095 97.5751 254.054 97.8429 254.026C98.1137 253.995 98.3107 253.944 98.4338 253.874C98.56 253.803 98.6231 253.68 98.6231 253.504V253.467C98.6231 253.012 98.4984 252.658 98.2491 252.406C98.0029 252.153 97.629 252.027 97.1273 252.027C96.6072 252.027 96.1994 252.141 95.9039 252.369C95.6085 252.596 95.4007 252.839 95.2807 253.098L94.2466 252.729C94.4313 252.298 94.6775 251.962 94.9853 251.722C95.2961 251.479 95.6347 251.31 96.0009 251.214C96.3702 251.116 96.7334 251.067 97.0904 251.067C97.3181 251.067 97.5797 251.094 97.8752 251.15C98.1737 251.202 98.4615 251.311 98.7385 251.478C99.0185 251.644 99.2509 251.895 99.4356 252.23C99.6202 252.566 99.7125 253.015 99.7125 253.578V258.25H98.6231V257.29H98.5677C98.4938 257.444 98.3707 257.608 98.1983 257.784C98.026 257.959 97.7967 258.108 97.5105 258.232C97.2243 258.355 96.8749 258.416 96.4625 258.416ZM96.6287 257.437C97.0596 257.437 97.4228 257.353 97.7182 257.184C98.0168 257.014 98.2414 256.796 98.3922 256.528C98.5461 256.26 98.6231 255.979 98.6231 255.683V254.686C98.5769 254.741 98.4753 254.792 98.3184 254.838C98.1645 254.881 97.986 254.92 97.7829 254.954C97.5828 254.985 97.3874 255.012 97.1966 255.037C97.0088 255.058 96.8565 255.077 96.7395 255.092C96.4564 255.129 96.1917 255.189 95.9455 255.272C95.7024 255.352 95.5054 255.474 95.3546 255.637C95.2069 255.797 95.133 256.016 95.133 256.293C95.133 256.671 95.273 256.957 95.5531 257.151C95.8362 257.342 96.1948 257.437 96.6287 257.437ZM102.791 253.984V258.25H101.701V251.159H102.754V252.267H102.846C103.012 251.907 103.265 251.618 103.603 251.399C103.942 251.178 104.379 251.067 104.914 251.067C105.394 251.067 105.814 251.165 106.174 251.362C106.535 251.556 106.815 251.852 107.015 252.249C107.215 252.642 107.315 253.141 107.315 253.744V258.25H106.225V253.818C106.225 253.261 106.081 252.827 105.791 252.516C105.502 252.202 105.105 252.045 104.6 252.045C104.252 252.045 103.942 252.121 103.668 252.272C103.397 252.422 103.183 252.642 103.026 252.932C102.869 253.221 102.791 253.572 102.791 253.984ZM112.279 258.398C111.595 258.398 111.006 258.247 110.51 257.945C110.018 257.641 109.638 257.216 109.37 256.671C109.106 256.123 108.973 255.486 108.973 254.76C108.973 254.034 109.106 253.393 109.37 252.839C109.638 252.282 110.01 251.848 110.487 251.538C110.968 251.224 111.528 251.067 112.168 251.067C112.537 251.067 112.902 251.128 113.262 251.251C113.622 251.374 113.95 251.575 114.245 251.852C114.541 252.125 114.776 252.489 114.952 252.941C115.127 253.393 115.215 253.95 115.215 254.612V255.074H109.749V254.132H114.107C114.107 253.732 114.027 253.375 113.867 253.061C113.71 252.747 113.485 252.499 113.193 252.318C112.903 252.136 112.562 252.045 112.168 252.045C111.734 252.045 111.358 252.153 111.041 252.369C110.727 252.581 110.486 252.858 110.317 253.2C110.147 253.541 110.063 253.907 110.063 254.298V254.926C110.063 255.462 110.155 255.916 110.34 256.288C110.527 256.657 110.787 256.939 111.12 257.133C111.452 257.324 111.838 257.419 112.279 257.419C112.565 257.419 112.823 257.379 113.054 257.299C113.288 257.216 113.49 257.093 113.659 256.93C113.828 256.763 113.959 256.557 114.051 256.311L115.104 256.607C114.993 256.964 114.807 257.277 114.545 257.548C114.284 257.816 113.961 258.025 113.576 258.176C113.191 258.324 112.759 258.398 112.279 258.398Z" fill="black"/>
<path d="M35.4167 275.083H164.583V326.25C164.583 327.907 163.24 329.25 161.583 329.25H38.4167C36.7598 329.25 35.4167 327.907 35.4167 326.25V275.083Z" fill="#BFBFBF"/>
<path d="M88.6624 298.5H85.7448V289.045H88.7917C89.7088 289.045 90.4936 289.235 91.1461 289.613C91.7986 289.989 92.2987 290.529 92.6464 291.234C92.9942 291.935 93.1681 292.776 93.1681 293.754C93.1681 294.739 92.9927 295.587 92.6418 296.298C92.291 297.006 91.7801 297.551 91.1092 297.932C90.4382 298.311 89.6227 298.5 88.6624 298.5ZM86.8897 297.484H88.5886C89.3703 297.484 90.0181 297.334 90.5321 297.032C91.0461 296.73 91.4292 296.301 91.6816 295.744C91.934 295.187 92.0602 294.524 92.0602 293.754C92.0602 292.991 91.9355 292.334 91.6862 291.783C91.4369 291.229 91.0645 290.804 90.569 290.509C90.0735 290.21 89.4565 290.061 88.7178 290.061H86.8897V297.484ZM97.0275 298.666C96.5781 298.666 96.1704 298.582 95.8041 298.412C95.4379 298.24 95.147 297.992 94.9316 297.669C94.7162 297.343 94.6084 296.949 94.6084 296.487C94.6084 296.081 94.6885 295.752 94.8485 295.499C95.0085 295.244 95.2224 295.044 95.4902 294.899C95.7579 294.754 96.0534 294.647 96.3766 294.576C96.7028 294.502 97.0306 294.444 97.3599 294.401C97.7907 294.345 98.1401 294.304 98.4078 294.276C98.6786 294.245 98.8756 294.194 98.9987 294.124C99.1249 294.053 99.188 293.93 99.188 293.754V293.717C99.188 293.262 99.0633 292.908 98.8141 292.656C98.5678 292.403 98.1939 292.277 97.6923 292.277C97.1721 292.277 96.7643 292.391 96.4689 292.619C96.1734 292.846 95.9657 293.089 95.8457 293.348L94.8116 292.979C94.9962 292.548 95.2424 292.212 95.5502 291.972C95.8611 291.729 96.1996 291.56 96.5658 291.464C96.9352 291.366 97.2983 291.317 97.6553 291.317C97.8831 291.317 98.1447 291.344 98.4401 291.4C98.7387 291.452 99.0264 291.561 99.3034 291.728C99.5835 291.894 99.8158 292.145 100 292.48C100.185 292.816 100.277 293.265 100.277 293.828V298.5H99.188V297.54H99.1326C99.0587 297.694 98.9356 297.858 98.7633 298.034C98.5909 298.209 98.3616 298.358 98.0754 298.482C97.7892 298.605 97.4399 298.666 97.0275 298.666ZM97.1937 297.688C97.6245 297.688 97.9877 297.603 98.2832 297.434C98.5817 297.264 98.8064 297.046 98.9572 296.778C99.1111 296.51 99.188 296.229 99.188 295.933V294.936C99.1418 294.991 99.0403 295.042 98.8833 295.088C98.7294 295.132 98.5509 295.17 98.3478 295.204C98.1477 295.235 97.9523 295.262 97.7615 295.287C97.5738 295.308 97.4214 295.327 97.3045 295.342C97.0213 295.379 96.7566 295.439 96.5104 295.522C96.2673 295.602 96.0703 295.724 95.9195 295.887C95.7718 296.047 95.6979 296.266 95.6979 296.543C95.6979 296.921 95.838 297.207 96.118 297.401C96.4012 297.592 96.7597 297.688 97.1937 297.688ZM105.35 291.409V292.332H101.675V291.409H105.35ZM102.746 289.71H103.836V296.469C103.836 296.777 103.88 297.007 103.97 297.161C104.062 297.312 104.179 297.414 104.32 297.466C104.465 297.515 104.617 297.54 104.777 297.54C104.897 297.54 104.996 297.534 105.073 297.521C105.15 297.506 105.211 297.494 105.258 297.484L105.479 298.463C105.405 298.491 105.302 298.518 105.17 298.546C105.037 298.577 104.87 298.592 104.667 298.592C104.359 298.592 104.057 298.526 103.762 298.394C103.469 298.261 103.226 298.06 103.032 297.789C102.842 297.518 102.746 297.177 102.746 296.764V289.71ZM109.075 298.666C108.626 298.666 108.218 298.582 107.852 298.412C107.486 298.24 107.195 297.992 106.979 297.669C106.764 297.343 106.656 296.949 106.656 296.487C106.656 296.081 106.736 295.752 106.896 295.499C107.056 295.244 107.27 295.044 107.538 294.899C107.806 294.754 108.101 294.647 108.424 294.576C108.751 294.502 109.078 294.444 109.408 294.401C109.839 294.345 110.188 294.304 110.456 294.276C110.726 294.245 110.923 294.194 111.047 294.124C111.173 294.053 111.236 293.93 111.236 293.754V293.717C111.236 293.262 111.111 292.908 110.862 292.656C110.616 292.403 110.242 292.277 109.74 292.277C109.22 292.277 108.812 292.391 108.517 292.619C108.221 292.846 108.014 293.089 107.894 293.348L106.859 292.979C107.044 292.548 107.29 292.212 107.598 291.972C107.909 291.729 108.247 291.56 108.614 291.464C108.983 291.366 109.346 291.317 109.703 291.317C109.931 291.317 110.193 291.344 110.488 291.4C110.787 291.452 111.074 291.561 111.351 291.728C111.631 291.894 111.864 292.145 112.048 292.48C112.233 292.816 112.325 293.265 112.325 293.828V298.5H111.236V297.54H111.18C111.107 297.694 110.983 297.858 110.811 298.034C110.639 298.209 110.409 298.358 110.123 298.482C109.837 298.605 109.488 298.666 109.075 298.666ZM109.242 297.688C109.672 297.688 110.036 297.603 110.331 297.434C110.63 297.264 110.854 297.046 111.005 296.778C111.159 296.51 111.236 296.229 111.236 295.933V294.936C111.19 294.991 111.088 295.042 110.931 295.088C110.777 295.132 110.599 295.17 110.396 295.204C110.196 295.235 110 295.262 109.809 295.287C109.622 295.308 109.469 295.327 109.352 295.342C109.069 295.379 108.804 295.439 108.558 295.522C108.315 295.602 108.118 295.724 107.967 295.887C107.82 296.047 107.746 296.266 107.746 296.543C107.746 296.921 107.886 297.207 108.166 297.401C108.449 297.592 108.808 297.688 109.242 297.688ZM83.1867 314.5V305.045H86.3813C87.123 305.045 87.7293 305.179 88.2002 305.447C88.6742 305.712 89.025 306.07 89.2528 306.523C89.4805 306.975 89.5944 307.48 89.5944 308.037C89.5944 308.594 89.4805 309.1 89.2528 309.556C89.0281 310.011 88.6803 310.374 88.2094 310.645C87.7386 310.913 87.1353 311.047 86.3998 311.047H84.11V310.031H86.3628C86.8707 310.031 87.2784 309.944 87.5862 309.768C87.894 309.593 88.1171 309.356 88.2556 309.057C88.3972 308.756 88.468 308.415 88.468 308.037C88.468 307.658 88.3972 307.32 88.2556 307.021C88.1171 306.723 87.8924 306.489 87.5816 306.32C87.2707 306.147 86.8583 306.061 86.3444 306.061H84.3316V314.5H83.1867ZM92.3804 305.045V314.5H91.2909V305.045H92.3804ZM96.4625 314.666C96.0132 314.666 95.6054 314.582 95.2392 314.412C94.8729 314.24 94.5821 313.992 94.3667 313.669C94.1512 313.343 94.0435 312.949 94.0435 312.487C94.0435 312.081 94.1235 311.752 94.2836 311.499C94.4436 311.244 94.6575 311.044 94.9253 310.899C95.193 310.754 95.4885 310.647 95.8116 310.576C96.1378 310.502 96.4656 310.444 96.7949 310.401C97.2258 310.345 97.5751 310.304 97.8429 310.276C98.1137 310.245 98.3107 310.194 98.4338 310.124C98.56 310.053 98.6231 309.93 98.6231 309.754V309.717C98.6231 309.262 98.4984 308.908 98.2491 308.656C98.0029 308.403 97.629 308.277 97.1273 308.277C96.6072 308.277 96.1994 308.391 95.9039 308.619C95.6085 308.846 95.4007 309.089 95.2807 309.348L94.2466 308.979C94.4313 308.548 94.6775 308.212 94.9853 307.972C95.2961 307.729 95.6347 307.56 96.0009 307.464C96.3702 307.366 96.7334 307.317 97.0904 307.317C97.3181 307.317 97.5797 307.344 97.8752 307.4C98.1737 307.452 98.4615 307.561 98.7385 307.728C99.0185 307.894 99.2509 308.145 99.4356 308.48C99.6202 308.816 99.7125 309.265 99.7125 309.828V314.5H98.6231V313.54H98.5677C98.4938 313.694 98.3707 313.858 98.1983 314.034C98.026 314.209 97.7967 314.358 97.5105 314.482C97.2243 314.605 96.8749 314.666 96.4625 314.666ZM96.6287 313.688C97.0596 313.688 97.4228 313.603 97.7182 313.434C98.0168 313.264 98.2414 313.046 98.3922 312.778C98.5461 312.51 98.6231 312.229 98.6231 311.933V310.936C98.5769 310.991 98.4753 311.042 98.3184 311.088C98.1645 311.132 97.986 311.17 97.7829 311.204C97.5828 311.235 97.3874 311.262 97.1966 311.287C97.0088 311.308 96.8565 311.327 96.7395 311.342C96.4564 311.379 96.1917 311.439 95.9455 311.522C95.7024 311.602 95.5054 311.724 95.3546 311.887C95.2069 312.047 95.133 312.266 95.133 312.543C95.133 312.921 95.273 313.207 95.5531 313.401C95.8362 313.592 96.1948 313.688 96.6287 313.688ZM102.791 310.234V314.5H101.701V307.409H102.754V308.517H102.846C103.012 308.157 103.265 307.868 103.603 307.649C103.942 307.428 104.379 307.317 104.914 307.317C105.394 307.317 105.814 307.415 106.174 307.612C106.535 307.806 106.815 308.102 107.015 308.499C107.215 308.893 107.315 309.391 107.315 309.994V314.5H106.225V310.068C106.225 309.511 106.081 309.077 105.791 308.766C105.502 308.452 105.105 308.295 104.6 308.295C104.252 308.295 103.942 308.371 103.668 308.522C103.397 308.672 103.183 308.893 103.026 309.182C102.869 309.471 102.791 309.822 102.791 310.234ZM112.279 314.648C111.595 314.648 111.006 314.497 110.51 314.195C110.018 313.891 109.638 313.466 109.37 312.921C109.106 312.373 108.973 311.736 108.973 311.01C108.973 310.284 109.106 309.643 109.37 309.089C109.638 308.532 110.01 308.098 110.487 307.788C110.968 307.474 111.528 307.317 112.168 307.317C112.537 307.317 112.902 307.378 113.262 307.501C113.622 307.625 113.95 307.825 114.245 308.102C114.541 308.375 114.776 308.739 114.952 309.191C115.127 309.643 115.215 310.201 115.215 310.862V311.324H109.749V310.382H114.107C114.107 309.982 114.027 309.625 113.867 309.311C113.71 308.997 113.485 308.749 113.193 308.568C112.903 308.386 112.562 308.295 112.168 308.295C111.734 308.295 111.358 308.403 111.041 308.619C110.727 308.831 110.486 309.108 110.317 309.45C110.147 309.791 110.063 310.157 110.063 310.548V311.176C110.063 311.712 110.155 312.166 110.34 312.538C110.527 312.907 110.787 313.189 111.12 313.383C111.452 313.574 111.838 313.669 112.279 313.669C112.565 313.669 112.823 313.629 113.054 313.549C113.288 313.466 113.49 313.343 113.659 313.18C113.828 313.013 113.959 312.807 114.051 312.561L115.104 312.857C114.993 313.214 114.807 313.527 114.545 313.798C114.284 314.066 113.961 314.275 113.576 314.426C113.191 314.574 112.759 314.648 112.279 314.648Z" fill="black"/>
<rect x="226" y="124" width="198" height="245.917" rx="4" stroke="#FFC000" stroke-width="2"/>
<path d="M260.417 167.667C260.417 166.01 261.76 164.667 263.417 164.667H386.583C388.24 164.667 389.583 166.01 389.583 167.667V218.833H260.417V167.667Z" fill="#00B0F0"/>
<path d="M309.955 181.583H308.811C308.743 181.254 308.624 180.965 308.455 180.715C308.289 180.466 308.086 180.257 307.846 180.088C307.609 179.915 307.346 179.786 307.056 179.7C306.767 179.614 306.465 179.571 306.152 179.571C305.579 179.571 305.06 179.715 304.596 180.004C304.134 180.294 303.766 180.72 303.492 181.283C303.222 181.846 303.086 182.537 303.086 183.356C303.086 184.175 303.222 184.866 303.492 185.429C303.766 185.992 304.134 186.418 304.596 186.708C305.06 186.997 305.579 187.142 306.152 187.142C306.465 187.142 306.767 187.098 307.056 187.012C307.346 186.926 307.609 186.798 307.846 186.629C308.086 186.457 308.289 186.246 308.455 185.997C308.624 185.744 308.743 185.455 308.811 185.129H309.955C309.869 185.612 309.712 186.044 309.485 186.426C309.257 186.808 308.974 187.132 308.635 187.4C308.297 187.665 307.917 187.866 307.495 188.005C307.076 188.143 306.629 188.213 306.152 188.213C305.345 188.213 304.628 188.016 304 187.622C303.372 187.228 302.878 186.668 302.518 185.941C302.158 185.215 301.978 184.353 301.978 183.356C301.978 182.359 302.158 181.497 302.518 180.771C302.878 180.044 303.372 179.484 304 179.09C304.628 178.696 305.345 178.5 306.152 178.5C306.629 178.5 307.076 178.569 307.495 178.707C307.917 178.846 308.297 179.049 308.635 179.317C308.974 179.581 309.257 179.904 309.485 180.286C309.712 180.665 309.869 181.097 309.955 181.583ZM313.744 188.25C313.295 188.25 312.887 188.165 312.521 187.996C312.155 187.823 311.864 187.576 311.649 187.252C311.433 186.926 311.325 186.532 311.325 186.071C311.325 185.664 311.405 185.335 311.565 185.083C311.726 184.827 311.939 184.627 312.207 184.482C312.475 184.338 312.77 184.23 313.094 184.159C313.42 184.085 313.748 184.027 314.077 183.984C314.508 183.928 314.857 183.887 315.125 183.859C315.396 183.828 315.593 183.778 315.716 183.707C315.842 183.636 315.905 183.513 315.905 183.338V183.301C315.905 182.845 315.78 182.491 315.531 182.239C315.285 181.986 314.911 181.86 314.409 181.86C313.889 181.86 313.481 181.974 313.186 182.202C312.89 182.43 312.683 182.673 312.563 182.931L311.529 182.562C311.713 182.131 311.959 181.796 312.267 181.556C312.578 181.312 312.917 181.143 313.283 181.048C313.652 180.949 314.015 180.9 314.372 180.9C314.6 180.9 314.862 180.928 315.157 180.983C315.456 181.035 315.743 181.145 316.02 181.311C316.3 181.477 316.533 181.728 316.717 182.063C316.902 182.399 316.994 182.848 316.994 183.411V188.083H315.905V187.123H315.85C315.776 187.277 315.653 187.442 315.48 187.617C315.308 187.792 315.079 187.942 314.792 188.065C314.506 188.188 314.157 188.25 313.744 188.25ZM313.911 187.271C314.342 187.271 314.705 187.186 315 187.017C315.299 186.848 315.523 186.629 315.674 186.361C315.828 186.094 315.905 185.812 315.905 185.517V184.519C315.859 184.575 315.757 184.626 315.6 184.672C315.446 184.715 315.268 184.753 315.065 184.787C314.865 184.818 314.669 184.846 314.478 184.87C314.291 184.892 314.138 184.91 314.021 184.926C313.738 184.963 313.474 185.023 313.227 185.106C312.984 185.186 312.787 185.307 312.637 185.47C312.489 185.63 312.415 185.849 312.415 186.126C312.415 186.504 312.555 186.791 312.835 186.985C313.118 187.175 313.477 187.271 313.911 187.271ZM322.067 180.992V181.916H318.392V180.992H322.067ZM319.463 179.294H320.553V186.052C320.553 186.36 320.597 186.591 320.686 186.745C320.779 186.895 320.896 186.997 321.037 187.049C321.182 187.098 321.334 187.123 321.494 187.123C321.614 187.123 321.713 187.117 321.79 187.105C321.867 187.089 321.928 187.077 321.974 187.068L322.196 188.046C322.122 188.074 322.019 188.102 321.887 188.129C321.754 188.16 321.587 188.176 321.384 188.176C321.076 188.176 320.774 188.109 320.479 187.977C320.186 187.845 319.943 187.643 319.749 187.372C319.559 187.102 319.463 186.76 319.463 186.348V179.294ZM325.792 188.25C325.343 188.25 324.935 188.165 324.569 187.996C324.203 187.823 323.912 187.576 323.696 187.252C323.481 186.926 323.373 186.532 323.373 186.071C323.373 185.664 323.453 185.335 323.613 185.083C323.773 184.827 323.987 184.627 324.255 184.482C324.523 184.338 324.818 184.23 325.141 184.159C325.468 184.085 325.795 184.027 326.125 183.984C326.556 183.928 326.905 183.887 327.173 183.859C327.443 183.828 327.64 183.778 327.764 183.707C327.89 183.636 327.953 183.513 327.953 183.338V183.301C327.953 182.845 327.828 182.491 327.579 182.239C327.333 181.986 326.959 181.86 326.457 181.86C325.937 181.86 325.529 181.974 325.234 182.202C324.938 182.43 324.731 182.673 324.61 182.931L323.576 182.562C323.761 182.131 324.007 181.796 324.315 181.556C324.626 181.312 324.964 181.143 325.331 181.048C325.7 180.949 326.063 180.9 326.42 180.9C326.648 180.9 326.909 180.928 327.205 180.983C327.503 181.035 327.791 181.145 328.068 181.311C328.348 181.477 328.581 181.728 328.765 182.063C328.95 182.399 329.042 182.848 329.042 183.411V188.083H327.953V187.123H327.897C327.824 187.277 327.7 187.442 327.528 187.617C327.356 187.792 327.126 187.942 326.84 188.065C326.554 188.188 326.205 188.25 325.792 188.25ZM325.959 187.271C326.389 187.271 326.753 187.186 327.048 187.017C327.347 186.848 327.571 186.629 327.722 186.361C327.876 186.094 327.953 185.812 327.953 185.517V184.519C327.907 184.575 327.805 184.626 327.648 184.672C327.494 184.715 327.316 184.753 327.113 184.787C326.913 184.818 326.717 184.846 326.526 184.87C326.339 184.892 326.186 184.91 326.069 184.926C325.786 184.963 325.521 185.023 325.275 185.106C325.032 185.186 324.835 185.307 324.684 185.47C324.537 185.63 324.463 185.849 324.463 186.126C324.463 186.504 324.603 186.791 324.883 186.985C325.166 187.175 325.525 187.271 325.959 187.271ZM332.12 178.629V188.083H331.031V178.629H332.12ZM336.997 188.231C336.356 188.231 335.795 188.079 335.311 187.774C334.831 187.469 334.456 187.043 334.185 186.495C333.917 185.947 333.783 185.307 333.783 184.575C333.783 183.836 333.917 183.191 334.185 182.64C334.456 182.09 334.831 181.662 335.311 181.357C335.795 181.052 336.356 180.9 336.997 180.9C337.637 180.9 338.197 181.052 338.677 181.357C339.16 181.662 339.536 182.09 339.803 182.64C340.074 183.191 340.21 183.836 340.21 184.575C340.21 185.307 340.074 185.947 339.803 186.495C339.536 187.043 339.16 187.469 338.677 187.774C338.197 188.079 337.637 188.231 336.997 188.231ZM336.997 187.252C337.483 187.252 337.883 187.128 338.197 186.878C338.511 186.629 338.743 186.301 338.894 185.895C339.045 185.489 339.12 185.049 339.12 184.575C339.12 184.101 339.045 183.659 338.894 183.25C338.743 182.841 338.511 182.51 338.197 182.257C337.883 182.005 337.483 181.879 336.997 181.879C336.51 181.879 336.11 182.005 335.796 182.257C335.482 182.51 335.25 182.841 335.099 183.25C334.948 183.659 334.873 184.101 334.873 184.575C334.873 185.049 334.948 185.489 335.099 185.895C335.25 186.301 335.482 186.629 335.796 186.878C336.11 187.128 336.51 187.252 336.997 187.252ZM344.735 190.89C344.209 190.89 343.756 190.822 343.378 190.687C342.999 190.555 342.684 190.379 342.431 190.161C342.182 189.945 341.983 189.714 341.836 189.468L342.704 188.859C342.802 188.988 342.927 189.136 343.078 189.302C343.228 189.471 343.435 189.618 343.696 189.741C343.961 189.867 344.307 189.93 344.735 189.93C345.307 189.93 345.78 189.791 346.152 189.514C346.525 189.237 346.711 188.803 346.711 188.213V186.772H346.618C346.538 186.901 346.425 187.062 346.277 187.252C346.132 187.44 345.923 187.608 345.649 187.756C345.378 187.9 345.012 187.973 344.55 187.973C343.978 187.973 343.464 187.837 343.008 187.566C342.556 187.295 342.197 186.901 341.933 186.384C341.671 185.867 341.54 185.24 341.54 184.501C341.54 183.775 341.668 183.142 341.923 182.604C342.179 182.062 342.534 181.643 342.99 181.348C343.445 181.049 343.972 180.9 344.569 180.9C345.03 180.9 345.397 180.977 345.667 181.131C345.941 181.282 346.151 181.454 346.295 181.648C346.443 181.839 346.557 181.996 346.637 182.119H346.748V180.992H347.8V188.286C347.8 188.896 347.662 189.391 347.385 189.773C347.111 190.158 346.741 190.439 346.277 190.618C345.815 190.799 345.301 190.89 344.735 190.89ZM344.698 186.994C345.135 186.994 345.504 186.894 345.806 186.694C346.108 186.494 346.337 186.206 346.494 185.83C346.651 185.455 346.729 185.006 346.729 184.482C346.729 183.972 346.652 183.521 346.498 183.13C346.344 182.739 346.117 182.433 345.815 182.211C345.514 181.99 345.141 181.879 344.698 181.879C344.236 181.879 343.852 181.996 343.544 182.23C343.239 182.464 343.01 182.777 342.856 183.171C342.705 183.565 342.63 184.002 342.63 184.482C342.63 184.975 342.707 185.41 342.861 185.789C343.018 186.164 343.248 186.46 343.553 186.675C343.861 186.888 344.242 186.994 344.698 186.994ZM311.168 196.992C311.112 196.525 310.888 196.161 310.494 195.903C310.1 195.644 309.617 195.515 309.044 195.515C308.626 195.515 308.26 195.583 307.946 195.718C307.635 195.854 307.392 196.04 307.216 196.277C307.044 196.514 306.958 196.783 306.958 197.085C306.958 197.337 307.018 197.554 307.138 197.736C307.261 197.914 307.418 198.063 307.609 198.183C307.799 198.3 307.999 198.397 308.209 198.474C308.418 198.548 308.61 198.608 308.786 198.654L309.746 198.913C309.992 198.977 310.266 199.067 310.568 199.181C310.872 199.294 311.163 199.45 311.44 199.647C311.72 199.841 311.951 200.09 312.133 200.395C312.314 200.699 312.405 201.073 312.405 201.517C312.405 202.027 312.271 202.489 312.003 202.901C311.739 203.314 311.351 203.642 310.84 203.885C310.332 204.128 309.715 204.25 308.989 204.25C308.312 204.25 307.726 204.14 307.23 203.922C306.738 203.703 306.35 203.399 306.067 203.008C305.787 202.617 305.628 202.163 305.591 201.646H306.773C306.804 202.003 306.924 202.298 307.133 202.532C307.345 202.763 307.613 202.935 307.936 203.049C308.263 203.16 308.613 203.215 308.989 203.215C309.426 203.215 309.818 203.145 310.166 203.003C310.514 202.858 310.789 202.658 310.992 202.403C311.196 202.144 311.297 201.843 311.297 201.498C311.297 201.184 311.209 200.929 311.034 200.732C310.859 200.535 310.628 200.375 310.342 200.252C310.055 200.129 309.746 200.021 309.414 199.928L308.25 199.596C307.512 199.384 306.927 199.081 306.496 198.687C306.065 198.293 305.85 197.777 305.85 197.14C305.85 196.611 305.993 196.149 306.279 195.755C306.568 195.358 306.956 195.05 307.442 194.832C307.932 194.61 308.478 194.5 309.081 194.5C309.691 194.5 310.232 194.609 310.706 194.827C311.18 195.043 311.556 195.338 311.833 195.714C312.113 196.089 312.26 196.515 312.276 196.992H311.168ZM317.113 204.231C316.43 204.231 315.84 204.08 315.345 203.779C314.852 203.474 314.472 203.049 314.204 202.504C313.94 201.957 313.807 201.32 313.807 200.593C313.807 199.867 313.94 199.227 314.204 198.673C314.472 198.116 314.845 197.682 315.322 197.371C315.802 197.057 316.362 196.9 317.002 196.9C317.371 196.9 317.736 196.962 318.096 197.085C318.456 197.208 318.784 197.408 319.079 197.685C319.375 197.959 319.61 198.322 319.786 198.774C319.961 199.227 320.049 199.784 320.049 200.446V200.907H314.583V199.965H318.941C318.941 199.565 318.861 199.208 318.701 198.894C318.544 198.58 318.319 198.333 318.027 198.151C317.738 197.97 317.396 197.879 317.002 197.879C316.568 197.879 316.193 197.986 315.876 198.202C315.562 198.414 315.32 198.691 315.151 199.033C314.981 199.375 314.897 199.741 314.897 200.132V200.759C314.897 201.295 314.989 201.749 315.174 202.121C315.362 202.491 315.622 202.772 315.954 202.966C316.286 203.157 316.673 203.252 317.113 203.252C317.399 203.252 317.657 203.212 317.888 203.132C318.122 203.049 318.324 202.926 318.493 202.763C318.662 202.597 318.793 202.391 318.885 202.144L319.938 202.44C319.827 202.797 319.641 203.111 319.379 203.382C319.118 203.649 318.795 203.859 318.41 204.009C318.025 204.157 317.593 204.231 317.113 204.231ZM321.706 204.083V196.992H322.759V198.063H322.833C322.962 197.713 323.196 197.428 323.534 197.209C323.873 196.991 324.254 196.882 324.679 196.882C324.759 196.882 324.859 196.883 324.979 196.886C325.099 196.889 325.19 196.894 325.252 196.9V198.008C325.215 197.999 325.13 197.985 324.998 197.966C324.868 197.945 324.731 197.934 324.587 197.934C324.242 197.934 323.934 198.006 323.664 198.151C323.396 198.293 323.183 198.49 323.026 198.742C322.873 198.991 322.796 199.276 322.796 199.596V204.083H321.706ZM332.557 196.992L329.935 204.083H328.827L326.205 196.992H327.387L329.344 202.643H329.418L331.375 196.992H332.557ZM336.714 204.231C336.031 204.231 335.442 204.08 334.946 203.779C334.454 203.474 334.074 203.049 333.806 202.504C333.541 201.957 333.409 201.32 333.409 200.593C333.409 199.867 333.541 199.227 333.806 198.673C334.074 198.116 334.446 197.682 334.923 197.371C335.403 197.057 335.963 196.9 336.604 196.9C336.973 196.9 337.338 196.962 337.698 197.085C338.058 197.208 338.385 197.408 338.681 197.685C338.976 197.959 339.212 198.322 339.387 198.774C339.563 199.227 339.65 199.784 339.65 200.446V200.907H334.184V199.965H338.542C338.542 199.565 338.462 199.208 338.302 198.894C338.145 198.58 337.921 198.333 337.628 198.151C337.339 197.97 336.997 197.879 336.604 197.879C336.17 197.879 335.794 197.986 335.477 198.202C335.163 198.414 334.922 198.691 334.752 199.033C334.583 199.375 334.498 199.741 334.498 200.132V200.759C334.498 201.295 334.591 201.749 334.775 202.121C334.963 202.491 335.223 202.772 335.556 202.966C335.888 203.157 336.274 203.252 336.714 203.252C337.001 203.252 337.259 203.212 337.49 203.132C337.724 203.049 337.925 202.926 338.095 202.763C338.264 202.597 338.395 202.391 338.487 202.144L339.54 202.44C339.429 202.797 339.243 203.111 338.981 203.382C338.719 203.649 338.396 203.859 338.012 204.009C337.627 204.157 337.194 204.231 336.714 204.231ZM341.308 204.083V196.992H342.36V198.063H342.434C342.563 197.713 342.797 197.428 343.136 197.209C343.474 196.991 343.856 196.882 344.281 196.882C344.361 196.882 344.461 196.883 344.581 196.886C344.701 196.889 344.792 196.894 344.853 196.9V198.008C344.816 197.999 344.732 197.985 344.599 197.966C344.47 197.945 344.333 197.934 344.188 197.934C343.844 197.934 343.536 198.006 343.265 198.151C342.997 198.293 342.785 198.49 342.628 198.742C342.474 198.991 342.397 199.276 342.397 199.596V204.083H341.308Z" fill="white"/>
<rect x="260.417" y="218.833" width="129.167" height="56.25" fill="#00EFB5"/>
<path d="M310.209 235.75H309.064C308.996 235.421 308.878 235.131 308.708 234.882C308.542 234.633 308.339 234.424 308.099 234.254C307.862 234.082 307.599 233.953 307.31 233.866C307.02 233.78 306.719 233.737 306.405 233.737C305.832 233.737 305.314 233.882 304.849 234.171C304.387 234.46 304.02 234.887 303.746 235.45C303.475 236.013 303.339 236.704 303.339 237.523C303.339 238.341 303.475 239.032 303.746 239.595C304.02 240.159 304.387 240.585 304.849 240.874C305.314 241.164 305.832 241.308 306.405 241.308C306.719 241.308 307.02 241.265 307.31 241.179C307.599 241.093 307.862 240.965 308.099 240.796C308.339 240.623 308.542 240.413 308.708 240.163C308.878 239.911 308.996 239.622 309.064 239.295H310.209C310.123 239.779 309.966 240.211 309.738 240.593C309.51 240.974 309.227 241.299 308.888 241.567C308.55 241.831 308.17 242.033 307.748 242.171C307.33 242.31 306.882 242.379 306.405 242.379C305.598 242.379 304.881 242.182 304.253 241.788C303.626 241.394 303.132 240.834 302.772 240.108C302.412 239.382 302.231 238.52 302.231 237.523C302.231 236.526 302.412 235.664 302.772 234.937C303.132 234.211 303.626 233.651 304.253 233.257C304.881 232.863 305.598 232.666 306.405 232.666C306.882 232.666 307.33 232.735 307.748 232.874C308.17 233.012 308.55 233.216 308.888 233.483C309.227 233.748 309.51 234.071 309.738 234.453C309.966 234.831 310.123 235.264 310.209 235.75ZM314.792 242.398C314.152 242.398 313.59 242.245 313.107 241.941C312.627 241.636 312.251 241.21 311.98 240.662C311.713 240.114 311.579 239.474 311.579 238.741C311.579 238.003 311.713 237.358 311.98 236.807C312.251 236.256 312.627 235.828 313.107 235.524C313.59 235.219 314.152 235.067 314.792 235.067C315.432 235.067 315.992 235.219 316.472 235.524C316.955 235.828 317.331 236.256 317.599 236.807C317.869 237.358 318.005 238.003 318.005 238.741C318.005 239.474 317.869 240.114 317.599 240.662C317.331 241.21 316.955 241.636 316.472 241.941C315.992 242.245 315.432 242.398 314.792 242.398ZM314.792 241.419C315.278 241.419 315.678 241.294 315.992 241.045C316.306 240.796 316.538 240.468 316.689 240.062C316.84 239.656 316.915 239.215 316.915 238.741C316.915 238.267 316.84 237.826 316.689 237.417C316.538 237.007 316.306 236.676 315.992 236.424C315.678 236.172 315.278 236.045 314.792 236.045C314.305 236.045 313.905 236.172 313.591 236.424C313.278 236.676 313.045 237.007 312.894 237.417C312.744 237.826 312.668 238.267 312.668 238.741C312.668 239.215 312.744 239.656 312.894 240.062C313.045 240.468 313.278 240.796 313.591 241.045C313.905 241.294 314.305 241.419 314.792 241.419ZM320.757 237.984V242.25H319.668V235.159H320.72V236.267H320.813C320.979 235.907 321.231 235.618 321.57 235.399C321.908 235.178 322.345 235.067 322.881 235.067C323.361 235.067 323.781 235.165 324.141 235.362C324.501 235.556 324.781 235.852 324.981 236.249C325.182 236.642 325.282 237.141 325.282 237.744V242.25H324.192V237.818C324.192 237.261 324.047 236.827 323.758 236.516C323.469 236.202 323.072 236.045 322.567 236.045C322.219 236.045 321.908 236.121 321.635 236.272C321.364 236.422 321.15 236.642 320.993 236.932C320.836 237.221 320.757 237.572 320.757 237.984ZM330.356 235.159V236.082H326.681V235.159H330.356ZM327.753 233.46H328.842V240.219C328.842 240.526 328.887 240.757 328.976 240.911C329.068 241.062 329.185 241.164 329.327 241.216C329.471 241.265 329.624 241.29 329.784 241.29C329.904 241.29 330.002 241.284 330.079 241.271C330.156 241.256 330.218 241.244 330.264 241.234L330.485 242.213C330.412 242.241 330.308 242.268 330.176 242.296C330.044 242.327 329.876 242.342 329.673 242.342C329.365 242.342 329.064 242.276 328.768 242.144C328.476 242.011 328.233 241.81 328.039 241.539C327.848 241.268 327.753 240.927 327.753 240.514V233.46ZM331.995 242.25V235.159H333.048V236.23H333.121C333.251 235.879 333.485 235.595 333.823 235.376C334.162 235.158 334.543 235.048 334.968 235.048C335.048 235.048 335.148 235.05 335.268 235.053C335.388 235.056 335.479 235.061 335.541 235.067V236.175C335.504 236.165 335.419 236.152 335.287 236.133C335.157 236.112 335.02 236.101 334.876 236.101C334.531 236.101 334.223 236.173 333.952 236.318C333.685 236.459 333.472 236.656 333.315 236.909C333.161 237.158 333.085 237.443 333.085 237.763V242.25H331.995ZM339.497 242.398C338.857 242.398 338.295 242.245 337.812 241.941C337.332 241.636 336.956 241.21 336.685 240.662C336.418 240.114 336.284 239.474 336.284 238.741C336.284 238.003 336.418 237.358 336.685 236.807C336.956 236.256 337.332 235.828 337.812 235.524C338.295 235.219 338.857 235.067 339.497 235.067C340.137 235.067 340.697 235.219 341.177 235.524C341.66 235.828 342.036 236.256 342.304 236.807C342.574 237.358 342.71 238.003 342.71 238.741C342.71 239.474 342.574 240.114 342.304 240.662C342.036 241.21 341.66 241.636 341.177 241.941C340.697 242.245 340.137 242.398 339.497 242.398ZM339.497 241.419C339.983 241.419 340.383 241.294 340.697 241.045C341.011 240.796 341.243 240.468 341.394 240.062C341.545 239.656 341.62 239.215 341.62 238.741C341.62 238.267 341.545 237.826 341.394 237.417C341.243 237.007 341.011 236.676 340.697 236.424C340.383 236.172 339.983 236.045 339.497 236.045C339.011 236.045 338.61 236.172 338.297 236.424C337.983 236.676 337.75 237.007 337.599 237.417C337.449 237.826 337.373 238.267 337.373 238.741C337.373 239.215 337.449 239.656 337.599 240.062C337.75 240.468 337.983 240.796 338.297 241.045C338.61 241.294 339.011 241.419 339.497 241.419ZM345.462 232.795V242.25H344.373V232.795H345.462ZM308.187 258.25V248.795H311.381C312.123 248.795 312.729 248.929 313.2 249.197C313.674 249.462 314.025 249.82 314.253 250.273C314.481 250.725 314.594 251.23 314.594 251.787C314.594 252.344 314.481 252.85 314.253 253.306C314.028 253.761 313.68 254.124 313.209 254.395C312.739 254.663 312.135 254.797 311.4 254.797H309.11V253.781H311.363C311.871 253.781 312.278 253.694 312.586 253.518C312.894 253.343 313.117 253.106 313.256 252.807C313.397 252.506 313.468 252.165 313.468 251.787C313.468 251.408 313.397 251.07 313.256 250.771C313.117 250.473 312.892 250.239 312.582 250.07C312.271 249.897 311.858 249.811 311.344 249.811H309.332V258.25H308.187ZM317.38 248.795V258.25H316.291V248.795H317.38ZM321.463 258.416C321.013 258.416 320.605 258.332 320.239 258.162C319.873 257.99 319.582 257.742 319.367 257.419C319.151 257.093 319.044 256.699 319.044 256.237C319.044 255.831 319.124 255.502 319.284 255.249C319.444 254.994 319.658 254.794 319.925 254.649C320.193 254.504 320.488 254.397 320.812 254.326C321.138 254.252 321.466 254.194 321.795 254.151C322.226 254.095 322.575 254.054 322.843 254.026C323.114 253.995 323.311 253.944 323.434 253.874C323.56 253.803 323.623 253.68 323.623 253.504V253.467C323.623 253.012 323.498 252.658 323.249 252.406C323.003 252.153 322.629 252.027 322.127 252.027C321.607 252.027 321.199 252.141 320.904 252.369C320.609 252.596 320.401 252.839 320.281 253.098L319.247 252.729C319.431 252.298 319.678 251.962 319.985 251.722C320.296 251.479 320.635 251.31 321.001 251.214C321.37 251.116 321.733 251.067 322.09 251.067C322.318 251.067 322.58 251.094 322.875 251.15C323.174 251.202 323.461 251.311 323.738 251.478C324.019 251.644 324.251 251.895 324.436 252.23C324.62 252.566 324.713 253.015 324.713 253.578V258.25H323.623V257.29H323.568C323.494 257.444 323.371 257.608 323.198 257.784C323.026 257.959 322.797 258.108 322.51 258.232C322.224 258.355 321.875 258.416 321.463 258.416ZM321.629 257.437C322.06 257.437 322.423 257.353 322.718 257.184C323.017 257.014 323.241 256.796 323.392 256.528C323.546 256.26 323.623 255.979 323.623 255.683V254.686C323.577 254.741 323.475 254.792 323.318 254.838C323.164 254.881 322.986 254.92 322.783 254.954C322.583 254.985 322.387 255.012 322.197 255.037C322.009 255.058 321.856 255.077 321.74 255.092C321.456 255.129 321.192 255.189 320.946 255.272C320.702 255.352 320.505 255.474 320.355 255.637C320.207 255.797 320.133 256.016 320.133 256.293C320.133 256.671 320.273 256.957 320.553 257.151C320.836 257.342 321.195 257.437 321.629 257.437ZM327.791 253.984V258.25H326.701V251.159H327.754V252.267H327.846C328.012 251.907 328.265 251.618 328.603 251.399C328.942 251.178 329.379 251.067 329.914 251.067C330.394 251.067 330.814 251.165 331.174 251.362C331.535 251.556 331.815 251.852 332.015 252.249C332.215 252.642 332.315 253.141 332.315 253.744V258.25H331.225V253.818C331.225 253.261 331.081 252.827 330.791 252.516C330.502 252.202 330.105 252.045 329.6 252.045C329.252 252.045 328.942 252.121 328.668 252.272C328.397 252.422 328.183 252.642 328.026 252.932C327.869 253.221 327.791 253.572 327.791 253.984ZM337.279 258.398C336.595 258.398 336.006 258.247 335.51 257.945C335.018 257.641 334.638 257.216 334.37 256.671C334.106 256.123 333.973 255.486 333.973 254.76C333.973 254.034 334.106 253.393 334.37 252.839C334.638 252.282 335.01 251.848 335.487 251.538C335.968 251.224 336.528 251.067 337.168 251.067C337.537 251.067 337.902 251.128 338.262 251.251C338.622 251.374 338.95 251.575 339.245 251.852C339.541 252.125 339.776 252.489 339.952 252.941C340.127 253.393 340.215 253.95 340.215 254.612V255.074H334.749V254.132H339.107C339.107 253.732 339.027 253.375 338.867 253.061C338.71 252.747 338.485 252.499 338.193 252.318C337.903 252.136 337.562 252.045 337.168 252.045C336.734 252.045 336.358 252.153 336.041 252.369C335.727 252.581 335.486 252.858 335.317 253.2C335.147 253.541 335.063 253.907 335.063 254.298V254.926C335.063 255.462 335.155 255.916 335.34 256.288C335.527 256.657 335.787 256.939 336.12 257.133C336.452 257.324 336.839 257.419 337.279 257.419C337.565 257.419 337.823 257.379 338.054 257.299C338.288 257.216 338.49 257.093 338.659 256.93C338.828 256.763 338.959 256.557 339.051 256.311L340.104 256.607C339.993 256.964 339.807 257.277 339.545 257.548C339.284 257.816 338.961 258.025 338.576 258.176C338.191 258.324 337.759 258.398 337.279 258.398Z" fill="black"/>
<path d="M260.417 275.083H389.583V326.25C389.583 327.907 388.24 329.25 386.583 329.25H263.417C261.76 329.25 260.417 327.907 260.417 326.25V275.083Z" fill="#BFBFBF"/>
<path d="M313.662 298.5H310.745V289.045H313.792C314.709 289.045 315.494 289.235 316.146 289.613C316.799 289.989 317.299 290.529 317.646 291.234C317.994 291.935 318.168 292.776 318.168 293.754C318.168 294.739 317.993 295.587 317.642 296.298C317.291 297.006 316.78 297.551 316.109 297.932C315.438 298.311 314.623 298.5 313.662 298.5ZM311.89 297.484H313.589C314.37 297.484 315.018 297.334 315.532 297.032C316.046 296.73 316.429 296.301 316.682 295.744C316.934 295.187 317.06 294.524 317.06 293.754C317.06 292.991 316.936 292.334 316.686 291.783C316.437 291.229 316.065 290.804 315.569 290.509C315.074 290.21 314.456 290.061 313.718 290.061H311.89V297.484ZM322.027 298.666C321.578 298.666 321.17 298.582 320.804 298.412C320.438 298.24 320.147 297.992 319.932 297.669C319.716 297.343 319.608 296.949 319.608 296.487C319.608 296.081 319.688 295.752 319.849 295.499C320.009 295.244 320.222 295.044 320.49 294.899C320.758 294.754 321.053 294.647 321.377 294.576C321.703 294.502 322.031 294.444 322.36 294.401C322.791 294.345 323.14 294.304 323.408 294.276C323.679 294.245 323.876 294.194 323.999 294.124C324.125 294.053 324.188 293.93 324.188 293.754V293.717C324.188 293.262 324.063 292.908 323.814 292.656C323.568 292.403 323.194 292.277 322.692 292.277C322.172 292.277 321.764 292.391 321.469 292.619C321.173 292.846 320.966 293.089 320.846 293.348L319.812 292.979C319.996 292.548 320.242 292.212 320.55 291.972C320.861 291.729 321.2 291.56 321.566 291.464C321.935 291.366 322.298 291.317 322.655 291.317C322.883 291.317 323.145 291.344 323.44 291.4C323.739 291.452 324.026 291.561 324.303 291.728C324.583 291.894 324.816 292.145 325.001 292.48C325.185 292.816 325.277 293.265 325.277 293.828V298.5H324.188V297.54H324.133C324.059 297.694 323.936 297.858 323.763 298.034C323.591 298.209 323.362 298.358 323.075 298.482C322.789 298.605 322.44 298.666 322.027 298.666ZM322.194 297.688C322.625 297.688 322.988 297.603 323.283 297.434C323.582 297.264 323.806 297.046 323.957 296.778C324.111 296.51 324.188 296.229 324.188 295.933V294.936C324.142 294.991 324.04 295.042 323.883 295.088C323.729 295.132 323.551 295.17 323.348 295.204C323.148 295.235 322.952 295.262 322.762 295.287C322.574 295.308 322.421 295.327 322.304 295.342C322.021 295.379 321.757 295.439 321.51 295.522C321.267 295.602 321.07 295.724 320.92 295.887C320.772 296.047 320.698 296.266 320.698 296.543C320.698 296.921 320.838 297.207 321.118 297.401C321.401 297.592 321.76 297.688 322.194 297.688ZM330.35 291.409V292.332H326.675V291.409H330.35ZM327.746 289.71H328.836V296.469C328.836 296.777 328.88 297.007 328.97 297.161C329.062 297.312 329.179 297.414 329.32 297.466C329.465 297.515 329.617 297.54 329.777 297.54C329.897 297.54 329.996 297.534 330.073 297.521C330.15 297.506 330.211 297.494 330.258 297.484L330.479 298.463C330.405 298.491 330.302 298.518 330.17 298.546C330.037 298.577 329.87 298.592 329.667 298.592C329.359 298.592 329.057 298.526 328.762 298.394C328.469 298.261 328.226 298.06 328.032 297.789C327.842 297.518 327.746 297.177 327.746 296.764V289.71ZM334.075 298.666C333.626 298.666 333.218 298.582 332.852 298.412C332.486 298.24 332.195 297.992 331.979 297.669C331.764 297.343 331.656 296.949 331.656 296.487C331.656 296.081 331.736 295.752 331.896 295.499C332.056 295.244 332.27 295.044 332.538 294.899C332.806 294.754 333.101 294.647 333.424 294.576C333.751 294.502 334.078 294.444 334.408 294.401C334.839 294.345 335.188 294.304 335.456 294.276C335.727 294.245 335.923 294.194 336.047 294.124C336.173 294.053 336.236 293.93 336.236 293.754V293.717C336.236 293.262 336.111 292.908 335.862 292.656C335.616 292.403 335.242 292.277 334.74 292.277C334.22 292.277 333.812 292.391 333.517 292.619C333.221 292.846 333.014 293.089 332.894 293.348L331.859 292.979C332.044 292.548 332.29 292.212 332.598 291.972C332.909 291.729 333.247 291.56 333.614 291.464C333.983 291.366 334.346 291.317 334.703 291.317C334.931 291.317 335.193 291.344 335.488 291.4C335.787 291.452 336.074 291.561 336.351 291.728C336.631 291.894 336.864 292.145 337.048 292.48C337.233 292.816 337.325 293.265 337.325 293.828V298.5H336.236V297.54H336.18C336.107 297.694 335.983 297.858 335.811 298.034C335.639 298.209 335.41 298.358 335.123 298.482C334.837 298.605 334.488 298.666 334.075 298.666ZM334.242 297.688C334.672 297.688 335.036 297.603 335.331 297.434C335.63 297.264 335.854 297.046 336.005 296.778C336.159 296.51 336.236 296.229 336.236 295.933V294.936C336.19 294.991 336.088 295.042 335.931 295.088C335.777 295.132 335.599 295.17 335.396 295.204C335.196 295.235 335 295.262 334.809 295.287C334.622 295.308 334.469 295.327 334.352 295.342C334.069 295.379 333.805 295.439 333.558 295.522C333.315 295.602 333.118 295.724 332.967 295.887C332.82 296.047 332.746 296.266 332.746 296.543C332.746 296.921 332.886 297.207 333.166 297.401C333.449 297.592 333.808 297.688 334.242 297.688ZM308.187 314.5V305.045H311.381C312.123 305.045 312.729 305.179 313.2 305.447C313.674 305.712 314.025 306.07 314.253 306.523C314.481 306.975 314.594 307.48 314.594 308.037C314.594 308.594 314.481 309.1 314.253 309.556C314.028 310.011 313.68 310.374 313.209 310.645C312.739 310.913 312.135 311.047 311.4 311.047H309.11V310.031H311.363C311.871 310.031 312.278 309.944 312.586 309.768C312.894 309.593 313.117 309.356 313.256 309.057C313.397 308.756 313.468 308.415 313.468 308.037C313.468 307.658 313.397 307.32 313.256 307.021C313.117 306.723 312.892 306.489 312.582 306.32C312.271 306.147 311.858 306.061 311.344 306.061H309.332V314.5H308.187ZM317.38 305.045V314.5H316.291V305.045H317.38ZM321.463 314.666C321.013 314.666 320.605 314.582 320.239 314.412C319.873 314.24 319.582 313.992 319.367 313.669C319.151 313.343 319.044 312.949 319.044 312.487C319.044 312.081 319.124 311.752 319.284 311.499C319.444 311.244 319.658 311.044 319.925 310.899C320.193 310.754 320.488 310.647 320.812 310.576C321.138 310.502 321.466 310.444 321.795 310.401C322.226 310.345 322.575 310.304 322.843 310.276C323.114 310.245 323.311 310.194 323.434 310.124C323.56 310.053 323.623 309.93 323.623 309.754V309.717C323.623 309.262 323.498 308.908 323.249 308.656C323.003 308.403 322.629 308.277 322.127 308.277C321.607 308.277 321.199 308.391 320.904 308.619C320.609 308.846 320.401 309.089 320.281 309.348L319.247 308.979C319.431 308.548 319.678 308.212 319.985 307.972C320.296 307.729 320.635 307.56 321.001 307.464C321.37 307.366 321.733 307.317 322.09 307.317C322.318 307.317 322.58 307.344 322.875 307.4C323.174 307.452 323.461 307.561 323.738 307.728C324.019 307.894 324.251 308.145 324.436 308.48C324.62 308.816 324.713 309.265 324.713 309.828V314.5H323.623V313.54H323.568C323.494 313.694 323.371 313.858 323.198 314.034C323.026 314.209 322.797 314.358 322.51 314.482C322.224 314.605 321.875 314.666 321.463 314.666ZM321.629 313.688C322.06 313.688 322.423 313.603 322.718 313.434C323.017 313.264 323.241 313.046 323.392 312.778C323.546 312.51 323.623 312.229 323.623 311.933V310.936C323.577 310.991 323.475 311.042 323.318 311.088C323.164 311.132 322.986 311.17 322.783 311.204C322.583 311.235 322.387 311.262 322.197 311.287C322.009 311.308 321.856 311.327 321.74 311.342C321.456 311.379 321.192 311.439 320.946 311.522C320.702 311.602 320.505 311.724 320.355 311.887C320.207 312.047 320.133 312.266 320.133 312.543C320.133 312.921 320.273 313.207 320.553 313.401C320.836 313.592 321.195 313.688 321.629 313.688ZM327.791 310.234V314.5H326.701V307.409H327.754V308.517H327.846C328.012 308.157 328.265 307.868 328.603 307.649C328.942 307.428 329.379 307.317 329.914 307.317C330.394 307.317 330.814 307.415 331.174 307.612C331.535 307.806 331.815 308.102 332.015 308.499C332.215 308.893 332.315 309.391 332.315 309.994V314.5H331.225V310.068C331.225 309.511 331.081 309.077 330.791 308.766C330.502 308.452 330.105 308.295 329.6 308.295C329.252 308.295 328.942 308.371 328.668 308.522C328.397 308.672 328.183 308.893 328.026 309.182C327.869 309.471 327.791 309.822 327.791 310.234ZM337.279 314.648C336.595 314.648 336.006 314.497 335.51 314.195C335.018 313.891 334.638 313.466 334.37 312.921C334.106 312.373 333.973 311.736 333.973 311.01C333.973 310.284 334.106 309.643 334.37 309.089C334.638 308.532 335.01 308.098 335.487 307.788C335.968 307.474 336.528 307.317 337.168 307.317C337.537 307.317 337.902 307.378 338.262 307.501C338.622 307.625 338.95 307.825 339.245 308.102C339.541 308.375 339.776 308.739 339.952 309.191C340.127 309.643 340.215 310.201 340.215 310.862V311.324H334.749V310.382H339.107C339.107 309.982 339.027 309.625 338.867 309.311C338.71 308.997 338.485 308.749 338.193 308.568C337.903 308.386 337.562 308.295 337.168 308.295C336.734 308.295 336.358 308.403 336.041 308.619C335.727 308.831 335.486 309.108 335.317 309.45C335.147 309.791 335.063 310.157 335.063 310.548V311.176C335.063 311.712 335.155 312.166 335.34 312.538C335.527 312.907 335.787 313.189 336.12 313.383C336.452 313.574 336.839 313.669 337.279 313.669C337.565 313.669 337.823 313.629 338.054 313.549C338.288 313.466 338.49 313.343 338.659 313.18C338.828 313.013 338.959 312.807 339.051 312.561L340.104 312.857C339.993 313.214 339.807 313.527 339.545 313.798C339.284 314.066 338.961 314.275 338.576 314.426C338.191 314.574 337.759 314.648 337.279 314.648Z" fill="black"/>
<path d="M149 116L160.221 113.276L152.251 104.92L149 116ZM213.31 53.2764L154.822 109.064L156.203 110.512L214.69 54.7236L213.31 53.2764Z" fill="#00B0F0"/>
<path d="M279 116L267.779 113.276L275.749 104.92L279 116ZM214.69 53.2764L273.178 109.064L271.797 110.512L213.31 54.7236L214.69 53.2764Z" fill="#00B0F0"/>
</svg>
