<svg width="427" height="320" viewBox="0 0 427 320" fill="none" xmlns="http://www.w3.org/2000/svg">
<rect x="130" y="1" width="167" height="140" rx="4" stroke="#FFC000" stroke-width="2"/>
<path d="M149 21C149 19.3431 150.343 18 152 18H275.167C276.824 18 278.167 19.3431 278.167 21V72.1667H149V21Z" fill="#00B0F0"/>
<path d="M198.539 34.9167H197.394C197.326 34.5873 197.208 34.298 197.038 34.0488C196.872 33.7995 196.669 33.5902 196.429 33.4209C196.192 33.2486 195.929 33.1193 195.64 33.0331C195.35 32.947 195.049 32.9039 194.735 32.9039C194.162 32.9039 193.644 33.0485 193.179 33.3378C192.717 33.6271 192.35 34.0534 192.076 34.6166C191.805 35.1798 191.669 35.8707 191.669 36.6894C191.669 37.508 191.805 38.199 192.076 38.7622C192.35 39.3254 192.717 39.7516 193.179 40.0409C193.644 40.3302 194.162 40.4749 194.735 40.4749C195.049 40.4749 195.35 40.4318 195.64 40.3456C195.929 40.2595 196.192 40.1317 196.429 39.9625C196.669 39.7901 196.872 39.5793 197.038 39.33C197.208 39.0776 197.326 38.7883 197.394 38.4621H198.539C198.453 38.9453 198.296 39.3777 198.068 39.7593C197.84 40.141 197.557 40.4657 197.218 40.7334C196.88 40.9981 196.5 41.1997 196.078 41.3382C195.66 41.4767 195.212 41.5459 194.735 41.5459C193.928 41.5459 193.211 41.3489 192.584 40.955C191.956 40.5611 191.462 40.0009 191.102 39.2746C190.742 38.5483 190.562 37.6865 190.562 36.6894C190.562 35.6922 190.742 34.8305 191.102 34.1042C191.462 33.3778 191.956 32.8177 192.584 32.4238C193.211 32.0298 193.928 31.8328 194.735 31.8328C195.212 31.8328 195.66 31.9021 196.078 32.0406C196.5 32.1791 196.88 32.3822 197.218 32.65C197.557 32.9146 197.84 33.2378 198.068 33.6194C198.296 33.998 198.453 34.4304 198.539 34.9167ZM202.328 41.5828C201.878 41.5828 201.471 41.4982 201.104 41.3289C200.738 41.1566 200.447 40.9088 200.232 40.5857C200.016 40.2595 199.909 39.8655 199.909 39.4039C199.909 38.9976 199.989 38.6683 200.149 38.4159C200.309 38.1605 200.523 37.9605 200.79 37.8158C201.058 37.6712 201.354 37.5634 201.677 37.4927C202.003 37.4188 202.331 37.3603 202.66 37.3172C203.091 37.2618 203.44 37.2203 203.708 37.1926C203.979 37.1618 204.176 37.111 204.299 37.0402C204.425 36.9694 204.488 36.8463 204.488 36.6709V36.634C204.488 36.1785 204.364 35.8246 204.114 35.5722C203.868 35.3198 203.494 35.1936 202.993 35.1936C202.472 35.1936 202.065 35.3075 201.769 35.5353C201.474 35.763 201.266 36.0061 201.146 36.2647L200.112 35.8953C200.297 35.4645 200.543 35.129 200.851 34.889C201.161 34.6458 201.5 34.4766 201.866 34.3811C202.235 34.2827 202.599 34.2334 202.956 34.2334C203.183 34.2334 203.445 34.2611 203.74 34.3165C204.039 34.3688 204.327 34.4781 204.604 34.6443C204.884 34.8105 205.116 35.0613 205.301 35.3968C205.485 35.7322 205.578 36.1816 205.578 36.7448V41.4167H204.488V40.4564H204.433C204.359 40.6103 204.236 40.775 204.064 40.9504C203.891 41.1258 203.662 41.2751 203.376 41.3982C203.09 41.5213 202.74 41.5828 202.328 41.5828ZM202.494 40.6042C202.925 40.6042 203.288 40.5195 203.583 40.3503C203.882 40.181 204.107 39.9625 204.257 39.6947C204.411 39.427 204.488 39.1453 204.488 38.8499V37.8527C204.442 37.9081 204.341 37.9589 204.184 38.0051C204.03 38.0482 203.851 38.0866 203.648 38.1205C203.448 38.1513 203.253 38.179 203.062 38.2036C202.874 38.2251 202.722 38.2436 202.605 38.259C202.322 38.2959 202.057 38.3559 201.811 38.439C201.568 38.519 201.371 38.6406 201.22 38.8037C201.072 38.9638 200.998 39.1823 200.998 39.4593C200.998 39.8378 201.138 40.124 201.418 40.3179C201.701 40.5087 202.06 40.6042 202.494 40.6042ZM210.65 34.3257V35.249H206.975V34.3257H210.65ZM208.046 32.6269H209.136V39.3854C209.136 39.6932 209.181 39.924 209.27 40.0779C209.362 40.2287 209.479 40.3302 209.621 40.3826C209.765 40.4318 209.918 40.4564 210.078 40.4564C210.198 40.4564 210.296 40.4503 210.373 40.438C210.45 40.4226 210.512 40.4103 210.558 40.401L210.779 41.3797C210.706 41.4074 210.602 41.4351 210.47 41.4628C210.338 41.4936 210.17 41.509 209.967 41.509C209.659 41.509 209.358 41.4428 209.062 41.3105C208.77 41.1781 208.527 40.9766 208.333 40.7057C208.142 40.4349 208.046 40.0933 208.046 39.6809V32.6269ZM214.376 41.5828C213.926 41.5828 213.519 41.4982 213.152 41.3289C212.786 41.1566 212.495 40.9088 212.28 40.5857C212.064 40.2595 211.957 39.8655 211.957 39.4039C211.957 38.9976 212.037 38.6683 212.197 38.4159C212.357 38.1605 212.571 37.9605 212.838 37.8158C213.106 37.6712 213.402 37.5634 213.725 37.4927C214.051 37.4188 214.379 37.3603 214.708 37.3172C215.139 37.2618 215.488 37.2203 215.756 37.1926C216.027 37.1618 216.224 37.111 216.347 37.0402C216.473 36.9694 216.536 36.8463 216.536 36.6709V36.634C216.536 36.1785 216.412 35.8246 216.162 35.5722C215.916 35.3198 215.542 35.1936 215.04 35.1936C214.52 35.1936 214.112 35.3075 213.817 35.5353C213.522 35.763 213.314 36.0061 213.194 36.2647L212.16 35.8953C212.344 35.4645 212.591 35.129 212.898 34.889C213.209 34.6458 213.548 34.4766 213.914 34.3811C214.283 34.2827 214.646 34.2334 215.003 34.2334C215.231 34.2334 215.493 34.2611 215.788 34.3165C216.087 34.3688 216.375 34.4781 216.652 34.6443C216.932 34.8105 217.164 35.0613 217.349 35.3968C217.533 35.7322 217.626 36.1816 217.626 36.7448V41.4167H216.536V40.4564H216.481C216.407 40.6103 216.284 40.775 216.111 40.9504C215.939 41.1258 215.71 41.2751 215.424 41.3982C215.137 41.5213 214.788 41.5828 214.376 41.5828ZM214.542 40.6042C214.973 40.6042 215.336 40.5195 215.631 40.3503C215.93 40.181 216.155 39.9625 216.305 39.6947C216.459 39.427 216.536 39.1453 216.536 38.8499V37.8527C216.49 37.9081 216.388 37.9589 216.231 38.0051C216.078 38.0482 215.899 38.0866 215.696 38.1205C215.496 38.1513 215.3 38.179 215.11 38.2036C214.922 38.2251 214.77 38.2436 214.653 38.259C214.369 38.2959 214.105 38.3559 213.859 38.439C213.615 38.519 213.418 38.6406 213.268 38.8037C213.12 38.9638 213.046 39.1823 213.046 39.4593C213.046 39.8378 213.186 40.124 213.466 40.3179C213.749 40.5087 214.108 40.6042 214.542 40.6042ZM220.704 31.9621V41.4167H219.614V31.9621H220.704ZM225.58 41.5644C224.94 41.5644 224.378 41.412 223.895 41.1074C223.415 40.8027 223.039 40.3764 222.768 39.8286C222.501 39.2808 222.367 38.6406 222.367 37.9081C222.367 37.1695 222.501 36.5247 222.768 35.9738C223.039 35.4229 223.415 34.9951 223.895 34.6904C224.378 34.3858 224.94 34.2334 225.58 34.2334C226.22 34.2334 226.78 34.3858 227.26 34.6904C227.743 34.9951 228.119 35.4229 228.387 35.9738C228.657 36.5247 228.793 37.1695 228.793 37.9081C228.793 38.6406 228.657 39.2808 228.387 39.8286C228.119 40.3764 227.743 40.8027 227.26 41.1074C226.78 41.412 226.22 41.5644 225.58 41.5644ZM225.58 40.5857C226.066 40.5857 226.466 40.461 226.78 40.2118C227.094 39.9625 227.326 39.6347 227.477 39.2284C227.628 38.8222 227.703 38.3821 227.703 37.9081C227.703 37.4342 227.628 36.9925 227.477 36.5832C227.326 36.1739 227.094 35.843 226.78 35.5907C226.466 35.3383 226.066 35.2121 225.58 35.2121C225.094 35.2121 224.693 35.3383 224.38 35.5907C224.066 35.843 223.833 36.1739 223.682 36.5832C223.532 36.9925 223.456 37.4342 223.456 37.9081C223.456 38.3821 223.532 38.8222 223.682 39.2284C223.833 39.6347 224.066 39.9625 224.38 40.2118C224.693 40.461 225.094 40.5857 225.58 40.5857ZM233.318 44.2235C232.792 44.2235 232.34 44.1558 231.961 44.0203C231.582 43.888 231.267 43.7126 231.015 43.4941C230.765 43.2786 230.567 43.0478 230.419 42.8016L231.287 42.1922C231.385 42.3215 231.51 42.4692 231.661 42.6354C231.812 42.8047 232.018 42.9509 232.279 43.074C232.544 43.2002 232.89 43.2632 233.318 43.2632C233.891 43.2632 234.363 43.1248 234.735 42.8478C235.108 42.5708 235.294 42.1368 235.294 41.5459V40.1056H235.202C235.122 40.2348 235.008 40.3949 234.86 40.5857C234.715 40.7734 234.506 40.9412 234.232 41.0889C233.961 41.2335 233.595 41.3059 233.134 41.3059C232.561 41.3059 232.047 41.1704 231.592 40.8996C231.139 40.6288 230.781 40.2348 230.516 39.7178C230.254 39.2007 230.124 38.5729 230.124 37.8343C230.124 37.1079 230.251 36.4755 230.507 35.9369C230.762 35.3952 231.118 34.9767 231.573 34.6812C232.029 34.3827 232.555 34.2334 233.152 34.2334C233.614 34.2334 233.98 34.3104 234.251 34.4642C234.525 34.615 234.734 34.7874 234.879 34.9813C235.026 35.1721 235.14 35.3291 235.22 35.4522H235.331V34.3257H236.384V41.6198C236.384 42.2292 236.245 42.7247 235.968 43.1063C235.694 43.491 235.325 43.7726 234.86 43.9511C234.398 44.1327 233.884 44.2235 233.318 44.2235ZM233.281 40.3272C233.718 40.3272 234.088 40.2271 234.389 40.0271C234.691 39.827 234.92 39.5393 235.077 39.1638C235.234 38.7883 235.313 38.339 235.313 37.8158C235.313 37.3049 235.236 36.854 235.082 36.4632C234.928 36.0723 234.7 35.7661 234.398 35.5445C234.097 35.3229 233.724 35.2121 233.281 35.2121C232.82 35.2121 232.435 35.3291 232.127 35.563C231.822 35.7969 231.593 36.1108 231.439 36.5047C231.288 36.8987 231.213 37.3357 231.213 37.8158C231.213 38.3082 231.29 38.7437 231.444 39.1223C231.601 39.4977 231.832 39.7932 232.136 40.0086C232.444 40.221 232.826 40.3272 233.281 40.3272ZM199.751 50.3257C199.696 49.8579 199.471 49.4948 199.077 49.2363C198.683 48.9777 198.2 48.8485 197.628 48.8485C197.209 48.8485 196.843 48.9162 196.529 49.0516C196.218 49.187 195.975 49.3732 195.8 49.6102C195.627 49.8472 195.541 50.1165 195.541 50.4181C195.541 50.6704 195.601 50.8874 195.721 51.069C195.844 51.2475 196.001 51.3968 196.192 51.5168C196.383 51.6337 196.583 51.7307 196.792 51.8076C197.001 51.8815 197.194 51.9415 197.369 51.9877L198.329 52.2462C198.576 52.3108 198.849 52.4001 199.151 52.514C199.456 52.6278 199.747 52.7833 200.024 52.9802C200.304 53.1741 200.534 53.4234 200.716 53.7281C200.898 54.0328 200.988 54.4067 200.988 54.8499C200.988 55.3608 200.855 55.8224 200.587 56.2348C200.322 56.6472 199.934 56.975 199.423 57.2181C198.916 57.4613 198.299 57.5828 197.572 57.5828C196.895 57.5828 196.309 57.4736 195.813 57.2551C195.321 57.0366 194.933 56.7319 194.65 56.341C194.37 55.9502 194.211 55.4962 194.175 54.9792H195.356C195.387 55.3362 195.507 55.6316 195.716 55.8655C195.929 56.0963 196.197 56.2687 196.52 56.3826C196.846 56.4934 197.197 56.5488 197.572 56.5488C198.009 56.5488 198.402 56.478 198.749 56.3364C199.097 56.1918 199.373 55.9917 199.576 55.7363C199.779 55.4777 199.88 55.1761 199.88 54.8314C199.88 54.5175 199.793 54.2621 199.617 54.0651C199.442 53.8681 199.211 53.7081 198.925 53.585C198.639 53.4619 198.329 53.3542 197.997 53.2618L196.834 52.9294C196.095 52.7171 195.51 52.4139 195.079 52.02C194.648 51.6261 194.433 51.1105 194.433 50.4735C194.433 49.9441 194.576 49.4825 194.862 49.0885C195.152 48.6915 195.539 48.3837 196.026 48.1652C196.515 47.9436 197.061 47.8328 197.665 47.8328C198.274 47.8328 198.816 47.9421 199.29 48.1606C199.764 48.3761 200.139 48.6715 200.416 49.047C200.696 49.4225 200.844 49.8487 200.859 50.3257H199.751ZM205.696 57.5644C205.013 57.5644 204.423 57.4136 203.928 57.112C203.436 56.8073 203.055 56.3826 202.788 55.8378C202.523 55.29 202.391 54.6529 202.391 53.9266C202.391 53.2003 202.523 52.5601 202.788 52.0061C203.055 51.4491 203.428 51.0151 203.905 50.7043C204.385 50.3904 204.945 50.2334 205.585 50.2334C205.955 50.2334 206.319 50.295 206.679 50.4181C207.039 50.5412 207.367 50.7412 207.663 51.0182C207.958 51.2921 208.194 51.6553 208.369 52.1077C208.544 52.5601 208.632 53.1172 208.632 53.7789V54.2405H203.166V53.2988H207.524C207.524 52.8987 207.444 52.5417 207.284 52.2277C207.127 51.9138 206.903 51.6661 206.61 51.4845C206.321 51.3029 205.979 51.2121 205.585 51.2121C205.151 51.2121 204.776 51.3198 204.459 51.5353C204.145 51.7476 203.903 52.0246 203.734 52.3662C203.565 52.7078 203.48 53.0741 203.48 53.465V54.0928C203.48 54.6283 203.573 55.0823 203.757 55.4547C203.945 55.824 204.205 56.1056 204.537 56.2995C204.87 56.4903 205.256 56.5857 205.696 56.5857C205.982 56.5857 206.241 56.5457 206.472 56.4657C206.706 56.3826 206.907 56.2595 207.076 56.0963C207.246 55.9302 207.376 55.7239 207.469 55.4777L208.521 55.7732C208.411 56.1302 208.224 56.4441 207.963 56.715C207.701 56.9827 207.378 57.192 206.993 57.3428C206.609 57.4905 206.176 57.5644 205.696 57.5644ZM210.289 57.4167V50.3257H211.342V51.3968H211.416C211.545 51.0459 211.779 50.7612 212.118 50.5427C212.456 50.3242 212.838 50.215 213.262 50.215C213.343 50.215 213.443 50.2165 213.563 50.2196C213.683 50.2226 213.773 50.2273 213.835 50.2334V51.3414C213.798 51.3321 213.713 51.3183 213.581 51.2998C213.452 51.2783 213.315 51.2675 213.17 51.2675C212.825 51.2675 212.518 51.3398 212.247 51.4845C211.979 51.6261 211.767 51.823 211.61 52.0754C211.456 52.3247 211.379 52.6094 211.379 52.9294V57.4167H210.289ZM221.141 50.3257L218.518 57.4167H217.41L214.788 50.3257H215.97L217.927 55.9763H218.001L219.959 50.3257H221.141ZM225.298 57.5644C224.614 57.5644 224.025 57.4136 223.53 57.112C223.037 56.8073 222.657 56.3826 222.389 55.8378C222.125 55.29 221.992 54.6529 221.992 53.9266C221.992 53.2003 222.125 52.5601 222.389 52.0061C222.657 51.4491 223.029 51.0151 223.506 50.7043C223.987 50.3904 224.547 50.2334 225.187 50.2334C225.556 50.2334 225.921 50.295 226.281 50.4181C226.641 50.5412 226.969 50.7412 227.264 51.0182C227.56 51.2921 227.795 51.6553 227.971 52.1077C228.146 52.5601 228.234 53.1172 228.234 53.7789V54.2405H222.768V53.2988H227.126C227.126 52.8987 227.046 52.5417 226.886 52.2277C226.729 51.9138 226.504 51.6661 226.212 51.4845C225.922 51.3029 225.581 51.2121 225.187 51.2121C224.753 51.2121 224.377 51.3198 224.06 51.5353C223.747 51.7476 223.505 52.0246 223.336 52.3662C223.166 52.7078 223.082 53.0741 223.082 53.465V54.0928C223.082 54.6283 223.174 55.0823 223.359 55.4547C223.546 55.824 223.807 56.1056 224.139 56.2995C224.471 56.4903 224.858 56.5857 225.298 56.5857C225.584 56.5857 225.842 56.5457 226.073 56.4657C226.307 56.3826 226.509 56.2595 226.678 56.0963C226.847 55.9302 226.978 55.7239 227.07 55.4777L228.123 55.7732C228.012 56.1302 227.826 56.4441 227.564 56.715C227.303 56.9827 226.98 57.192 226.595 57.3428C226.21 57.4905 225.778 57.5644 225.298 57.5644ZM229.891 57.4167V50.3257H230.944V51.3968H231.017C231.147 51.0459 231.381 50.7612 231.719 50.5427C232.058 50.3242 232.439 50.215 232.864 50.215C232.944 50.215 233.044 50.2165 233.164 50.2196C233.284 50.2226 233.375 50.2273 233.436 50.2334V51.3414C233.4 51.3321 233.315 51.3183 233.183 51.2998C233.053 51.2783 232.916 51.2675 232.772 51.2675C232.427 51.2675 232.119 51.3398 231.848 51.4845C231.581 51.6261 231.368 51.823 231.211 52.0754C231.057 52.3247 230.981 52.6094 230.981 52.9294V57.4167H229.891Z" fill="white"/>
<path d="M149 72H278.167V125.25C278.167 126.907 276.824 128.25 275.167 128.25H152C150.343 128.25 149 126.907 149 125.25V72Z" fill="#00EFB5"/>
<path d="M198.792 88.9167H197.647C197.579 88.5873 197.461 88.298 197.292 88.0488C197.126 87.7995 196.922 87.5902 196.682 87.4209C196.445 87.2486 196.182 87.1193 195.893 87.0331C195.604 86.947 195.302 86.9039 194.988 86.9039C194.416 86.9039 193.897 87.0485 193.432 87.3378C192.971 87.6271 192.603 88.0534 192.329 88.6166C192.058 89.1798 191.923 89.8707 191.923 90.6894C191.923 91.508 192.058 92.199 192.329 92.7622C192.603 93.3254 192.971 93.7516 193.432 94.0409C193.897 94.3302 194.416 94.4749 194.988 94.4749C195.302 94.4749 195.604 94.4318 195.893 94.3456C196.182 94.2595 196.445 94.1317 196.682 93.9625C196.922 93.7901 197.126 93.5793 197.292 93.33C197.461 93.0776 197.579 92.7883 197.647 92.4621H198.792C198.706 92.9453 198.549 93.3777 198.321 93.7593C198.093 94.141 197.81 94.4657 197.472 94.7334C197.133 94.9981 196.753 95.1997 196.331 95.3382C195.913 95.4767 195.465 95.5459 194.988 95.5459C194.182 95.5459 193.465 95.3489 192.837 94.955C192.209 94.5611 191.715 94.0009 191.355 93.2746C190.995 92.5483 190.815 91.6865 190.815 90.6894C190.815 89.6922 190.995 88.8305 191.355 88.1042C191.715 87.3778 192.209 86.8177 192.837 86.4238C193.465 86.0298 194.182 85.8328 194.988 85.8328C195.465 85.8328 195.913 85.9021 196.331 86.0406C196.753 86.1791 197.133 86.3822 197.472 86.65C197.81 86.9146 198.093 87.2378 198.321 87.6194C198.549 87.998 198.706 88.4304 198.792 88.9167ZM203.375 95.5644C202.735 95.5644 202.173 95.412 201.69 95.1074C201.21 94.8027 200.834 94.3764 200.564 93.8286C200.296 93.2808 200.162 92.6406 200.162 91.9081C200.162 91.1695 200.296 90.5247 200.564 89.9738C200.834 89.4229 201.21 88.9951 201.69 88.6904C202.173 88.3858 202.735 88.2334 203.375 88.2334C204.015 88.2334 204.575 88.3858 205.055 88.6904C205.539 88.9951 205.914 89.4229 206.182 89.9738C206.453 90.5247 206.588 91.1695 206.588 91.9081C206.588 92.6406 206.453 93.2808 206.182 93.8286C205.914 94.3764 205.539 94.8027 205.055 95.1074C204.575 95.412 204.015 95.5644 203.375 95.5644ZM203.375 94.5857C203.861 94.5857 204.261 94.461 204.575 94.2118C204.889 93.9625 205.122 93.6347 205.272 93.2284C205.423 92.8222 205.499 92.3821 205.499 91.9081C205.499 91.4342 205.423 90.9925 205.272 90.5832C205.122 90.1739 204.889 89.843 204.575 89.5907C204.261 89.3383 203.861 89.2121 203.375 89.2121C202.889 89.2121 202.489 89.3383 202.175 89.5907C201.861 89.843 201.629 90.1739 201.478 90.5832C201.327 90.9925 201.251 91.4342 201.251 91.9081C201.251 92.3821 201.327 92.8222 201.478 93.2284C201.629 93.6347 201.861 93.9625 202.175 94.2118C202.489 94.461 202.889 94.5857 203.375 94.5857ZM209.341 91.151V95.4167H208.251V88.3257H209.304V89.4337H209.396C209.562 89.0736 209.815 88.7843 210.153 88.5658C210.492 88.3442 210.929 88.2334 211.464 88.2334C211.944 88.2334 212.365 88.3319 212.725 88.5289C213.085 88.7228 213.365 89.0182 213.565 89.4152C213.765 89.8092 213.865 90.3078 213.865 90.911V95.4167H212.775V90.9848C212.775 90.4278 212.631 89.9938 212.341 89.683C212.052 89.3691 211.655 89.2121 211.15 89.2121C210.803 89.2121 210.492 89.2875 210.218 89.4383C209.947 89.5891 209.733 89.8092 209.576 90.0985C209.419 90.3878 209.341 90.7386 209.341 91.151ZM218.94 88.3257V89.249H215.265V88.3257H218.94ZM216.336 86.6269H217.425V93.3854C217.425 93.6932 217.47 93.924 217.559 94.0779C217.652 94.2287 217.768 94.3302 217.91 94.3826C218.055 94.4318 218.207 94.4564 218.367 94.4564C218.487 94.4564 218.586 94.4503 218.663 94.438C218.739 94.4226 218.801 94.4103 218.847 94.401L219.069 95.3797C218.995 95.4074 218.892 95.4351 218.759 95.4628C218.627 95.4936 218.459 95.509 218.256 95.509C217.949 95.509 217.647 95.4428 217.351 95.3105C217.059 95.1781 216.816 94.9766 216.622 94.7057C216.431 94.4349 216.336 94.0933 216.336 93.6809V86.6269ZM220.578 95.4167V88.3257H221.631V89.3968H221.705C221.834 89.0459 222.068 88.7612 222.406 88.5427C222.745 88.3242 223.127 88.215 223.551 88.215C223.631 88.215 223.731 88.2165 223.851 88.2196C223.971 88.2226 224.062 88.2273 224.124 88.2334V89.3414C224.087 89.3321 224.002 89.3183 223.87 89.2998C223.741 89.2783 223.604 89.2675 223.459 89.2675C223.114 89.2675 222.807 89.3398 222.536 89.4845C222.268 89.6261 222.056 89.823 221.899 90.0754C221.745 90.3247 221.668 90.6094 221.668 90.9294V95.4167H220.578ZM228.08 95.5644C227.44 95.5644 226.878 95.412 226.395 95.1074C225.915 94.8027 225.54 94.3764 225.269 93.8286C225.001 93.2808 224.867 92.6406 224.867 91.9081C224.867 91.1695 225.001 90.5247 225.269 89.9738C225.54 89.4229 225.915 88.9951 226.395 88.6904C226.878 88.3858 227.44 88.2334 228.08 88.2334C228.72 88.2334 229.28 88.3858 229.761 88.6904C230.244 88.9951 230.619 89.4229 230.887 89.9738C231.158 90.5247 231.293 91.1695 231.293 91.9081C231.293 92.6406 231.158 93.2808 230.887 93.8286C230.619 94.3764 230.244 94.8027 229.761 95.1074C229.28 95.412 228.72 95.5644 228.08 95.5644ZM228.08 94.5857C228.566 94.5857 228.967 94.461 229.28 94.2118C229.594 93.9625 229.827 93.6347 229.978 93.2284C230.128 92.8222 230.204 92.3821 230.204 91.9081C230.204 91.4342 230.128 90.9925 229.978 90.5832C229.827 90.1739 229.594 89.843 229.28 89.5907C228.967 89.3383 228.566 89.2121 228.08 89.2121C227.594 89.2121 227.194 89.3383 226.88 89.5907C226.566 89.843 226.334 90.1739 226.183 90.5832C226.032 90.9925 225.957 91.4342 225.957 91.9081C225.957 92.3821 226.032 92.8222 226.183 93.2284C226.334 93.6347 226.566 93.9625 226.88 94.2118C227.194 94.461 227.594 94.5857 228.08 94.5857ZM234.046 85.9621V95.4167H232.956V85.9621H234.046ZM196.77 111.417V101.962H199.965C200.706 101.962 201.313 102.096 201.784 102.364C202.258 102.628 202.608 102.987 202.836 103.439C203.064 103.892 203.178 104.397 203.178 104.954C203.178 105.511 203.064 106.017 202.836 106.472C202.611 106.928 202.264 107.291 201.793 107.562C201.322 107.83 200.719 107.964 199.983 107.964H197.693V106.948H199.946C200.454 106.948 200.862 106.86 201.17 106.685C201.477 106.509 201.7 106.272 201.839 105.974C201.981 105.672 202.051 105.332 202.051 104.954C202.051 104.575 201.981 104.236 201.839 103.938C201.7 103.639 201.476 103.406 201.165 103.236C200.854 103.064 200.442 102.978 199.928 102.978H197.915V111.417H196.77ZM205.964 101.962V111.417H204.874V101.962H205.964ZM210.046 111.583C209.597 111.583 209.189 111.498 208.823 111.329C208.456 111.157 208.165 110.909 207.95 110.586C207.735 110.259 207.627 109.866 207.627 109.404C207.627 108.998 207.707 108.668 207.867 108.416C208.027 108.161 208.241 107.96 208.509 107.816C208.776 107.671 209.072 107.563 209.395 107.493C209.721 107.419 210.049 107.36 210.378 107.317C210.809 107.262 211.158 107.22 211.426 107.193C211.697 107.162 211.894 107.111 212.017 107.04C212.143 106.969 212.206 106.846 212.206 106.671V106.634C212.206 106.178 212.082 105.825 211.832 105.572C211.586 105.32 211.212 105.194 210.711 105.194C210.191 105.194 209.783 105.308 209.487 105.535C209.192 105.763 208.984 106.006 208.864 106.265L207.83 105.895C208.015 105.464 208.261 105.129 208.569 104.889C208.879 104.646 209.218 104.477 209.584 104.381C209.954 104.283 210.317 104.233 210.674 104.233C210.901 104.233 211.163 104.261 211.459 104.317C211.757 104.369 212.045 104.478 212.322 104.644C212.602 104.81 212.834 105.061 213.019 105.397C213.204 105.732 213.296 106.182 213.296 106.745V111.417H212.206V110.456H212.151C212.077 110.61 211.954 110.775 211.782 110.95C211.609 111.126 211.38 111.275 211.094 111.398C210.808 111.521 210.458 111.583 210.046 111.583ZM210.212 110.604C210.643 110.604 211.006 110.52 211.302 110.35C211.6 110.181 211.825 109.962 211.976 109.695C212.129 109.427 212.206 109.145 212.206 108.85V107.853C212.16 107.908 212.059 107.959 211.902 108.005C211.748 108.048 211.569 108.087 211.366 108.12C211.166 108.151 210.971 108.179 210.78 108.204C210.592 108.225 210.44 108.244 210.323 108.259C210.04 108.296 209.775 108.356 209.529 108.439C209.286 108.519 209.089 108.641 208.938 108.804C208.79 108.964 208.716 109.182 208.716 109.459C208.716 109.838 208.856 110.124 209.136 110.318C209.42 110.509 209.778 110.604 210.212 110.604ZM216.374 107.151V111.417H215.284V104.326H216.337V105.434H216.429C216.596 105.074 216.848 104.784 217.186 104.566C217.525 104.344 217.962 104.233 218.497 104.233C218.978 104.233 219.398 104.332 219.758 104.529C220.118 104.723 220.398 105.018 220.598 105.415C220.798 105.809 220.898 106.308 220.898 106.911V111.417H219.809V106.985C219.809 106.428 219.664 105.994 219.375 105.683C219.085 105.369 218.688 105.212 218.184 105.212C217.836 105.212 217.525 105.288 217.251 105.438C216.98 105.589 216.766 105.809 216.609 106.098C216.452 106.388 216.374 106.739 216.374 107.151ZM225.862 111.564C225.179 111.564 224.589 111.414 224.094 111.112C223.601 110.807 223.221 110.383 222.954 109.838C222.689 109.29 222.557 108.653 222.557 107.927C222.557 107.2 222.689 106.56 222.954 106.006C223.221 105.449 223.594 105.015 224.071 104.704C224.551 104.39 225.111 104.233 225.751 104.233C226.12 104.233 226.485 104.295 226.845 104.418C227.205 104.541 227.533 104.741 227.829 105.018C228.124 105.292 228.359 105.655 228.535 106.108C228.71 106.56 228.798 107.117 228.798 107.779V108.241H223.332V107.299H227.69C227.69 106.899 227.61 106.542 227.45 106.228C227.293 105.914 227.068 105.666 226.776 105.484C226.487 105.303 226.145 105.212 225.751 105.212C225.317 105.212 224.942 105.32 224.625 105.535C224.311 105.748 224.069 106.025 223.9 106.366C223.731 106.708 223.646 107.074 223.646 107.465V108.093C223.646 108.628 223.738 109.082 223.923 109.455C224.111 109.824 224.371 110.106 224.703 110.299C225.036 110.49 225.422 110.586 225.862 110.586C226.148 110.586 226.407 110.546 226.638 110.466C226.871 110.383 227.073 110.259 227.242 110.096C227.412 109.93 227.542 109.724 227.635 109.478L228.687 109.773C228.576 110.13 228.39 110.444 228.129 110.715C227.867 110.983 227.544 111.192 227.159 111.343C226.774 111.491 226.342 111.564 225.862 111.564Z" fill="black"/>
<rect x="228" y="201" width="198" height="118" rx="4" stroke="#FFC000" stroke-width="2"/>
<path d="M262.417 236.083C262.417 234.426 263.76 233.083 265.417 233.083H388.583C390.24 233.083 391.583 234.426 391.583 236.083V284.25C391.583 285.907 390.24 287.25 388.583 287.25H265.417C263.76 287.25 262.417 285.907 262.417 284.25V236.083Z" fill="#BFBFBF"/>
<path d="M315.662 256.5H312.745V247.045H315.792C316.709 247.045 317.494 247.235 318.146 247.613C318.799 247.989 319.299 248.529 319.646 249.234C319.994 249.935 320.168 250.776 320.168 251.754C320.168 252.739 319.993 253.587 319.642 254.298C319.291 255.006 318.78 255.551 318.109 255.932C317.438 256.311 316.623 256.5 315.662 256.5ZM313.89 255.484H315.589C316.37 255.484 317.018 255.334 317.532 255.032C318.046 254.73 318.429 254.301 318.682 253.744C318.934 253.187 319.06 252.524 319.06 251.754C319.06 250.991 318.936 250.334 318.686 249.783C318.437 249.229 318.065 248.804 317.569 248.509C317.074 248.21 316.456 248.061 315.718 248.061H313.89V255.484ZM324.028 256.666C323.578 256.666 323.17 256.582 322.804 256.412C322.438 256.24 322.147 255.992 321.932 255.669C321.716 255.343 321.608 254.949 321.608 254.487C321.608 254.081 321.688 253.752 321.849 253.499C322.009 253.244 322.222 253.044 322.49 252.899C322.758 252.754 323.053 252.647 323.377 252.576C323.703 252.502 324.031 252.444 324.36 252.401C324.791 252.345 325.14 252.304 325.408 252.276C325.679 252.245 325.876 252.194 325.999 252.124C326.125 252.053 326.188 251.93 326.188 251.754V251.717C326.188 251.262 326.063 250.908 325.814 250.656C325.568 250.403 325.194 250.277 324.692 250.277C324.172 250.277 323.764 250.391 323.469 250.619C323.173 250.846 322.966 251.089 322.846 251.348L321.812 250.979C321.996 250.548 322.242 250.212 322.55 249.972C322.861 249.729 323.2 249.56 323.566 249.464C323.935 249.366 324.298 249.317 324.655 249.317C324.883 249.317 325.145 249.344 325.44 249.4C325.739 249.452 326.026 249.561 326.303 249.728C326.584 249.894 326.816 250.145 327.001 250.48C327.185 250.816 327.278 251.265 327.278 251.828V256.5H326.188V255.54H326.133C326.059 255.694 325.936 255.858 325.763 256.034C325.591 256.209 325.362 256.358 325.075 256.482C324.789 256.605 324.44 256.666 324.028 256.666ZM324.194 255.688C324.625 255.688 324.988 255.603 325.283 255.434C325.582 255.264 325.806 255.046 325.957 254.778C326.111 254.51 326.188 254.229 326.188 253.933V252.936C326.142 252.991 326.04 253.042 325.883 253.088C325.729 253.132 325.551 253.17 325.348 253.204C325.148 253.235 324.952 253.262 324.762 253.287C324.574 253.308 324.421 253.327 324.305 253.342C324.021 253.379 323.757 253.439 323.51 253.522C323.267 253.602 323.07 253.724 322.92 253.887C322.772 254.047 322.698 254.266 322.698 254.543C322.698 254.921 322.838 255.207 323.118 255.401C323.401 255.592 323.76 255.688 324.194 255.688ZM332.35 249.409V250.332H328.675V249.409H332.35ZM329.746 247.71H330.836V254.469C330.836 254.777 330.88 255.007 330.97 255.161C331.062 255.312 331.179 255.414 331.32 255.466C331.465 255.515 331.617 255.54 331.777 255.54C331.897 255.54 331.996 255.534 332.073 255.521C332.15 255.506 332.211 255.494 332.258 255.484L332.479 256.463C332.405 256.491 332.302 256.518 332.17 256.546C332.037 256.577 331.87 256.592 331.667 256.592C331.359 256.592 331.057 256.526 330.762 256.394C330.469 256.261 330.226 256.06 330.032 255.789C329.842 255.518 329.746 255.177 329.746 254.764V247.71ZM336.075 256.666C335.626 256.666 335.218 256.582 334.852 256.412C334.486 256.24 334.195 255.992 333.979 255.669C333.764 255.343 333.656 254.949 333.656 254.487C333.656 254.081 333.736 253.752 333.896 253.499C334.056 253.244 334.27 253.044 334.538 252.899C334.806 252.754 335.101 252.647 335.424 252.576C335.751 252.502 336.078 252.444 336.408 252.401C336.839 252.345 337.188 252.304 337.456 252.276C337.727 252.245 337.923 252.194 338.047 252.124C338.173 252.053 338.236 251.93 338.236 251.754V251.717C338.236 251.262 338.111 250.908 337.862 250.656C337.616 250.403 337.242 250.277 336.74 250.277C336.22 250.277 335.812 250.391 335.517 250.619C335.221 250.846 335.014 251.089 334.894 251.348L333.859 250.979C334.044 250.548 334.29 250.212 334.598 249.972C334.909 249.729 335.247 249.56 335.614 249.464C335.983 249.366 336.346 249.317 336.703 249.317C336.931 249.317 337.193 249.344 337.488 249.4C337.787 249.452 338.074 249.561 338.351 249.728C338.631 249.894 338.864 250.145 339.048 250.48C339.233 250.816 339.325 251.265 339.325 251.828V256.5H338.236V255.54H338.18C338.107 255.694 337.984 255.858 337.811 256.034C337.639 256.209 337.41 256.358 337.123 256.482C336.837 256.605 336.488 256.666 336.075 256.666ZM336.242 255.688C336.672 255.688 337.036 255.603 337.331 255.434C337.63 255.264 337.854 255.046 338.005 254.778C338.159 254.51 338.236 254.229 338.236 253.933V252.936C338.19 252.991 338.088 253.042 337.931 253.088C337.777 253.132 337.599 253.17 337.396 253.204C337.196 253.235 337 253.262 336.809 253.287C336.622 253.308 336.469 253.327 336.352 253.342C336.069 253.379 335.805 253.439 335.558 253.522C335.315 253.602 335.118 253.724 334.967 253.887C334.82 254.047 334.746 254.266 334.746 254.543C334.746 254.921 334.886 255.207 335.166 255.401C335.449 255.592 335.808 255.688 336.242 255.688ZM310.187 272.5V263.045H313.381C314.123 263.045 314.729 263.179 315.2 263.447C315.674 263.712 316.025 264.07 316.253 264.523C316.481 264.975 316.594 265.48 316.594 266.037C316.594 266.594 316.481 267.1 316.253 267.556C316.028 268.011 315.68 268.374 315.209 268.645C314.739 268.913 314.135 269.047 313.4 269.047H311.11V268.031H313.363C313.871 268.031 314.278 267.944 314.586 267.768C314.894 267.593 315.117 267.356 315.256 267.057C315.397 266.756 315.468 266.415 315.468 266.037C315.468 265.658 315.397 265.32 315.256 265.021C315.117 264.723 314.892 264.489 314.582 264.32C314.271 264.147 313.858 264.061 313.344 264.061H311.332V272.5H310.187ZM319.38 263.045V272.5H318.291V263.045H319.38ZM323.463 272.666C323.013 272.666 322.605 272.582 322.239 272.412C321.873 272.24 321.582 271.992 321.367 271.669C321.151 271.343 321.044 270.949 321.044 270.487C321.044 270.081 321.124 269.752 321.284 269.499C321.444 269.244 321.658 269.044 321.925 268.899C322.193 268.754 322.488 268.647 322.812 268.576C323.138 268.502 323.466 268.444 323.795 268.401C324.226 268.345 324.575 268.304 324.843 268.276C325.114 268.245 325.311 268.194 325.434 268.124C325.56 268.053 325.623 267.93 325.623 267.754V267.717C325.623 267.262 325.498 266.908 325.249 266.656C325.003 266.403 324.629 266.277 324.127 266.277C323.607 266.277 323.199 266.391 322.904 266.619C322.609 266.846 322.401 267.089 322.281 267.348L321.247 266.979C321.431 266.548 321.678 266.212 321.985 265.972C322.296 265.729 322.635 265.56 323.001 265.464C323.37 265.366 323.733 265.317 324.09 265.317C324.318 265.317 324.58 265.344 324.875 265.4C325.174 265.452 325.462 265.561 325.738 265.728C326.019 265.894 326.251 266.145 326.436 266.48C326.62 266.816 326.713 267.265 326.713 267.828V272.5H325.623V271.54H325.568C325.494 271.694 325.371 271.858 325.198 272.034C325.026 272.209 324.797 272.358 324.511 272.482C324.224 272.605 323.875 272.666 323.463 272.666ZM323.629 271.688C324.06 271.688 324.423 271.603 324.718 271.434C325.017 271.264 325.241 271.046 325.392 270.778C325.546 270.51 325.623 270.229 325.623 269.933V268.936C325.577 268.991 325.475 269.042 325.318 269.088C325.165 269.132 324.986 269.17 324.783 269.204C324.583 269.235 324.387 269.262 324.197 269.287C324.009 269.308 323.857 269.327 323.74 269.342C323.456 269.379 323.192 269.439 322.946 269.522C322.702 269.602 322.505 269.724 322.355 269.887C322.207 270.047 322.133 270.266 322.133 270.543C322.133 270.921 322.273 271.207 322.553 271.401C322.836 271.592 323.195 271.688 323.629 271.688ZM329.791 268.234V272.5H328.701V265.409H329.754V266.517H329.846C330.012 266.157 330.265 265.868 330.603 265.649C330.942 265.428 331.379 265.317 331.914 265.317C332.394 265.317 332.814 265.415 333.174 265.612C333.535 265.806 333.815 266.102 334.015 266.499C334.215 266.893 334.315 267.391 334.315 267.994V272.5H333.225V268.068C333.225 267.511 333.081 267.077 332.791 266.766C332.502 266.452 332.105 266.295 331.6 266.295C331.252 266.295 330.942 266.371 330.668 266.522C330.397 266.672 330.183 266.893 330.026 267.182C329.869 267.471 329.791 267.822 329.791 268.234ZM339.279 272.648C338.595 272.648 338.006 272.497 337.511 272.195C337.018 271.891 336.638 271.466 336.37 270.921C336.106 270.373 335.973 269.736 335.973 269.01C335.973 268.284 336.106 267.643 336.37 267.089C336.638 266.532 337.01 266.098 337.487 265.788C337.968 265.474 338.528 265.317 339.168 265.317C339.537 265.317 339.902 265.378 340.262 265.501C340.622 265.625 340.95 265.825 341.245 266.102C341.541 266.375 341.776 266.739 341.952 267.191C342.127 267.643 342.215 268.201 342.215 268.862V269.324H336.749V268.382H341.107C341.107 267.982 341.027 267.625 340.867 267.311C340.71 266.997 340.485 266.749 340.193 266.568C339.903 266.386 339.562 266.295 339.168 266.295C338.734 266.295 338.358 266.403 338.041 266.619C337.727 266.831 337.486 267.108 337.317 267.45C337.147 267.791 337.063 268.157 337.063 268.548V269.176C337.063 269.712 337.155 270.166 337.34 270.538C337.527 270.907 337.787 271.189 338.12 271.383C338.452 271.574 338.839 271.669 339.279 271.669C339.565 271.669 339.823 271.629 340.054 271.549C340.288 271.466 340.49 271.343 340.659 271.18C340.828 271.013 340.959 270.807 341.051 270.561L342.104 270.857C341.993 271.214 341.807 271.527 341.545 271.798C341.284 272.066 340.961 272.275 340.576 272.426C340.191 272.574 339.759 272.648 339.279 272.648Z" fill="black"/>
<rect x="1" y="201" width="198" height="118" rx="4" stroke="#FFC000" stroke-width="2"/>
<path d="M35.4167 236.083C35.4167 234.426 36.7598 233.083 38.4167 233.083H161.583C163.24 233.083 164.583 234.426 164.583 236.083V284.25C164.583 285.907 163.24 287.25 161.583 287.25H38.4167C36.7598 287.25 35.4167 285.907 35.4167 284.25V236.083Z" fill="#BFBFBF"/>
<path d="M88.6625 256.5H85.7448V247.045H88.7917C89.7089 247.045 90.4937 247.235 91.1461 247.613C91.7986 247.989 92.2987 248.529 92.6465 249.234C92.9942 249.935 93.1681 250.776 93.1681 251.754C93.1681 252.739 92.9927 253.587 92.6419 254.298C92.291 255.006 91.7801 255.551 91.1092 255.932C90.4383 256.311 89.6227 256.5 88.6625 256.5ZM86.8897 255.484H88.5886C89.3703 255.484 90.0182 255.334 90.5321 255.032C91.0461 254.73 91.4293 254.301 91.6816 253.744C91.934 253.187 92.0602 252.524 92.0602 251.754C92.0602 250.991 91.9355 250.334 91.6862 249.783C91.437 249.229 91.0646 248.804 90.5691 248.509C90.0736 248.21 89.4565 248.061 88.7179 248.061H86.8897V255.484ZM97.0275 256.666C96.5782 256.666 96.1704 256.582 95.8041 256.412C95.4379 256.24 95.1471 255.992 94.9316 255.669C94.7162 255.343 94.6085 254.949 94.6085 254.487C94.6085 254.081 94.6885 253.752 94.8485 253.499C95.0086 253.244 95.2225 253.044 95.4902 252.899C95.758 252.754 96.0534 252.647 96.3766 252.576C96.7028 252.502 97.0306 252.444 97.3599 252.401C97.7908 252.345 98.1401 252.304 98.4078 252.276C98.6787 252.245 98.8756 252.194 98.9987 252.124C99.1249 252.053 99.188 251.93 99.188 251.754V251.717C99.188 251.262 99.0634 250.908 98.8141 250.656C98.5679 250.403 98.1939 250.277 97.6923 250.277C97.1722 250.277 96.7644 250.391 96.4689 250.619C96.1735 250.846 95.9657 251.089 95.8457 251.348L94.8116 250.979C94.9963 250.548 95.2425 250.212 95.5502 249.972C95.8611 249.729 96.1996 249.56 96.5659 249.464C96.9352 249.366 97.2983 249.317 97.6554 249.317C97.8831 249.317 98.1447 249.344 98.4402 249.4C98.7387 249.452 99.0264 249.561 99.3034 249.728C99.5835 249.894 99.8159 250.145 100.001 250.48C100.185 250.816 100.278 251.265 100.278 251.828V256.5H99.188V255.54H99.1326C99.0588 255.694 98.9357 255.858 98.7633 256.034C98.591 256.209 98.3617 256.358 98.0755 256.482C97.7892 256.605 97.4399 256.666 97.0275 256.666ZM97.1937 255.688C97.6246 255.688 97.9877 255.603 98.2832 255.434C98.5817 255.264 98.8064 255.046 98.9572 254.778C99.1111 254.51 99.188 254.229 99.188 253.933V252.936C99.1419 252.991 99.0403 253.042 98.8833 253.088C98.7295 253.132 98.5509 253.17 98.3478 253.204C98.1478 253.235 97.9523 253.262 97.7615 253.287C97.5738 253.308 97.4215 253.327 97.3045 253.342C97.0214 253.379 96.7567 253.439 96.5105 253.522C96.2673 253.602 96.0704 253.724 95.9196 253.887C95.7718 254.047 95.698 254.266 95.698 254.543C95.698 254.921 95.838 255.207 96.1181 255.401C96.4012 255.592 96.7598 255.688 97.1937 255.688ZM105.35 249.409V250.332H101.675V249.409H105.35ZM102.746 247.71H103.836V254.469C103.836 254.777 103.88 255.007 103.97 255.161C104.062 255.312 104.179 255.414 104.32 255.466C104.465 255.515 104.617 255.54 104.777 255.54C104.897 255.54 104.996 255.534 105.073 255.521C105.15 255.506 105.211 255.494 105.258 255.484L105.479 256.463C105.405 256.491 105.302 256.518 105.17 256.546C105.037 256.577 104.87 256.592 104.667 256.592C104.359 256.592 104.057 256.526 103.762 256.394C103.469 256.261 103.226 256.06 103.032 255.789C102.842 255.518 102.746 255.177 102.746 254.764V247.71ZM109.075 256.666C108.626 256.666 108.218 256.582 107.852 256.412C107.486 256.24 107.195 255.992 106.979 255.669C106.764 255.343 106.656 254.949 106.656 254.487C106.656 254.081 106.736 253.752 106.896 253.499C107.056 253.244 107.27 253.044 107.538 252.899C107.806 252.754 108.101 252.647 108.424 252.576C108.751 252.502 109.078 252.444 109.408 252.401C109.839 252.345 110.188 252.304 110.456 252.276C110.727 252.245 110.923 252.194 111.047 252.124C111.173 252.053 111.236 251.93 111.236 251.754V251.717C111.236 251.262 111.111 250.908 110.862 250.656C110.616 250.403 110.242 250.277 109.74 250.277C109.22 250.277 108.812 250.391 108.517 250.619C108.221 250.846 108.014 251.089 107.894 251.348L106.859 250.979C107.044 250.548 107.29 250.212 107.598 249.972C107.909 249.729 108.247 249.56 108.614 249.464C108.983 249.366 109.346 249.317 109.703 249.317C109.931 249.317 110.193 249.344 110.488 249.4C110.787 249.452 111.074 249.561 111.351 249.728C111.631 249.894 111.864 250.145 112.048 250.48C112.233 250.816 112.325 251.265 112.325 251.828V256.5H111.236V255.54H111.18C111.107 255.694 110.984 255.858 110.811 256.034C110.639 256.209 110.41 256.358 110.123 256.482C109.837 256.605 109.488 256.666 109.075 256.666ZM109.242 255.688C109.672 255.688 110.036 255.603 110.331 255.434C110.63 255.264 110.854 255.046 111.005 254.778C111.159 254.51 111.236 254.229 111.236 253.933V252.936C111.19 252.991 111.088 253.042 110.931 253.088C110.777 253.132 110.599 253.17 110.396 253.204C110.196 253.235 110 253.262 109.809 253.287C109.622 253.308 109.469 253.327 109.352 253.342C109.069 253.379 108.805 253.439 108.558 253.522C108.315 253.602 108.118 253.724 107.967 253.887C107.82 254.047 107.746 254.266 107.746 254.543C107.746 254.921 107.886 255.207 108.166 255.401C108.449 255.592 108.808 255.688 109.242 255.688ZM83.1867 272.5V263.045H86.3813C87.1231 263.045 87.7293 263.179 88.2002 263.447C88.6742 263.712 89.025 264.07 89.2528 264.523C89.4805 264.975 89.5944 265.48 89.5944 266.037C89.5944 266.594 89.4805 267.1 89.2528 267.556C89.0281 268.011 88.6803 268.374 88.2095 268.645C87.7386 268.913 87.1354 269.047 86.3998 269.047H84.11V268.031H86.3629C86.8707 268.031 87.2785 267.944 87.5862 267.768C87.894 267.593 88.1171 267.356 88.2556 267.057C88.3972 266.756 88.468 266.415 88.468 266.037C88.468 265.658 88.3972 265.32 88.2556 265.021C88.1171 264.723 87.8925 264.489 87.5816 264.32C87.2708 264.147 86.8584 264.061 86.3444 264.061H84.3316V272.5H83.1867ZM92.3805 263.045V272.5H91.291V263.045H92.3805ZM96.4626 272.666C96.0132 272.666 95.6054 272.582 95.2392 272.412C94.873 272.24 94.5821 271.992 94.3667 271.669C94.1513 271.343 94.0435 270.949 94.0435 270.487C94.0435 270.081 94.1236 269.752 94.2836 269.499C94.4436 269.244 94.6575 269.044 94.9253 268.899C95.193 268.754 95.4885 268.647 95.8116 268.576C96.1379 268.502 96.4656 268.444 96.795 268.401C97.2258 268.345 97.5751 268.304 97.8429 268.276C98.1137 268.245 98.3107 268.194 98.4338 268.124C98.56 268.053 98.6231 267.93 98.6231 267.754V267.717C98.6231 267.262 98.4984 266.908 98.2491 266.656C98.0029 266.403 97.629 266.277 97.1273 266.277C96.6072 266.277 96.1994 266.391 95.904 266.619C95.6085 266.846 95.4008 267.089 95.2808 267.348L94.2467 266.979C94.4313 266.548 94.6775 266.212 94.9853 265.972C95.2961 265.729 95.6347 265.56 96.0009 265.464C96.3702 265.366 96.7334 265.317 97.0904 265.317C97.3182 265.317 97.5798 265.344 97.8752 265.4C98.1737 265.452 98.4615 265.561 98.7385 265.728C99.0186 265.894 99.2509 266.145 99.4356 266.48C99.6202 266.816 99.7126 267.265 99.7126 267.828V272.5H98.6231V271.54H98.5677C98.4938 271.694 98.3707 271.858 98.1984 272.034C98.026 272.209 97.7967 272.358 97.5105 272.482C97.2243 272.605 96.875 272.666 96.4626 272.666ZM96.6288 271.688C97.0596 271.688 97.4228 271.603 97.7183 271.434C98.0168 271.264 98.2415 271.046 98.3923 270.778C98.5461 270.51 98.6231 270.229 98.6231 269.933V268.936C98.5769 268.991 98.4754 269.042 98.3184 269.088C98.1645 269.132 97.986 269.17 97.7829 269.204C97.5828 269.235 97.3874 269.262 97.1966 269.287C97.0089 269.308 96.8565 269.327 96.7396 269.342C96.4564 269.379 96.1917 269.439 95.9455 269.522C95.7024 269.602 95.5054 269.724 95.3546 269.887C95.2069 270.047 95.133 270.266 95.133 270.543C95.133 270.921 95.2731 271.207 95.5531 271.401C95.8363 271.592 96.1948 271.688 96.6288 271.688ZM102.791 268.234V272.5H101.701V265.409H102.754V266.517H102.846C103.012 266.157 103.265 265.868 103.603 265.649C103.942 265.428 104.379 265.317 104.914 265.317C105.394 265.317 105.814 265.415 106.174 265.612C106.535 265.806 106.815 266.102 107.015 266.499C107.215 266.893 107.315 267.391 107.315 267.994V272.5H106.225V268.068C106.225 267.511 106.081 267.077 105.791 266.766C105.502 266.452 105.105 266.295 104.6 266.295C104.252 266.295 103.942 266.371 103.668 266.522C103.397 266.672 103.183 266.893 103.026 267.182C102.869 267.471 102.791 267.822 102.791 268.234ZM112.279 272.648C111.595 272.648 111.006 272.497 110.511 272.195C110.018 271.891 109.638 271.466 109.37 270.921C109.106 270.373 108.973 269.736 108.973 269.01C108.973 268.284 109.106 267.643 109.37 267.089C109.638 266.532 110.01 266.098 110.487 265.788C110.968 265.474 111.528 265.317 112.168 265.317C112.537 265.317 112.902 265.378 113.262 265.501C113.622 265.625 113.95 265.825 114.245 266.102C114.541 266.375 114.776 266.739 114.952 267.191C115.127 267.643 115.215 268.201 115.215 268.862V269.324H109.749V268.382H114.107C114.107 267.982 114.027 267.625 113.867 267.311C113.71 266.997 113.485 266.749 113.193 266.568C112.903 266.386 112.562 266.295 112.168 266.295C111.734 266.295 111.358 266.403 111.041 266.619C110.727 266.831 110.486 267.108 110.317 267.45C110.147 267.791 110.063 268.157 110.063 268.548V269.176C110.063 269.712 110.155 270.166 110.34 270.538C110.527 270.907 110.787 271.189 111.12 271.383C111.452 271.574 111.839 271.669 112.279 271.669C112.565 271.669 112.823 271.629 113.054 271.549C113.288 271.466 113.49 271.343 113.659 271.18C113.828 271.013 113.959 270.807 114.051 270.561L115.104 270.857C114.993 271.214 114.807 271.527 114.545 271.798C114.284 272.066 113.961 272.275 113.576 272.426C113.191 272.574 112.759 272.648 112.279 272.648Z" fill="black"/>
<path d="M149 190L160.221 187.276L152.251 178.92L149 190ZM213.31 127.276L154.822 183.064L156.203 184.512L214.69 128.724L213.31 127.276Z" fill="#00B0F0"/>
<path d="M279 190L267.779 187.276L275.749 178.92L279 190ZM214.69 127.276L273.178 183.064L271.797 184.512L213.31 128.724L214.69 127.276Z" fill="#00B0F0"/>
</svg>
