<svg width="200" height="248" viewBox="0 0 200 248" fill="none" xmlns="http://www.w3.org/2000/svg">
<rect x="1" y="1" width="198" height="245.917" rx="4" stroke="#FFC000" stroke-width="2"/>
<path d="M35.4167 44.6667C35.4167 43.0098 36.7598 41.6667 38.4167 41.6667H161.583C163.24 41.6667 164.583 43.0098 164.583 44.6667V95.8333H35.4167V44.6667Z" fill="#00B0F0"/>
<path d="M84.9555 58.5833H83.8106C83.7429 58.254 83.6244 57.9647 83.4551 57.7154C83.2889 57.4661 83.0858 57.2569 82.8457 57.0876C82.6088 56.9152 82.3456 56.786 82.0563 56.6998C81.767 56.6136 81.4654 56.5706 81.1515 56.5706C80.5791 56.5706 80.0605 56.7152 79.5957 57.0045C79.1341 57.2938 78.7663 57.7201 78.4924 58.2833C78.2216 58.8465 78.0862 59.5374 78.0862 60.3561C78.0862 61.1747 78.2216 61.8657 78.4924 62.4289C78.7663 62.9921 79.1341 63.4183 79.5957 63.7076C80.0605 63.9969 80.5791 64.1416 81.1515 64.1416C81.4654 64.1416 81.767 64.0985 82.0563 64.0123C82.3456 63.9261 82.6088 63.7984 82.8457 63.6291C83.0858 63.4568 83.2889 63.246 83.4551 62.9967C83.6244 62.7443 83.7429 62.455 83.8106 62.1288H84.9555C84.8693 62.612 84.7123 63.0444 84.4846 63.426C84.2569 63.8076 83.9737 64.1323 83.6352 64.4001C83.2966 64.6648 82.9165 64.8664 82.4949 65.0049C82.0763 65.1434 81.6285 65.2126 81.1515 65.2126C80.3452 65.2126 79.6281 65.0156 79.0002 64.6217C78.3724 64.2277 77.8784 63.6676 77.5183 62.9413C77.1582 62.215 76.9782 61.3532 76.9782 60.3561C76.9782 59.3589 77.1582 58.4972 77.5183 57.7708C77.8784 57.0445 78.3724 56.4844 79.0002 56.0904C79.6281 55.6965 80.3452 55.4995 81.1515 55.4995C81.6285 55.4995 82.0763 55.5688 82.4949 55.7073C82.9165 55.8458 83.2966 56.0489 83.6352 56.3166C83.9737 56.5813 84.2569 56.9045 84.4846 57.2861C84.7123 57.6647 84.8693 58.0971 84.9555 58.5833ZM88.7445 65.2495C88.2951 65.2495 87.8873 65.1649 87.5211 64.9956C87.1548 64.8233 86.864 64.5755 86.6486 64.2524C86.4331 63.9261 86.3254 63.5322 86.3254 63.0706C86.3254 62.6643 86.4054 62.335 86.5655 62.0826C86.7255 61.8272 86.9394 61.6271 87.2072 61.4825C87.4749 61.3378 87.7704 61.2301 88.0935 61.1593C88.4198 61.0855 88.7475 61.027 89.0768 60.9839C89.5077 60.9285 89.857 60.887 90.1248 60.8593C90.3956 60.8285 90.5926 60.7777 90.7157 60.7069C90.8419 60.6361 90.905 60.513 90.905 60.3376V60.3007C90.905 59.8452 90.7803 59.4912 90.531 59.2389C90.2848 58.9865 89.9109 58.8603 89.4092 58.8603C88.8891 58.8603 88.4813 58.9742 88.1859 59.2019C87.8904 59.4297 87.6827 59.6728 87.5626 59.9313L86.5285 59.562C86.7132 59.1312 86.9594 58.7957 87.2672 58.5556C87.578 58.3125 87.9166 58.1432 88.2828 58.0478C88.6521 57.9493 89.0153 57.9001 89.3723 57.9001C89.6 57.9001 89.8616 57.9278 90.1571 57.9832C90.4556 58.0355 90.7434 58.1448 91.0204 58.311C91.3004 58.4772 91.5328 58.728 91.7175 59.0634C91.9021 59.3989 91.9945 59.8483 91.9945 60.4115V65.0833H90.905V64.1231H90.8496C90.7757 64.277 90.6526 64.4416 90.4802 64.6171C90.3079 64.7925 90.0786 64.9418 89.7924 65.0649C89.5062 65.188 89.1569 65.2495 88.7445 65.2495ZM88.9106 64.2708C89.3415 64.2708 89.7047 64.1862 90.0001 64.0169C90.2987 63.8477 90.5233 63.6291 90.6741 63.3614C90.828 63.0936 90.905 62.812 90.905 62.5166V61.5194C90.8588 61.5748 90.7572 61.6256 90.6003 61.6718C90.4464 61.7148 90.2679 61.7533 90.0648 61.7872C89.8647 61.8179 89.6693 61.8456 89.4785 61.8703C89.2907 61.8918 89.1384 61.9103 89.0214 61.9257C88.7383 61.9626 88.4736 62.0226 88.2274 62.1057C87.9843 62.1857 87.7873 62.3073 87.6365 62.4704C87.4888 62.6304 87.4149 62.849 87.4149 63.1259C87.4149 63.5045 87.5549 63.7907 87.835 63.9846C88.1182 64.1754 88.4767 64.2708 88.9106 64.2708ZM97.0668 57.9924V58.9157H93.3921V57.9924H97.0668ZM94.4631 56.2936H95.5526V63.0521C95.5526 63.3599 95.5972 63.5907 95.6865 63.7446C95.7788 63.8954 95.8958 63.9969 96.0373 64.0492C96.182 64.0985 96.3343 64.1231 96.4944 64.1231C96.6144 64.1231 96.7129 64.117 96.7898 64.1046C96.8668 64.0893 96.9283 64.0769 96.9745 64.0677L97.1961 65.0464C97.1222 65.0741 97.0191 65.1018 96.8868 65.1295C96.7544 65.1603 96.5867 65.1757 96.3836 65.1757C96.0758 65.1757 95.7742 65.1095 95.4787 64.9772C95.1864 64.8448 94.9432 64.6432 94.7493 64.3724C94.5585 64.1016 94.4631 63.7599 94.4631 63.3475V56.2936ZM100.792 65.2495C100.343 65.2495 99.9352 65.1649 99.5689 64.9956C99.2027 64.8233 98.9119 64.5755 98.6964 64.2524C98.481 63.9261 98.3733 63.5322 98.3733 63.0706C98.3733 62.6643 98.4533 62.335 98.6133 62.0826C98.7734 61.8272 98.9873 61.6271 99.255 61.4825C99.5228 61.3378 99.8182 61.2301 100.141 61.1593C100.468 61.0855 100.795 61.027 101.125 60.9839C101.556 60.9285 101.905 60.887 102.173 60.8593C102.443 60.8285 102.64 60.7777 102.764 60.7069C102.89 60.6361 102.953 60.513 102.953 60.3376V60.3007C102.953 59.8452 102.828 59.4912 102.579 59.2389C102.333 58.9865 101.959 58.8603 101.457 58.8603C100.937 58.8603 100.529 58.9742 100.234 59.2019C99.9383 59.4297 99.7305 59.6728 99.6105 59.9313L98.5764 59.562C98.7611 59.1312 99.0073 58.7957 99.315 58.5556C99.6259 58.3125 99.9644 58.1432 100.331 58.0478C100.7 57.9493 101.063 57.9001 101.42 57.9001C101.648 57.9001 101.909 57.9278 102.205 57.9832C102.503 58.0355 102.791 58.1448 103.068 58.311C103.348 58.4772 103.581 58.728 103.765 59.0634C103.95 59.3989 104.042 59.8483 104.042 60.4115V65.0833H102.953V64.1231H102.897C102.824 64.277 102.7 64.4416 102.528 64.6171C102.356 64.7925 102.126 64.9418 101.84 65.0649C101.554 65.188 101.205 65.2495 100.792 65.2495ZM100.958 64.2708C101.389 64.2708 101.753 64.1862 102.048 64.0169C102.347 63.8477 102.571 63.6291 102.722 63.3614C102.876 63.0936 102.953 62.812 102.953 62.5166V61.5194C102.907 61.5748 102.805 61.6256 102.648 61.6718C102.494 61.7148 102.316 61.7533 102.113 61.7872C101.913 61.8179 101.717 61.8456 101.526 61.8703C101.339 61.8918 101.186 61.9103 101.069 61.9257C100.786 61.9626 100.521 62.0226 100.275 62.1057C100.032 62.1857 99.8352 62.3073 99.6844 62.4704C99.5366 62.6304 99.4628 62.849 99.4628 63.1259C99.4628 63.5045 99.6028 63.7907 99.8829 63.9846C100.166 64.1754 100.525 64.2708 100.958 64.2708ZM107.12 55.6288V65.0833H106.031V55.6288H107.12ZM111.996 65.2311C111.356 65.2311 110.795 65.0787 110.311 64.774C109.831 64.4693 109.456 64.0431 109.185 63.4953C108.917 62.9474 108.783 62.3073 108.783 61.5748C108.783 60.8362 108.917 60.1914 109.185 59.6405C109.456 59.0896 109.831 58.6618 110.311 58.3571C110.795 58.0524 111.356 57.9001 111.996 57.9001C112.637 57.9001 113.197 58.0524 113.677 58.3571C114.16 58.6618 114.536 59.0896 114.803 59.6405C115.074 60.1914 115.21 60.8362 115.21 61.5748C115.21 62.3073 115.074 62.9474 114.803 63.4953C114.536 64.0431 114.16 64.4693 113.677 64.774C113.197 65.0787 112.637 65.2311 111.996 65.2311ZM111.996 64.2524C112.483 64.2524 112.883 64.1277 113.197 63.8784C113.511 63.6291 113.743 63.3014 113.894 62.8951C114.045 62.4889 114.12 62.0488 114.12 61.5748C114.12 61.1009 114.045 60.6592 113.894 60.2499C113.743 59.8406 113.511 59.5097 113.197 59.2573C112.883 59.005 112.483 58.8788 111.996 58.8788C111.51 58.8788 111.11 59.005 110.796 59.2573C110.482 59.5097 110.25 59.8406 110.099 60.2499C109.948 60.6592 109.873 61.1009 109.873 61.5748C109.873 62.0488 109.948 62.4889 110.099 62.8951C110.25 63.3014 110.482 63.6291 110.796 63.8784C111.11 64.1277 111.51 64.2524 111.996 64.2524ZM119.735 67.8902C119.209 67.8902 118.756 67.8224 118.378 67.687C117.999 67.5547 117.684 67.3793 117.431 67.1608C117.182 66.9453 116.983 66.7145 116.836 66.4683L117.704 65.8589C117.802 65.9882 117.927 66.1359 118.078 66.3021C118.228 66.4714 118.435 66.6175 118.696 66.7407C118.961 66.8668 119.307 66.9299 119.735 66.9299C120.307 66.9299 120.78 66.7914 121.152 66.5144C121.525 66.2375 121.711 65.8035 121.711 65.2126V63.7723H121.618C121.538 63.9015 121.424 64.0616 121.277 64.2524C121.132 64.4401 120.923 64.6078 120.649 64.7556C120.378 64.9002 120.012 64.9725 119.55 64.9725C118.978 64.9725 118.464 64.8371 118.008 64.5663C117.556 64.2955 117.197 63.9015 116.933 63.3845C116.671 62.8674 116.54 62.2396 116.54 61.5009C116.54 60.7746 116.668 60.1422 116.923 59.6036C117.179 59.0619 117.534 58.6433 117.99 58.3479C118.445 58.0494 118.972 57.9001 119.569 57.9001C120.03 57.9001 120.397 57.977 120.667 58.1309C120.941 58.2817 121.151 58.4541 121.295 58.648C121.443 58.8388 121.557 58.9957 121.637 59.1188H121.748V57.9924H122.8V65.2865C122.8 65.8958 122.662 66.3913 122.385 66.773C122.111 67.1577 121.741 67.4393 121.277 67.6178C120.815 67.7994 120.301 67.8902 119.735 67.8902ZM119.698 63.9938C120.135 63.9938 120.504 63.8938 120.806 63.6938C121.107 63.4937 121.337 63.206 121.494 62.8305C121.651 62.455 121.729 62.0057 121.729 61.4825C121.729 60.9716 121.652 60.5207 121.498 60.1299C121.344 59.739 121.117 59.4328 120.815 59.2112C120.514 58.9896 120.141 58.8788 119.698 58.8788C119.236 58.8788 118.852 58.9957 118.544 59.2296C118.239 59.4635 118.01 59.7775 117.856 60.1714C117.705 60.5653 117.63 61.0024 117.63 61.4825C117.63 61.9749 117.707 62.4104 117.861 62.7889C118.018 63.1644 118.248 63.4599 118.553 63.6753C118.861 63.8877 119.242 63.9938 119.698 63.9938ZM86.1679 73.9924C86.1125 73.5246 85.8878 73.1615 85.4939 72.9029C85.0999 72.6444 84.6167 72.5152 84.0443 72.5152C83.6257 72.5152 83.2595 72.5829 82.9456 72.7183C82.6347 72.8537 82.3916 73.0399 82.2162 73.2769C82.0438 73.5139 81.9577 73.7831 81.9577 74.0848C81.9577 74.3371 82.0177 74.5541 82.1377 74.7357C82.2608 74.9142 82.4178 75.0634 82.6086 75.1835C82.7994 75.3004 82.9994 75.3974 83.2087 75.4743C83.418 75.5482 83.6104 75.6082 83.7858 75.6544L84.746 75.9129C84.9922 75.9775 85.2661 76.0668 85.5677 76.1806C85.8724 76.2945 86.1633 76.4499 86.4403 76.6469C86.7203 76.8408 86.9511 77.0901 87.1327 77.3948C87.3143 77.6995 87.4051 78.0734 87.4051 78.5166C87.4051 79.0275 87.2712 79.4891 87.0035 79.9015C86.7388 80.3139 86.351 80.6417 85.8401 80.8848C85.3323 81.128 84.7152 81.2495 83.9889 81.2495C83.3118 81.2495 82.7255 81.1403 82.23 80.9218C81.7376 80.7032 81.3498 80.3986 81.0667 80.0077C80.7866 79.6168 80.6281 79.1629 80.5912 78.6458H81.773C81.8038 79.0028 81.9238 79.2983 82.1331 79.5322C82.3454 79.763 82.6132 79.9354 82.9363 80.0492C83.2626 80.16 83.6134 80.2154 83.9889 80.2154C84.4259 80.2154 84.8183 80.1447 85.1661 80.0031C85.5139 79.8584 85.7893 79.6584 85.9925 79.4029C86.1956 79.1444 86.2971 78.8428 86.2971 78.4981C86.2971 78.1842 86.2094 77.9287 86.034 77.7318C85.8586 77.5348 85.6278 77.3748 85.3415 77.2517C85.0553 77.1286 84.746 77.0208 84.4136 76.9285L83.2503 76.5961C82.5116 76.3838 81.9269 76.0806 81.496 75.6867C81.0651 75.2927 80.8497 74.7772 80.8497 74.1402C80.8497 73.6108 80.9928 73.1491 81.279 72.7552C81.5683 72.3582 81.9561 72.0504 82.4424 71.8319C82.9317 71.6103 83.478 71.4995 84.0812 71.4995C84.6906 71.4995 85.2323 71.6088 85.7062 71.8273C86.1802 72.0427 86.5557 72.3382 86.8327 72.7137C87.1127 73.0891 87.2604 73.5154 87.2758 73.9924H86.1679ZM92.1128 81.2311C91.4295 81.2311 90.8401 81.0803 90.3446 80.7786C89.8522 80.474 89.4721 80.0492 89.2044 79.5045C88.9397 78.9567 88.8074 78.3196 88.8074 77.5933C88.8074 76.867 88.9397 76.2268 89.2044 75.6728C89.4721 75.1158 89.8445 74.6818 90.3216 74.371C90.8017 74.0571 91.3618 73.9001 92.002 73.9001C92.3713 73.9001 92.736 73.9617 93.0961 74.0848C93.4561 74.2079 93.7839 74.4079 94.0794 74.6849C94.3748 74.9588 94.6103 75.322 94.7857 75.7744C94.9611 76.2268 95.0488 76.7839 95.0488 77.4456V77.9072H89.5829V76.9654H93.9409C93.9409 76.5653 93.8609 76.2083 93.7008 75.8944C93.5439 75.5805 93.3192 75.3327 93.0268 75.1512C92.7375 74.9696 92.3959 74.8788 92.002 74.8788C91.568 74.8788 91.1925 74.9865 90.8755 75.2019C90.5616 75.4143 90.32 75.6913 90.1507 76.0329C89.9815 76.3745 89.8968 76.7408 89.8968 77.1316V77.7595C89.8968 78.295 89.9892 78.7489 90.1738 79.1213C90.3616 79.4907 90.6216 79.7723 90.954 79.9661C91.2864 80.157 91.6726 80.2524 92.1128 80.2524C92.399 80.2524 92.6575 80.2124 92.8883 80.1323C93.1222 80.0492 93.3238 79.9261 93.4931 79.763C93.6623 79.5968 93.7931 79.3906 93.8855 79.1444L94.938 79.4399C94.8272 79.7969 94.641 80.1108 94.3794 80.3816C94.1178 80.6494 93.7947 80.8587 93.41 81.0095C93.0253 81.1572 92.5929 81.2311 92.1128 81.2311ZM96.7061 81.0833V73.9924H97.7587V75.0634H97.8326C97.9618 74.7126 98.1957 74.4279 98.5343 74.2094C98.8728 73.9909 99.2544 73.8816 99.6792 73.8816C99.7592 73.8816 99.8592 73.8832 99.9792 73.8862C100.099 73.8893 100.19 73.8939 100.252 73.9001V75.0081C100.215 74.9988 100.13 74.985 99.9977 74.9665C99.8684 74.945 99.7315 74.9342 99.5868 74.9342C99.2421 74.9342 98.9344 75.0065 98.6635 75.1512C98.3958 75.2927 98.1834 75.4897 98.0265 75.7421C97.8726 75.9914 97.7956 76.276 97.7956 76.5961V81.0833H96.7061ZM107.557 73.9924L104.935 81.0833H103.827L101.205 73.9924H102.387L104.344 79.643H104.418L106.375 73.9924H107.557ZM111.714 81.2311C111.031 81.2311 110.442 81.0803 109.946 80.7786C109.454 80.474 109.074 80.0492 108.806 79.5045C108.541 78.9567 108.409 78.3196 108.409 77.5933C108.409 76.867 108.541 76.2268 108.806 75.6728C109.074 75.1158 109.446 74.6818 109.923 74.371C110.403 74.0571 110.963 73.9001 111.604 73.9001C111.973 73.9001 112.338 73.9617 112.698 74.0848C113.058 74.2079 113.385 74.4079 113.681 74.6849C113.976 74.9588 114.212 75.322 114.387 75.7744C114.563 76.2268 114.65 76.7839 114.65 77.4456V77.9072H109.184V76.9654H113.542C113.542 76.5653 113.462 76.2083 113.302 75.8944C113.145 75.5805 112.921 75.3327 112.628 75.1512C112.339 74.9696 111.997 74.8788 111.604 74.8788C111.17 74.8788 110.794 74.9865 110.477 75.2019C110.163 75.4143 109.922 75.6913 109.752 76.0329C109.583 76.3745 109.498 76.7408 109.498 77.1316V77.7595C109.498 78.295 109.591 78.7489 109.775 79.1213C109.963 79.4907 110.223 79.7723 110.556 79.9661C110.888 80.157 111.274 80.2524 111.714 80.2524C112.001 80.2524 112.259 80.2124 112.49 80.1323C112.724 80.0492 112.925 79.9261 113.095 79.763C113.264 79.5968 113.395 79.3906 113.487 79.1444L114.54 79.4399C114.429 79.7969 114.243 80.1108 113.981 80.3816C113.719 80.6494 113.396 80.8587 113.012 81.0095C112.627 81.1572 112.194 81.2311 111.714 81.2311ZM116.308 81.0833V73.9924H117.36V75.0634H117.434C117.563 74.7126 117.797 74.4279 118.136 74.2094C118.474 73.9909 118.856 73.8816 119.281 73.8816C119.361 73.8816 119.461 73.8832 119.581 73.8862C119.701 73.8893 119.792 73.8939 119.853 73.9001V75.0081C119.816 74.9988 119.732 74.985 119.599 74.9665C119.47 74.945 119.333 74.9342 119.188 74.9342C118.844 74.9342 118.536 75.0065 118.265 75.1512C117.997 75.2927 117.785 75.4897 117.628 75.7421C117.474 75.9914 117.397 76.276 117.397 76.5961V81.0833H116.308Z" fill="white"/>
<rect x="35.4167" y="95.8333" width="129.167" height="56.25" fill="#00EFB5"/>
<path d="M85.2087 112.75H84.0638C83.9961 112.421 83.8776 112.131 83.7084 111.882C83.5422 111.633 83.3391 111.424 83.099 111.254C82.862 111.082 82.5989 110.953 82.3096 110.866C82.0203 110.78 81.7187 110.737 81.4048 110.737C80.8323 110.737 80.3137 110.882 79.849 111.171C79.3874 111.46 79.0196 111.887 78.7457 112.45C78.4748 113.013 78.3394 113.704 78.3394 114.523C78.3394 115.341 78.4748 116.032 78.7457 116.596C79.0196 117.159 79.3874 117.585 79.849 117.874C80.3137 118.164 80.8323 118.308 81.4048 118.308C81.7187 118.308 82.0203 118.265 82.3096 118.179C82.5989 118.093 82.862 117.965 83.099 117.796C83.3391 117.623 83.5422 117.413 83.7084 117.163C83.8776 116.911 83.9961 116.622 84.0638 116.295H85.2087C85.1226 116.779 84.9656 117.211 84.7379 117.593C84.5101 117.974 84.227 118.299 83.8884 118.567C83.5499 118.831 83.1698 119.033 82.7481 119.172C82.3296 119.31 81.8818 119.379 81.4048 119.379C80.5984 119.379 79.8813 119.182 79.2535 118.788C78.6256 118.394 78.1317 117.834 77.7716 117.108C77.4115 116.382 77.2315 115.52 77.2315 114.523C77.2315 113.526 77.4115 112.664 77.7716 111.938C78.1317 111.211 78.6256 110.651 79.2535 110.257C79.8813 109.863 80.5984 109.666 81.4048 109.666C81.8818 109.666 82.3296 109.735 82.7481 109.874C83.1698 110.012 83.5499 110.216 83.8884 110.483C84.227 110.748 84.5101 111.071 84.7379 111.453C84.9656 111.831 85.1226 112.264 85.2087 112.75ZM89.7917 119.398C89.1516 119.398 88.5899 119.245 88.1067 118.941C87.6266 118.636 87.2511 118.21 86.9803 117.662C86.7125 117.114 86.5787 116.474 86.5787 115.741C86.5787 115.003 86.7125 114.358 86.9803 113.807C87.2511 113.256 87.6266 112.828 88.1067 112.524C88.5899 112.219 89.1516 112.067 89.7917 112.067C90.4319 112.067 90.992 112.219 91.4721 112.524C91.9553 112.828 92.3308 113.256 92.5986 113.807C92.8694 114.358 93.0048 115.003 93.0048 115.741C93.0048 116.474 92.8694 117.114 92.5986 117.662C92.3308 118.21 91.9553 118.636 91.4721 118.941C90.992 119.245 90.4319 119.398 89.7917 119.398ZM89.7917 118.419C90.278 118.419 90.6781 118.294 90.992 118.045C91.3059 117.796 91.5383 117.468 91.6891 117.062C91.8399 116.656 91.9153 116.215 91.9153 115.741C91.9153 115.268 91.8399 114.826 91.6891 114.417C91.5383 114.007 91.3059 113.676 90.992 113.424C90.6781 113.172 90.278 113.045 89.7917 113.045C89.3055 113.045 88.9054 113.172 88.5915 113.424C88.2775 113.676 88.0452 114.007 87.8944 114.417C87.7436 114.826 87.6682 115.268 87.6682 115.741C87.6682 116.215 87.7436 116.656 87.8944 117.062C88.0452 117.468 88.2775 117.796 88.5915 118.045C88.9054 118.294 89.3055 118.419 89.7917 118.419ZM95.7574 114.984V119.25H94.6679V112.159H95.7205V113.267H95.8128C95.979 112.907 96.2313 112.618 96.5699 112.399C96.9084 112.178 97.3455 112.067 97.881 112.067C98.3611 112.067 98.7812 112.165 99.1413 112.362C99.5013 112.556 99.7814 112.852 99.9815 113.249C100.182 113.643 100.282 114.141 100.282 114.744V119.25H99.192V114.818C99.192 114.261 99.0474 113.827 98.7581 113.516C98.4688 113.202 98.0718 113.045 97.567 113.045C97.2193 113.045 96.9084 113.121 96.6345 113.272C96.3637 113.422 96.1498 113.643 95.9928 113.932C95.8359 114.221 95.7574 114.572 95.7574 114.984ZM105.356 112.159V113.082H101.681V112.159H105.356ZM102.752 110.46H103.842V117.219C103.842 117.527 103.887 117.757 103.976 117.911C104.068 118.062 104.185 118.164 104.327 118.216C104.471 118.265 104.624 118.29 104.784 118.29C104.904 118.29 105.002 118.284 105.079 118.271C105.156 118.256 105.218 118.244 105.264 118.234L105.485 119.213C105.412 119.241 105.308 119.268 105.176 119.296C105.044 119.327 104.876 119.342 104.673 119.342C104.365 119.342 104.064 119.276 103.768 119.144C103.476 119.011 103.233 118.81 103.039 118.539C102.848 118.268 102.752 117.927 102.752 117.514V110.46ZM106.995 119.25V112.159H108.048V113.23H108.121C108.251 112.879 108.485 112.595 108.823 112.376C109.162 112.158 109.543 112.048 109.968 112.048C110.048 112.048 110.148 112.05 110.268 112.053C110.388 112.056 110.479 112.061 110.54 112.067V113.175C110.504 113.165 110.419 113.152 110.287 113.133C110.157 113.112 110.02 113.101 109.876 113.101C109.531 113.101 109.223 113.173 108.952 113.318C108.685 113.459 108.472 113.656 108.315 113.909C108.161 114.158 108.085 114.443 108.085 114.763V119.25H106.995ZM114.497 119.398C113.857 119.398 113.295 119.245 112.812 118.941C112.332 118.636 111.956 118.21 111.685 117.662C111.418 117.114 111.284 116.474 111.284 115.741C111.284 115.003 111.418 114.358 111.685 113.807C111.956 113.256 112.332 112.828 112.812 112.524C113.295 112.219 113.857 112.067 114.497 112.067C115.137 112.067 115.697 112.219 116.177 112.524C116.66 112.828 117.036 113.256 117.304 113.807C117.574 114.358 117.71 115.003 117.71 115.741C117.71 116.474 117.574 117.114 117.304 117.662C117.036 118.21 116.66 118.636 116.177 118.941C115.697 119.245 115.137 119.398 114.497 119.398ZM114.497 118.419C114.983 118.419 115.383 118.294 115.697 118.045C116.011 117.796 116.243 117.468 116.394 117.062C116.545 116.656 116.62 116.215 116.62 115.741C116.62 115.268 116.545 114.826 116.394 114.417C116.243 114.007 116.011 113.676 115.697 113.424C115.383 113.172 114.983 113.045 114.497 113.045C114.011 113.045 113.61 113.172 113.297 113.424C112.983 113.676 112.75 114.007 112.599 114.417C112.449 114.826 112.373 115.268 112.373 115.741C112.373 116.215 112.449 116.656 112.599 117.062C112.75 117.468 112.983 117.796 113.297 118.045C113.61 118.294 114.011 118.419 114.497 118.419ZM120.462 109.795V119.25H119.373V109.795H120.462ZM83.1867 135.25V125.795H86.3813C87.123 125.795 87.7293 125.929 88.2002 126.197C88.6742 126.462 89.025 126.82 89.2528 127.273C89.4805 127.725 89.5944 128.23 89.5944 128.787C89.5944 129.344 89.4805 129.85 89.2528 130.306C89.0281 130.761 88.6803 131.124 88.2094 131.395C87.7386 131.663 87.1353 131.797 86.3998 131.797H84.11V130.781H86.3629C86.8707 130.781 87.2785 130.694 87.5862 130.518C87.894 130.343 88.1171 130.106 88.2556 129.807C88.3972 129.506 88.468 129.165 88.468 128.787C88.468 128.408 88.3972 128.07 88.2556 127.771C88.1171 127.473 87.8924 127.239 87.5816 127.07C87.2708 126.897 86.8584 126.811 86.3444 126.811H84.3316V135.25H83.1867ZM92.3804 125.795V135.25H91.2909V125.795H92.3804ZM96.4625 135.416C96.0132 135.416 95.6054 135.332 95.2392 135.162C94.8729 134.99 94.5821 134.742 94.3667 134.419C94.1512 134.093 94.0435 133.699 94.0435 133.237C94.0435 132.831 94.1235 132.502 94.2836 132.249C94.4436 131.994 94.6575 131.794 94.9253 131.649C95.193 131.504 95.4885 131.397 95.8116 131.326C96.1379 131.252 96.4656 131.194 96.7949 131.151C97.2258 131.095 97.5751 131.054 97.8429 131.026C98.1137 130.995 98.3107 130.944 98.4338 130.874C98.56 130.803 98.6231 130.68 98.6231 130.504V130.467C98.6231 130.012 98.4984 129.658 98.2491 129.406C98.0029 129.153 97.629 129.027 97.1273 129.027C96.6072 129.027 96.1994 129.141 95.904 129.369C95.6085 129.596 95.4008 129.839 95.2807 130.098L94.2466 129.729C94.4313 129.298 94.6775 128.962 94.9853 128.722C95.2961 128.479 95.6347 128.31 96.0009 128.214C96.3702 128.116 96.7334 128.067 97.0904 128.067C97.3181 128.067 97.5797 128.094 97.8752 128.15C98.1737 128.202 98.4615 128.311 98.7385 128.478C99.0185 128.644 99.2509 128.895 99.4356 129.23C99.6202 129.566 99.7125 130.015 99.7125 130.578V135.25H98.6231V134.29H98.5677C98.4938 134.444 98.3707 134.608 98.1983 134.784C98.026 134.959 97.7967 135.108 97.5105 135.232C97.2243 135.355 96.875 135.416 96.4625 135.416ZM96.6287 134.438C97.0596 134.438 97.4228 134.353 97.7182 134.184C98.0168 134.014 98.2414 133.796 98.3922 133.528C98.5461 133.26 98.6231 132.979 98.6231 132.683V131.686C98.5769 131.741 98.4753 131.792 98.3184 131.838C98.1645 131.882 97.986 131.92 97.7829 131.954C97.5828 131.985 97.3874 132.012 97.1966 132.037C97.0088 132.058 96.8565 132.077 96.7395 132.092C96.4564 132.129 96.1917 132.189 95.9455 132.272C95.7024 132.352 95.5054 132.474 95.3546 132.637C95.2069 132.797 95.133 133.016 95.133 133.293C95.133 133.671 95.273 133.957 95.5531 134.151C95.8362 134.342 96.1948 134.438 96.6287 134.438ZM102.791 130.984V135.25H101.701V128.159H102.754V129.267H102.846C103.012 128.907 103.265 128.618 103.603 128.399C103.942 128.178 104.379 128.067 104.914 128.067C105.394 128.067 105.814 128.165 106.174 128.362C106.535 128.556 106.815 128.852 107.015 129.249C107.215 129.643 107.315 130.141 107.315 130.744V135.25H106.225V130.818C106.225 130.261 106.081 129.827 105.791 129.516C105.502 129.202 105.105 129.045 104.6 129.045C104.252 129.045 103.942 129.121 103.668 129.272C103.397 129.422 103.183 129.643 103.026 129.932C102.869 130.221 102.791 130.572 102.791 130.984ZM112.279 135.398C111.595 135.398 111.006 135.247 110.51 134.945C110.018 134.641 109.638 134.216 109.37 133.671C109.106 133.123 108.973 132.486 108.973 131.76C108.973 131.034 109.106 130.393 109.37 129.839C109.638 129.282 110.01 128.848 110.487 128.538C110.968 128.224 111.528 128.067 112.168 128.067C112.537 128.067 112.902 128.128 113.262 128.251C113.622 128.375 113.95 128.575 114.245 128.852C114.541 129.125 114.776 129.489 114.952 129.941C115.127 130.393 115.215 130.951 115.215 131.612V132.074H109.749V131.132H114.107C114.107 130.732 114.027 130.375 113.867 130.061C113.71 129.747 113.485 129.499 113.193 129.318C112.903 129.136 112.562 129.045 112.168 129.045C111.734 129.045 111.358 129.153 111.041 129.369C110.727 129.581 110.486 129.858 110.317 130.2C110.147 130.541 110.063 130.907 110.063 131.298V131.926C110.063 132.462 110.155 132.916 110.34 133.288C110.527 133.657 110.787 133.939 111.12 134.133C111.452 134.324 111.838 134.419 112.279 134.419C112.565 134.419 112.823 134.379 113.054 134.299C113.288 134.216 113.49 134.093 113.659 133.93C113.828 133.763 113.959 133.557 114.051 133.311L115.104 133.607C114.993 133.964 114.807 134.277 114.545 134.548C114.284 134.816 113.961 135.025 113.576 135.176C113.191 135.324 112.759 135.398 112.279 135.398Z" fill="black"/>
<path d="M35.4167 152.083H164.583V203.25C164.583 204.907 163.24 206.25 161.583 206.25H38.4167C36.7598 206.25 35.4167 204.907 35.4167 203.25V152.083Z" fill="#BFBFBF"/>
<path d="M88.6624 175.5H85.7448V166.045H88.7917C89.7088 166.045 90.4936 166.235 91.1461 166.613C91.7986 166.989 92.2987 167.529 92.6465 168.234C92.9942 168.935 93.1681 169.776 93.1681 170.754C93.1681 171.739 92.9927 172.587 92.6418 173.298C92.291 174.006 91.7801 174.551 91.1092 174.932C90.4382 175.311 89.6227 175.5 88.6624 175.5ZM86.8897 174.484H88.5886C89.3703 174.484 90.0181 174.334 90.5321 174.032C91.0461 173.73 91.4292 173.301 91.6816 172.744C91.934 172.187 92.0602 171.524 92.0602 170.754C92.0602 169.991 91.9355 169.334 91.6862 168.783C91.4369 168.229 91.0645 167.804 90.569 167.509C90.0735 167.21 89.4565 167.061 88.7178 167.061H86.8897V174.484ZM97.0275 175.666C96.5782 175.666 96.1704 175.582 95.8041 175.412C95.4379 175.24 95.147 174.992 94.9316 174.669C94.7162 174.343 94.6085 173.949 94.6085 173.487C94.6085 173.081 94.6885 172.752 94.8485 172.499C95.0086 172.244 95.2224 172.044 95.4902 171.899C95.758 171.755 96.0534 171.647 96.3766 171.576C96.7028 171.502 97.0306 171.444 97.3599 171.401C97.7907 171.345 98.1401 171.304 98.4078 171.276C98.6787 171.245 98.8756 171.194 98.9987 171.124C99.1249 171.053 99.188 170.93 99.188 170.754V170.717C99.188 170.262 99.0634 169.908 98.8141 169.656C98.5679 169.403 98.1939 169.277 97.6923 169.277C97.1721 169.277 96.7644 169.391 96.4689 169.619C96.1734 169.846 95.9657 170.089 95.8457 170.348L94.8116 169.979C94.9962 169.548 95.2425 169.212 95.5502 168.972C95.8611 168.729 96.1996 168.56 96.5658 168.464C96.9352 168.366 97.2983 168.317 97.6553 168.317C97.8831 168.317 98.1447 168.344 98.4401 168.4C98.7387 168.452 99.0264 168.561 99.3034 168.728C99.5835 168.894 99.8158 169.145 100.001 169.48C100.185 169.816 100.277 170.265 100.277 170.828V175.5H99.188V174.54H99.1326C99.0587 174.694 98.9356 174.858 98.7633 175.034C98.5909 175.209 98.3617 175.358 98.0754 175.482C97.7892 175.605 97.4399 175.666 97.0275 175.666ZM97.1937 174.688C97.6246 174.688 97.9877 174.603 98.2832 174.434C98.5817 174.264 98.8064 174.046 98.9572 173.778C99.1111 173.51 99.188 173.229 99.188 172.933V171.936C99.1418 171.991 99.0403 172.042 98.8833 172.088C98.7294 172.132 98.5509 172.17 98.3478 172.204C98.1478 172.235 97.9523 172.262 97.7615 172.287C97.5738 172.308 97.4214 172.327 97.3045 172.342C97.0213 172.379 96.7567 172.439 96.5104 172.522C96.2673 172.602 96.0703 172.724 95.9195 172.887C95.7718 173.047 95.6979 173.266 95.6979 173.543C95.6979 173.921 95.838 174.207 96.118 174.401C96.4012 174.592 96.7597 174.688 97.1937 174.688ZM105.35 168.409V169.332H101.675V168.409H105.35ZM102.746 166.71H103.836V173.469C103.836 173.777 103.88 174.007 103.97 174.161C104.062 174.312 104.179 174.414 104.32 174.466C104.465 174.515 104.617 174.54 104.777 174.54C104.897 174.54 104.996 174.534 105.073 174.521C105.15 174.506 105.211 174.494 105.258 174.484L105.479 175.463C105.405 175.491 105.302 175.518 105.17 175.546C105.037 175.577 104.87 175.592 104.667 175.592C104.359 175.592 104.057 175.526 103.762 175.394C103.469 175.261 103.226 175.06 103.032 174.789C102.842 174.518 102.746 174.177 102.746 173.764V166.71ZM109.075 175.666C108.626 175.666 108.218 175.582 107.852 175.412C107.486 175.24 107.195 174.992 106.979 174.669C106.764 174.343 106.656 173.949 106.656 173.487C106.656 173.081 106.736 172.752 106.896 172.499C107.056 172.244 107.27 172.044 107.538 171.899C107.806 171.755 108.101 171.647 108.424 171.576C108.751 171.502 109.078 171.444 109.408 171.401C109.839 171.345 110.188 171.304 110.456 171.276C110.727 171.245 110.923 171.194 111.047 171.124C111.173 171.053 111.236 170.93 111.236 170.754V170.717C111.236 170.262 111.111 169.908 110.862 169.656C110.616 169.403 110.242 169.277 109.74 169.277C109.22 169.277 108.812 169.391 108.517 169.619C108.221 169.846 108.014 170.089 107.894 170.348L106.859 169.979C107.044 169.548 107.29 169.212 107.598 168.972C107.909 168.729 108.247 168.56 108.614 168.464C108.983 168.366 109.346 168.317 109.703 168.317C109.931 168.317 110.193 168.344 110.488 168.4C110.787 168.452 111.074 168.561 111.351 168.728C111.631 168.894 111.864 169.145 112.048 169.48C112.233 169.816 112.325 170.265 112.325 170.828V175.5H111.236V174.54H111.18C111.107 174.694 110.983 174.858 110.811 175.034C110.639 175.209 110.41 175.358 110.123 175.482C109.837 175.605 109.488 175.666 109.075 175.666ZM109.242 174.688C109.672 174.688 110.036 174.603 110.331 174.434C110.63 174.264 110.854 174.046 111.005 173.778C111.159 173.51 111.236 173.229 111.236 172.933V171.936C111.19 171.991 111.088 172.042 110.931 172.088C110.777 172.132 110.599 172.17 110.396 172.204C110.196 172.235 110 172.262 109.809 172.287C109.622 172.308 109.469 172.327 109.352 172.342C109.069 172.379 108.805 172.439 108.558 172.522C108.315 172.602 108.118 172.724 107.967 172.887C107.82 173.047 107.746 173.266 107.746 173.543C107.746 173.921 107.886 174.207 108.166 174.401C108.449 174.592 108.808 174.688 109.242 174.688ZM83.1867 191.5V182.045H86.3813C87.123 182.045 87.7293 182.179 88.2002 182.447C88.6742 182.712 89.025 183.07 89.2528 183.523C89.4805 183.975 89.5944 184.48 89.5944 185.037C89.5944 185.594 89.4805 186.1 89.2528 186.556C89.0281 187.011 88.6803 187.374 88.2094 187.645C87.7386 187.913 87.1353 188.047 86.3998 188.047H84.11V187.031H86.3629C86.8707 187.031 87.2785 186.944 87.5862 186.768C87.894 186.593 88.1171 186.356 88.2556 186.057C88.3972 185.756 88.468 185.415 88.468 185.037C88.468 184.658 88.3972 184.32 88.2556 184.021C88.1171 183.723 87.8924 183.489 87.5816 183.32C87.2708 183.147 86.8584 183.061 86.3444 183.061H84.3316V191.5H83.1867ZM92.3804 182.045V191.5H91.2909V182.045H92.3804ZM96.4625 191.666C96.0132 191.666 95.6054 191.582 95.2392 191.412C94.8729 191.24 94.5821 190.992 94.3667 190.669C94.1512 190.343 94.0435 189.949 94.0435 189.487C94.0435 189.081 94.1235 188.752 94.2836 188.499C94.4436 188.244 94.6575 188.044 94.9253 187.899C95.193 187.755 95.4885 187.647 95.8116 187.576C96.1379 187.502 96.4656 187.444 96.7949 187.401C97.2258 187.345 97.5751 187.304 97.8429 187.276C98.1137 187.245 98.3107 187.194 98.4338 187.124C98.56 187.053 98.6231 186.93 98.6231 186.754V186.717C98.6231 186.262 98.4984 185.908 98.2491 185.656C98.0029 185.403 97.629 185.277 97.1273 185.277C96.6072 185.277 96.1994 185.391 95.904 185.619C95.6085 185.846 95.4008 186.089 95.2807 186.348L94.2466 185.979C94.4313 185.548 94.6775 185.212 94.9853 184.972C95.2961 184.729 95.6347 184.56 96.0009 184.464C96.3702 184.366 96.7334 184.317 97.0904 184.317C97.3181 184.317 97.5797 184.344 97.8752 184.4C98.1737 184.452 98.4615 184.561 98.7385 184.728C99.0185 184.894 99.2509 185.145 99.4356 185.48C99.6202 185.816 99.7125 186.265 99.7125 186.828V191.5H98.6231V190.54H98.5677C98.4938 190.694 98.3707 190.858 98.1983 191.034C98.026 191.209 97.7967 191.358 97.5105 191.482C97.2243 191.605 96.875 191.666 96.4625 191.666ZM96.6287 190.688C97.0596 190.688 97.4228 190.603 97.7182 190.434C98.0168 190.264 98.2414 190.046 98.3922 189.778C98.5461 189.51 98.6231 189.229 98.6231 188.933V187.936C98.5769 187.991 98.4753 188.042 98.3184 188.088C98.1645 188.132 97.986 188.17 97.7829 188.204C97.5828 188.235 97.3874 188.262 97.1966 188.287C97.0088 188.308 96.8565 188.327 96.7395 188.342C96.4564 188.379 96.1917 188.439 95.9455 188.522C95.7024 188.602 95.5054 188.724 95.3546 188.887C95.2069 189.047 95.133 189.266 95.133 189.543C95.133 189.921 95.273 190.207 95.5531 190.401C95.8362 190.592 96.1948 190.688 96.6287 190.688ZM102.791 187.234V191.5H101.701V184.409H102.754V185.517H102.846C103.012 185.157 103.265 184.868 103.603 184.649C103.942 184.428 104.379 184.317 104.914 184.317C105.394 184.317 105.814 184.415 106.174 184.612C106.535 184.806 106.815 185.102 107.015 185.499C107.215 185.893 107.315 186.391 107.315 186.994V191.5H106.225V187.068C106.225 186.511 106.081 186.077 105.791 185.766C105.502 185.452 105.105 185.295 104.6 185.295C104.252 185.295 103.942 185.371 103.668 185.522C103.397 185.672 103.183 185.893 103.026 186.182C102.869 186.471 102.791 186.822 102.791 187.234ZM112.279 191.648C111.595 191.648 111.006 191.497 110.51 191.195C110.018 190.891 109.638 190.466 109.37 189.921C109.106 189.373 108.973 188.736 108.973 188.01C108.973 187.284 109.106 186.643 109.37 186.089C109.638 185.532 110.01 185.098 110.487 184.788C110.968 184.474 111.528 184.317 112.168 184.317C112.537 184.317 112.902 184.378 113.262 184.501C113.622 184.625 113.95 184.825 114.245 185.102C114.541 185.375 114.776 185.739 114.952 186.191C115.127 186.643 115.215 187.201 115.215 187.862V188.324H109.749V187.382H114.107C114.107 186.982 114.027 186.625 113.867 186.311C113.71 185.997 113.485 185.749 113.193 185.568C112.903 185.386 112.562 185.295 112.168 185.295C111.734 185.295 111.358 185.403 111.041 185.619C110.727 185.831 110.486 186.108 110.317 186.45C110.147 186.791 110.063 187.157 110.063 187.548V188.176C110.063 188.712 110.155 189.166 110.34 189.538C110.527 189.907 110.787 190.189 111.12 190.383C111.452 190.574 111.838 190.669 112.279 190.669C112.565 190.669 112.823 190.629 113.054 190.549C113.288 190.466 113.49 190.343 113.659 190.18C113.828 190.013 113.959 189.807 114.051 189.561L115.104 189.857C114.993 190.214 114.807 190.527 114.545 190.798C114.284 191.066 113.961 191.275 113.576 191.426C113.191 191.574 112.759 191.648 112.279 191.648Z" fill="black"/>
</svg>
